UbuntuMono-Italic.ufo
<glyph name="asterisk" format="2">
	<unicode hex="002A"/>
	<advance width="500"/>
	<outline>
		<contour>
			<point x="367" y="417" type="qcurve"/>
			<point x="395" y="392"/>
			<point x="452" y="337"/>
			<point x="472" y="306" type="qcurve"/>
			<point x="476" y="301" type="line"/>
			<point x="406" y="250" type="line"/>
			<point x="402" y="256" type="line"/>
			<point x="380" y="286"/>
			<point x="346" y="357"/>
			<point x="331" y="390" type="qcurve"/>
			<point x="316" y="357"/>
			<point x="281" y="286"/>
			<point x="258" y="256" type="qcurve"/>
			<point x="254" y="251" type="line"/>
			<point x="185" y="301" type="line"/>
			<point x="189" y="307" type="line"/>
			<point x="212" y="338"/>
			<point x="267" y="392"/>
			<point x="295" y="417" type="qcurve"/>
			<point x="258" y="422"/>
			<point x="180" y="433"/>
			<point x="145" y="445" type="qcurve"/>
			<point x="138" y="447" type="line"/>
			<point x="164" y="529" type="line"/>
			<point x="171" y="526" type="line"/>
			<point x="206" y="512"/>
			<point x="277" y="478"/>
			<point x="309" y="460" type="qcurve"/>
			<point x="301" y="496"/>
			<point x="288" y="574"/>
			<point x="288" y="612" type="qcurve"/>
			<point x="288" y="619" type="line"/>
			<point x="374" y="619" type="line"/>
			<point x="374" y="612" type="line"/>
			<point x="374" y="574"/>
			<point x="361" y="496"/>
			<point x="354" y="460" type="qcurve"/>
			<point x="386" y="479"/>
			<point x="456" y="512"/>
			<point x="490" y="525" type="qcurve"/>
			<point x="497" y="528" type="line"/>
			<point x="523" y="446" type="line"/>
			<point x="517" y="444" type="line"/>
			<point x="482" y="433"/>
			<point x="404" y="421"/>
		</contour>
	</outline>
</glyph>
<glyph name="nine" format="2">
	<unicode hex="0039"/>
	<advance width="500"/>
	<outline>
		<contour>
			<point x="289" y="243" type="qcurve"/>
			<point x="249" y="243"/>
			<point x="191" y="266"/>
			<point x="154" y="306"/>
			<point x="136" y="359"/>
			<point x="136" y="389" type="qcurve"/>
			<point x="136" y="434"/>
			<point x="164" y="521"/>
			<point x="221" y="590"/>
			<point x="309" y="632"/>
			<point x="368" y="632" type="qcurve"/>
			<point x="451" y="632"/>
			<point x="535" y="536"/>
			<point x="535" y="454" type="qcurve"/>
			<point x="535" y="358"/>
			<point x="475" y="192"/>
			<point x="362" y="69"/>
			<point x="200" y="-2"/>
			<point x="97" y="-2" type="qcurve"/>
			<point x="92" y="-2"/>
			<point x="83" y="-2"/>
			<point x="74" y="-1" type="qcurve"/>
			<point x="89" y="70" type="line"/>
			<point x="92" y="69"/>
			<point x="103" y="69"/>
			<point x="105" y="69" type="qcurve"/>
			<point x="168" y="69"/>
			<point x="267" y="100"/>
			<point x="342" y="155"/>
			<point x="396" y="229"/>
			<point x="414" y="271" type="qcurve"/>
			<point x="385" y="257"/>
			<point x="320" y="243"/>
		</contour>
		<contour>
			<point x="309" y="312" type="qcurve"/>
			<point x="341" y="312"/>
			<point x="404" y="323"/>
			<point x="436" y="338" type="qcurve"/>
			<point x="453" y="394"/>
			<point x="453" y="455" type="qcurve"/>
			<point x="453" y="504"/>
			<point x="410" y="564"/>
			<point x="362" y="564" type="qcurve"/>
			<point x="327" y="564"/>
			<point x="273" y="535"/>
			<point x="237" y="488"/>
			<point x="218" y="429"/>
			<point x="218" y="398" type="qcurve"/>
			<point x="218" y="355"/>
			<point x="261" y="312"/>
		</contour>
	</outline>
</glyph>
<glyph name="less" format="2">
	<unicode hex="003C"/>
	<advance width="500"/>
	<outline>
		<contour>
			<point x="417" y="55" type="line"/>
			<point x="78" y="219" type="line"/>
			<point x="95" y="290" type="line"/>
			<point x="513" y="454" type="line"/>
			<point x="518" y="380" type="line"/>
			<point x="177" y="250" type="line"/>
			<point x="455" y="121" type="line"/>
		</contour>
	</outline>
	<guideline x="98"/>
	<guideline x="475"/>
	<guideline y="255"/>
</glyph>
<glyph name="question" format="2">
  <advance width="500"/>
  <unicode hex="003F"/>
  <outline>
    <contour>
      <point x="299" y="211" type="line"/>
      <point x="321" y="332"/>
      <point x="518" y="363"/>
      <point x="518" y="512" type="curve" smooth="yes"/>
      <point x="518" y="604"/>
      <point x="445" y="633"/>
      <point x="369" y="633" type="curve" smooth="yes"/>
      <point x="317" y="633"/>
      <point x="264" y="619"/>
      <point x="232" y="602" type="curve"/>
      <point x="241" y="538" type="line"/>
      <point x="284" y="558"/>
      <point x="318" y="565"/>
      <point x="357" y="565" type="curve" smooth="yes"/>
      <point x="413" y="565"/>
      <point x="436" y="538"/>
      <point x="436" y="501" type="curve" smooth="yes"/>
      <point x="436" y="395"/>
      <point x="250" y="347"/>
      <point x="229" y="230" type="curve" smooth="yes"/>
      <point x="226" y="211" type="line"/>
    </contour>
    <contour>
      <point x="222" y="-12" type="curve" smooth="yes"/>
      <point x="258" y="-12"/>
      <point x="294" y="17"/>
      <point x="294" y="63" type="curve" smooth="yes"/>
      <point x="294" y="103"/>
      <point x="267" y="124"/>
      <point x="233" y="124" type="curve" smooth="yes"/>
      <point x="196" y="124"/>
      <point x="163" y="96"/>
      <point x="163" y="48" type="curve" smooth="yes"/>
      <point x="163" y="8"/>
      <point x="188" y="-12"/>
    </contour>
  </outline>
</glyph>
<glyph name="P" format="2">
	<unicode hex="0050"/>
	<advance width="500"/>
	<outline>
		<contour>
			<point x="357" y="625" type="qcurve"/>
			<point x="439" y="625"/>
			<point x="541" y="548"/>
			<point x="541" y="472" type="qcurve"/>
			<point x="541" y="418"/>
			<point x="501" y="329"/>
			<point x="427" y="266"/>
			<point x="325" y="231"/>
			<point x="263" y="231" type="qcurve"/>
			<point x="191" y="231" type="line"/>
			<point x="135" y="0" type="line"/>
			<point x="54" y="0" type="line"/>
			<point x="199" y="610" type="line"/>
			<point x="212" y="613"/>
			<point x="252" y="618"/>
			<point x="296" y="623"/>
			<point x="339" y="625"/>
		</contour>
		<contour>
			<point x="344" y="555" type="qcurve"/>
			<point x="321" y="555"/>
			<point x="279" y="553"/>
			<point x="268" y="551" type="qcurve"/>
			<point x="207" y="301" type="line"/>
			<point x="274" y="301" type="line"/>
			<point x="363" y="301"/>
			<point x="459" y="387"/>
			<point x="459" y="464" type="qcurve"/>
			<point x="459" y="489"/>
			<point x="439" y="524"/>
			<point x="406" y="546"/>
			<point x="365" y="555"/>
		</contour>
	</outline>
	<guideline y="457"/>
	<guideline y="464"/>
</glyph>
<glyph name="g" format="2">
	<unicode hex="0067"/>
	<advance width="500"/>
	<outline>
		<contour>
			<point x="179" y="-98" type="qcurve"/>
			<point x="253" y="-98"/>
			<point x="334" y="-33"/>
			<point x="347" y="31" type="qcurve"/>
			<point x="351" y="48" type="line"/>
			<point x="333" y="38"/>
			<point x="268" y="19"/>
			<point x="236" y="19" type="qcurve"/>
			<point x="163" y="19"/>
			<point x="86" y="91"/>
			<point x="86" y="156" type="qcurve"/>
			<point x="86" y="216"/>
			<point x="125" y="330"/>
			<point x="205" y="420"/>
			<point x="325" y="474"/>
			<point x="405" y="474" type="qcurve"/>
			<point x="417" y="474"/>
			<point x="451" y="472"/>
			<point x="486" y="467"/>
			<point x="519" y="458"/>
			<point x="531" y="451" type="qcurve"/>
			<point x="428" y="40" type="line"/>
			<point x="416" y="-8"/>
			<point x="382" y="-85"/>
			<point x="323" y="-139"/>
			<point x="231" y="-168"/>
			<point x="161" y="-168" type="qcurve"/>
			<point x="123" y="-168"/>
			<point x="47" y="-148"/>
			<point x="21" y="-132" type="qcurve"/>
			<point x="53" y="-63" type="line"/>
			<point x="73" y="-78"/>
			<point x="141" y="-98"/>
		</contour>
		<contour>
			<point x="254" y="87" type="qcurve"/>
			<point x="272" y="87"/>
			<point x="306" y="95"/>
			<point x="337" y="107"/>
			<point x="362" y="120"/>
			<point x="370" y="126" type="qcurve"/>
			<point x="435" y="400" type="line"/>
			<point x="426" y="402"/>
			<point x="399" y="405"/>
			<point x="388" y="405" type="qcurve"/>
			<point x="340" y="405"/>
			<point x="259" y="365"/>
			<point x="200" y="299"/>
			<point x="168" y="215"/>
			<point x="168" y="172" type="qcurve"/>
			<point x="168" y="124"/>
			<point x="210" y="87"/>
		</contour>
	</outline>
</glyph>
<glyph name="j" format="2">
	<unicode hex="006A"/>
	<advance width="500"/>
	<outline>
		<contour>
			<point x="191" y="395" type="line"/>
			<point x="207" y="464" type="line"/>
			<point x="477" y="464" type="line"/>
			<point x="367" y="6" type="line"/>
			<point x="344" y="-90"/>
			<point x="236" y="-168"/>
			<point x="154" y="-168" type="qcurve"/>
			<point x="79" y="-168"/>
			<point x="21" y="-132" type="qcurve"/>
			<point x="53" y="-63" type="line"/>
			<point x="63" y="-71"/>
			<point x="90" y="-83"/>
			<point x="120" y="-92"/>
			<point x="150" y="-97"/>
			<point x="163" y="-97" type="qcurve"/>
			<point x="215" y="-97"/>
			<point x="271" y="-51"/>
			<point x="285" y="8" type="qcurve"/>
			<point x="379" y="395" type="line"/>
		</contour>
		<contour>
			<point x="428" y="536" type="qcurve"/>
			<point x="402" y="536"/>
			<point x="368" y="566"/>
			<point x="368" y="595" type="qcurve"/>
			<point x="368" y="630"/>
			<point x="412" y="670"/>
			<point x="439" y="670" type="qcurve"/>
			<point x="465" y="670"/>
			<point x="500" y="638"/>
			<point x="500" y="609" type="qcurve"/>
			<point x="500" y="592"/>
			<point x="487" y="566"/>
			<point x="467" y="546"/>
			<point x="441" y="536"/>
		</contour>
	</outline>
	<guideline y="-168"/>
</glyph>
<glyph name="braceright" format="2">
	<unicode hex="007D"/>
	<advance width="500"/>
	<outline>
		<contour>
			<point x="482" y="299" type="line"/>
			<point x="466" y="235" type="line"/>
			<point x="426" y="235" type="line"/>
			<point x="406" y="235"/>
			<point x="372" y="220"/>
			<point x="347" y="195"/>
			<point x="330" y="164"/>
			<point x="326" y="148" type="qcurve"/>
			<point x="288" y="-13" type="line"/>
			<point x="278" y="-54"/>
			<point x="248" y="-112"/>
			<point x="201" y="-148"/>
			<point x="132" y="-165"/>
			<point x="84" y="-165" type="qcurve"/>
			<point x="0" y="-165" type="line"/>
			<point x="16" y="-100" type="line"/>
			<point x="96" y="-100" type="line"/>
			<point x="121" y="-100"/>
			<point x="158" y="-94"/>
			<point x="186" y="-75"/>
			<point x="206" y="-40"/>
			<point x="212" y="-12" type="qcurve"/>
			<point x="245" y="126" type="line"/>
			<point x="259" y="185"/>
			<point x="301" y="251"/>
			<point x="338" y="267" type="qcurve"/>
			<point x="319" y="283"/>
			<point x="303" y="324"/>
			<point x="303" y="347" type="qcurve"/>
			<point x="303" y="363"/>
			<point x="308" y="393"/>
			<point x="312" y="408" type="qcurve"/>
			<point x="345" y="546" type="line"/>
			<point x="347" y="559"/>
			<point x="351" y="578"/>
			<point x="351" y="586" type="qcurve"/>
			<point x="351" y="615"/>
			<point x="314" y="634"/>
			<point x="273" y="634" type="qcurve"/>
			<point x="189" y="634" type="line"/>
			<point x="206" y="699" type="line"/>
			<point x="294" y="699" type="line"/>
			<point x="359" y="699"/>
			<point x="428" y="654"/>
			<point x="428" y="600" type="qcurve"/>
			<point x="428" y="589"/>
			<point x="424" y="562"/>
			<point x="421" y="547" type="qcurve"/>
			<point x="382" y="386" type="line"/>
			<point x="379" y="371"/>
			<point x="379" y="360" type="qcurve"/>
			<point x="379" y="335"/>
			<point x="407" y="299"/>
			<point x="442" y="299" type="qcurve"/>
		</contour>
	</outline>
</glyph>
<glyph name="cent" format="2">
	<unicode hex="00A2"/>
	<advance width="500"/>
	<outline>
		<contour>
			<point x="390" y="424" type="qcurve"/>
			<point x="342" y="424"/>
			<point x="263" y="386"/>
			<point x="207" y="324"/>
			<point x="176" y="245"/>
			<point x="176" y="204" type="qcurve"/>
			<point x="176" y="182"/>
			<point x="188" y="144"/>
			<point x="219" y="115"/>
			<point x="271" y="98"/>
			<point x="310" y="98" type="qcurve"/>
			<point x="327" y="98"/>
			<point x="364" y="104"/>
			<point x="397" y="112"/>
			<point x="422" y="122"/>
			<point x="427" y="127" type="qcurve"/>
			<point x="433" y="58" type="line"/>
			<point x="417" y="48"/>
			<point x="344" y="30"/>
			<point x="297" y="28" type="qcurve"/>
			<point x="268" y="-97" type="line"/>
			<point x="196" y="-97" type="line"/>
			<point x="226" y="32" type="line"/>
			<point x="160" y="48"/>
			<point x="95" y="129"/>
			<point x="95" y="201" type="qcurve"/>
			<point x="95" y="249"/>
			<point x="126" y="344"/>
			<point x="188" y="423"/>
			<point x="278" y="480"/>
			<point x="338" y="490" type="qcurve"/>
			<point x="368" y="619" type="line"/>
			<point x="440" y="619" type="line"/>
			<point x="411" y="495" type="line"/>
			<point x="437" y="493"/>
			<point x="487" y="484"/>
			<point x="510" y="473" type="qcurve"/>
			<point x="480" y="407" type="line"/>
			<point x="464" y="415"/>
			<point x="422" y="424"/>
		</contour>
	</outline>
</glyph>
<glyph name="currency" format="2">
	<unicode hex="00A4"/>
	<advance width="500"/>
	<outline>
		<contour>
			<point x="131" y="310" type="qcurve"/>
			<point x="131" y="365"/>
			<point x="156" y="405" type="qcurve"/>
			<point x="91" y="471" type="line"/>
			<point x="143" y="522" type="line"/>
			<point x="209" y="455" type="line"/>
			<point x="252" y="481"/>
			<point x="304" y="481" type="qcurve"/>
			<point x="356" y="481"/>
			<point x="397" y="455" type="qcurve"/>
			<point x="464" y="522" type="line"/>
			<point x="516" y="471" type="line"/>
			<point x="450" y="405" type="line"/>
			<point x="476" y="365"/>
			<point x="476" y="310" type="qcurve"/>
			<point x="476" y="281"/>
			<point x="463" y="235"/>
			<point x="450" y="215" type="qcurve"/>
			<point x="516" y="149" type="line"/>
			<point x="464" y="97" type="line"/>
			<point x="397" y="163" type="line"/>
			<point x="356" y="138"/>
			<point x="304" y="138" type="qcurve"/>
			<point x="250" y="138"/>
			<point x="209" y="163" type="qcurve"/>
			<point x="143" y="97" type="line"/>
			<point x="91" y="149" type="line"/>
			<point x="156" y="214" type="line"/>
			<point x="131" y="254"/>
		</contour>
		<contour>
			<point x="409" y="310" type="qcurve"/>
			<point x="409" y="361"/>
			<point x="347" y="421"/>
			<point x="304" y="421" type="qcurve"/>
			<point x="282" y="421"/>
			<point x="244" y="405"/>
			<point x="215" y="377"/>
			<point x="198" y="335"/>
			<point x="198" y="310" type="qcurve"/>
			<point x="198" y="284"/>
			<point x="215" y="243"/>
			<point x="244" y="215"/>
			<point x="282" y="199"/>
			<point x="304" y="199" type="qcurve"/>
			<point x="347" y="199"/>
			<point x="409" y="259"/>
		</contour>
	</outline>
</glyph>
<glyph name="yen" format="2">
	<unicode hex="00A5"/>
	<advance width="500"/>
	<outline>
		<contour>
			<point x="196" y="0" type="line"/>
			<point x="219" y="95" type="line"/>
			<point x="74" y="95" type="line"/>
			<point x="89" y="158" type="line"/>
			<point x="234" y="158" type="line"/>
			<point x="255" y="249" type="line"/>
			<point x="111" y="249" type="line"/>
			<point x="126" y="313" type="line"/>
			<point x="247" y="313" type="line"/>
			<point x="215" y="393"/>
			<point x="169" y="538"/>
			<point x="147" y="619" type="qcurve"/>
			<point x="234" y="619" type="line"/>
			<point x="248" y="546"/>
			<point x="293" y="404"/>
			<point x="316" y="344" type="qcurve"/>
			<point x="368" y="406"/>
			<point x="477" y="550"/>
			<point x="522" y="619" type="qcurve"/>
			<point x="616" y="619" type="line"/>
			<point x="559" y="539"/>
			<point x="441" y="391"/>
			<point x="374" y="313" type="qcurve"/>
			<point x="497" y="313" type="line"/>
			<point x="481" y="249" type="line"/>
			<point x="338" y="249" type="line"/>
			<point x="316" y="158" type="line"/>
			<point x="460" y="158" type="line"/>
			<point x="445" y="95" type="line"/>
			<point x="301" y="95" type="line"/>
			<point x="278" y="0" type="line"/>
		</contour>
	</outline>
</glyph>
<glyph name="dieresis" format="2">
	<unicode hex="00A8"/>
	<advance width="500"/>
	<outline>
		<contour>
			<point x="287" y="550" type="qcurve"/>
			<point x="267" y="550"/>
			<point x="240" y="575"/>
			<point x="240" y="596" type="qcurve"/>
			<point x="240" y="622"/>
			<point x="276" y="655"/>
			<point x="296" y="655" type="qcurve"/>
			<point x="316" y="655"/>
			<point x="344" y="630"/>
			<point x="344" y="608" type="qcurve"/>
			<point x="344" y="582"/>
			<point x="307" y="550"/>
		</contour>
		<contour>
			<point x="456" y="550" type="qcurve"/>
			<point x="436" y="550"/>
			<point x="410" y="575"/>
			<point x="410" y="596" type="qcurve"/>
			<point x="410" y="622"/>
			<point x="445" y="655"/>
			<point x="466" y="655" type="qcurve"/>
			<point x="486" y="655"/>
			<point x="513" y="630"/>
			<point x="513" y="608" type="qcurve"/>
			<point x="513" y="582"/>
			<point x="477" y="550"/>
		</contour>
	</outline>
</glyph>
<glyph name="copyright" format="2">
	<unicode hex="00A9"/>
	<advance width="500"/>
	<outline>
		<contour>
			<point x="446" y="231" type="qcurve"/>
			<point x="446" y="279"/>
			<point x="419" y="350"/>
			<point x="374" y="397"/>
			<point x="317" y="421"/>
			<point x="288" y="421" type="qcurve"/>
			<point x="258" y="421"/>
			<point x="201" y="397"/>
			<point x="156" y="350"/>
			<point x="129" y="279"/>
			<point x="129" y="233" type="qcurve"/>
			<point x="129" y="185"/>
			<point x="156" y="114"/>
			<point x="201" y="67"/>
			<point x="258" y="43"/>
			<point x="288" y="43" type="qcurve"/>
			<point x="318" y="43"/>
			<point x="374" y="67"/>
			<point x="419" y="114"/>
			<point x="446" y="184"/>
		</contour>
		<contour>
			<point x="364" y="120" type="line"/>
			<point x="347" y="112"/>
			<point x="310" y="104"/>
			<point x="294" y="104" type="qcurve"/>
			<point x="265" y="104"/>
			<point x="222" y="125"/>
			<point x="193" y="160"/>
			<point x="179" y="205"/>
			<point x="179" y="229" type="qcurve"/>
			<point x="179" y="253"/>
			<point x="193" y="299"/>
			<point x="221" y="335"/>
			<point x="265" y="357"/>
			<point x="295" y="357" type="qcurve"/>
			<point x="310" y="357"/>
			<point x="345" y="352"/>
			<point x="363" y="344" type="qcurve"/>
			<point x="342" y="290" type="line"/>
			<point x="331" y="295"/>
			<point x="310" y="298"/>
			<point x="300" y="298" type="qcurve"/>
			<point x="269" y="298"/>
			<point x="242" y="258"/>
			<point x="242" y="233" type="qcurve"/>
			<point x="242" y="201"/>
			<point x="274" y="164"/>
			<point x="305" y="164" type="qcurve"/>
			<point x="313" y="164"/>
			<point x="337" y="168"/>
			<point x="347" y="173" type="qcurve"/>
		</contour>
		<contour>
			<point x="71" y="231" type="qcurve"/>
			<point x="71" y="292"/>
			<point x="109" y="384"/>
			<point x="170" y="445"/>
			<point x="248" y="475"/>
			<point x="288" y="475" type="qcurve"/>
			<point x="328" y="475"/>
			<point x="406" y="445"/>
			<point x="467" y="384"/>
			<point x="504" y="293"/>
			<point x="504" y="233" type="qcurve"/>
			<point x="504" y="172"/>
			<point x="466" y="81"/>
			<point x="405" y="20"/>
			<point x="327" y="-11"/>
			<point x="287" y="-11" type="qcurve"/>
			<point x="246" y="-11"/>
			<point x="169" y="20"/>
			<point x="108" y="80"/>
			<point x="71" y="171"/>
		</contour>
	</outline>
	<guideline x="370"/>
	<guideline y="310"/>
</glyph>
<glyph name="ordfeminine" format="2">
  <advance width="500"/>
  <unicode hex="00AA"/>
  <outline>
    <contour>
      <point x="288" y="295" type="curve" smooth="yes"/>
      <point x="329" y="295"/>
      <point x="358" y="311"/>
      <point x="375" y="328" type="curve"/>
      <point x="378" y="316"/>
      <point x="384" y="303"/>
      <point x="388" y="296" type="curve"/>
      <point x="450" y="307" type="line"/>
      <point x="440" y="332"/>
      <point x="434" y="350"/>
      <point x="434" y="380" type="curve" smooth="yes"/>
      <point x="434" y="397"/>
      <point x="437" y="416"/>
      <point x="442" y="435" type="curve" smooth="yes"/>
      <point x="491" y="616" type="line"/>
      <point x="465" y="627"/>
      <point x="430" y="632"/>
      <point x="408" y="632" type="curve" smooth="yes"/>
      <point x="255" y="632"/>
      <point x="179" y="522"/>
      <point x="179" y="413" type="curve" smooth="yes"/>
      <point x="179" y="342"/>
      <point x="211" y="295"/>
    </contour>
    <contour>
      <point x="379" y="439" type="line"/>
      <point x="375" y="424"/>
      <point x="370" y="401"/>
      <point x="370" y="383" type="curve"/>
      <point x="352" y="364"/>
      <point x="329" y="349"/>
      <point x="303" y="349" type="curve" smooth="yes"/>
      <point x="255" y="349"/>
      <point x="244" y="383"/>
      <point x="244" y="419" type="curve" smooth="yes"/>
      <point x="244" y="502"/>
      <point x="305" y="578"/>
      <point x="396" y="578" type="curve" smooth="yes"/>
      <point x="405" y="578"/>
      <point x="412" y="576"/>
      <point x="414" y="575" type="curve"/>
    </contour>
  </outline>
</glyph>
<glyph name="registered" format="2">
	<unicode hex="00AE"/>
	<advance width="500"/>
	<outline>
		<contour>
			<point x="446" y="231" type="qcurve"/>
			<point x="446" y="279"/>
			<point x="419" y="350"/>
			<point x="374" y="397"/>
			<point x="317" y="421"/>
			<point x="288" y="421" type="qcurve"/>
			<point x="258" y="421"/>
			<point x="201" y="397"/>
			<point x="156" y="350"/>
			<point x="129" y="279"/>
			<point x="129" y="233" type="qcurve"/>
			<point x="129" y="185"/>
			<point x="156" y="114"/>
			<point x="201" y="67"/>
			<point x="258" y="43"/>
			<point x="288" y="43" type="qcurve"/>
			<point x="318" y="43"/>
			<point x="374" y="67"/>
			<point x="419" y="114"/>
			<point x="446" y="184"/>
		</contour>
		<contour>
			<point x="71" y="231" type="qcurve"/>
			<point x="71" y="292"/>
			<point x="109" y="384"/>
			<point x="170" y="445"/>
			<point x="248" y="475"/>
			<point x="288" y="475" type="qcurve"/>
			<point x="328" y="475"/>
			<point x="406" y="445"/>
			<point x="467" y="384"/>
			<point x="504" y="293"/>
			<point x="504" y="233" type="qcurve"/>
			<point x="504" y="172"/>
			<point x="466" y="81"/>
			<point x="405" y="20"/>
			<point x="327" y="-11"/>
			<point x="287" y="-11" type="qcurve"/>
			<point x="246" y="-11"/>
			<point x="169" y="20"/>
			<point x="108" y="80"/>
			<point x="71" y="171"/>
		</contour>
		<contour>
			<point x="257" y="187" type="line"/>
			<point x="257" y="110" type="line"/>
			<point x="204" y="110" type="line"/>
			<point x="204" y="348" type="line"/>
			<point x="217" y="352"/>
			<point x="252" y="357"/>
			<point x="271" y="357" type="qcurve"/>
			<point x="328" y="357"/>
			<point x="382" y="313"/>
			<point x="382" y="271" type="qcurve"/>
			<point x="382" y="222"/>
			<point x="343" y="200" type="qcurve"/>
			<point x="354" y="183"/>
			<point x="381" y="136"/>
			<point x="394" y="110" type="qcurve"/>
			<point x="337" y="110" type="line"/>
			<point x="324" y="134"/>
			<point x="303" y="171"/>
			<point x="294" y="187" type="qcurve"/>
		</contour>
		<contour>
			<point x="257" y="237" type="line"/>
			<point x="276" y="237" type="line"/>
			<point x="303" y="237"/>
			<point x="329" y="251"/>
			<point x="329" y="274" type="qcurve"/>
			<point x="329" y="294"/>
			<point x="297" y="307"/>
			<point x="280" y="307" type="qcurve"/>
			<point x="273" y="307"/>
			<point x="262" y="306"/>
			<point x="257" y="305" type="qcurve"/>
		</contour>
	</outline>
</glyph>
<glyph name="macron" format="2">
	<unicode hex="00AF"/>
	<advance width="500"/>
	<outline>
		<contour>
			<point x="250" y="635" type="line"/>
			<point x="500" y="635" type="line"/>
			<point x="485" y="571" type="line"/>
			<point x="235" y="571" type="line"/>
		</contour>
	</outline>
</glyph>
<glyph name="twosuperior" format="2">
	<unicode hex="00B2"/>
	<advance width="500"/>
	<outline>
		<contour>
			<point x="432" y="338" type="line"/>
			<point x="419" y="281" type="line"/>
			<point x="184" y="281" type="line"/>
			<point x="188" y="313"/>
			<point x="209" y="361"/>
			<point x="241" y="398"/>
			<point x="282" y="429"/>
			<point x="305" y="443" type="qcurve"/>
			<point x="328" y="457"/>
			<point x="363" y="480"/>
			<point x="386" y="502"/>
			<point x="398" y="526"/>
			<point x="398" y="541" type="qcurve"/>
			<point x="398" y="560"/>
			<point x="373" y="578"/>
			<point x="355" y="578" type="qcurve"/>
			<point x="317" y="578"/>
			<point x="273" y="552"/>
			<point x="262" y="542" type="qcurve"/>
			<point x="240" y="586" type="line"/>
			<point x="258" y="603"/>
			<point x="320" y="633"/>
			<point x="362" y="633" type="qcurve"/>
			<point x="413" y="633"/>
			<point x="462" y="586"/>
			<point x="462" y="546" type="qcurve"/>
			<point x="462" y="520"/>
			<point x="437" y="477"/>
			<point x="400" y="441"/>
			<point x="355" y="411"/>
			<point x="335" y="399" type="qcurve"/>
			<point x="316" y="386"/>
			<point x="271" y="358"/>
			<point x="263" y="338" type="qcurve"/>
		</contour>
	</outline>
	<guideline x="242"/>
	<guideline y="281"/>
</glyph>
<glyph name="threesuperior" format="2">
	<unicode hex="00B3"/>
	<advance width="500"/>
	<outline>
		<contour>
			<point x="289" y="329" type="qcurve"/>
			<point x="307" y="329"/>
			<point x="343" y="335"/>
			<point x="370" y="349"/>
			<point x="387" y="374"/>
			<point x="387" y="393" type="qcurve"/>
			<point x="387" y="418"/>
			<point x="340" y="439"/>
			<point x="302" y="439" type="qcurve"/>
			<point x="283" y="439" type="line"/>
			<point x="296" y="489" type="line"/>
			<point x="318" y="489" type="line"/>
			<point x="330" y="489"/>
			<point x="361" y="495"/>
			<point x="388" y="507"/>
			<point x="407" y="527"/>
			<point x="407" y="542" type="qcurve"/>
			<point x="407" y="563"/>
			<point x="383" y="579"/>
			<point x="357" y="579" type="qcurve"/>
			<point x="333" y="579"/>
			<point x="287" y="565"/>
			<point x="273" y="557" type="qcurve"/>
			<point x="261" y="604" type="line"/>
			<point x="268" y="609"/>
			<point x="295" y="619"/>
			<point x="326" y="628"/>
			<point x="358" y="633"/>
			<point x="372" y="633" type="qcurve"/>
			<point x="426" y="633"/>
			<point x="469" y="590"/>
			<point x="469" y="560" type="qcurve"/>
			<point x="469" y="525"/>
			<point x="432" y="482"/>
			<point x="400" y="466" type="qcurve"/>
			<point x="422" y="458"/>
			<point x="449" y="424"/>
			<point x="449" y="395" type="qcurve"/>
			<point x="449" y="335"/>
			<point x="360" y="274"/>
			<point x="288" y="274" type="qcurve"/>
			<point x="252" y="274"/>
			<point x="201" y="288"/>
			<point x="183" y="298" type="qcurve"/>
			<point x="207" y="348" type="line"/>
			<point x="223" y="340"/>
			<point x="266" y="329"/>
		</contour>
	</outline>
</glyph>
<glyph name="onesuperior" format="2">
	<unicode hex="00B9"/>
	<advance width="500"/>
	<outline>
		<contour>
			<point x="242" y="556" type="line"/>
			<point x="321" y="584"/>
			<point x="375" y="626" type="qcurve"/>
			<point x="419" y="626" type="line"/>
			<point x="349" y="338" type="line"/>
			<point x="430" y="338" type="line"/>
			<point x="416" y="281" type="line"/>
			<point x="183" y="281" type="line"/>
			<point x="196" y="338" type="line"/>
			<point x="286" y="338" type="line"/>
			<point x="336" y="539" type="line"/>
			<point x="313" y="526"/>
			<point x="268" y="511"/>
			<point x="250" y="505" type="qcurve"/>
		</contour>
	</outline>
</glyph>
<glyph name="ordmasculine" format="2">
	<unicode hex="00BA"/>
	<advance width="500"/>
	<outline>
		<contour>
			<point x="385" y="633" type="qcurve"/>
			<point x="439" y="633"/>
			<point x="500" y="573"/>
			<point x="500" y="519" type="qcurve"/>
			<point x="500" y="483"/>
			<point x="479" y="403"/>
			<point x="432" y="337"/>
			<point x="356" y="293"/>
			<point x="301" y="293" type="qcurve"/>
			<point x="247" y="293"/>
			<point x="186" y="353"/>
			<point x="186" y="407" type="qcurve"/>
			<point x="186" y="443"/>
			<point x="207" y="523"/>
			<point x="254" y="589"/>
			<point x="330" y="633"/>
		</contour>
		<contour>
			<point x="313" y="348" type="qcurve"/>
			<point x="341" y="348"/>
			<point x="386" y="379"/>
			<point x="417" y="428"/>
			<point x="433" y="486"/>
			<point x="433" y="513" type="qcurve"/>
			<point x="433" y="542"/>
			<point x="405" y="578"/>
			<point x="373" y="578" type="qcurve"/>
			<point x="344" y="578"/>
			<point x="300" y="547"/>
			<point x="269" y="498"/>
			<point x="253" y="440"/>
			<point x="253" y="413" type="qcurve"/>
			<point x="253" y="384"/>
			<point x="281" y="348"/>
		</contour>
	</outline>
</glyph>
<glyph name="onehalf" format="2">
  <advance width="500"/>
  <unicode hex="00BD"/>
  <outline>
    <contour>
      <point x="145" y="516" type="line"/>
      <point x="171" y="524"/>
      <point x="193" y="532"/>
      <point x="223" y="547" type="curve"/>
      <point x="181" y="376" type="line"/>
      <point x="240" y="376" type="line"/>
      <point x="301" y="626" type="line"/>
      <point x="261" y="626" type="line"/>
      <point x="221" y="596"/>
      <point x="188" y="580"/>
      <point x="138" y="561" type="curve"/>
    </contour>
    <contour>
      <point x="347" y="50" type="line"/>
      <point x="354" y="68"/>
      <point x="492" y="104"/>
      <point x="492" y="188" type="curve" smooth="yes"/>
      <point x="492" y="238"/>
      <point x="458" y="256"/>
      <point x="418" y="256" type="curve" smooth="yes"/>
      <point x="381" y="256"/>
      <point x="340" y="240"/>
      <point x="316" y="218" type="curve"/>
      <point x="339" y="179" type="line"/>
      <point x="356" y="194"/>
      <point x="383" y="204"/>
      <point x="405" y="204" type="curve" smooth="yes"/>
      <point x="423" y="204"/>
      <point x="437" y="197"/>
      <point x="437" y="179" type="curve" smooth="yes"/>
      <point x="437" y="157"/>
      <point x="420" y="144"/>
      <point x="380" y="122" type="curve" smooth="yes"/>
      <point x="355" y="108" type="line" smooth="yes"/>
      <point x="298" y="77"/>
      <point x="285" y="58"/>
      <point x="274" y="0" type="curve"/>
      <point x="463" y="0" type="line"/>
      <point x="474" y="50" type="line"/>
    </contour>
    <contour>
      <point x="579" y="619" type="line"/>
      <point x="501" y="619" type="line"/>
      <point x="19" y="0" type="line"/>
      <point x="95" y="0" type="line"/>
    </contour>
  </outline>
</glyph>
<glyph name="threequarters" format="2">
	<unicode hex="00BE"/>
	<advance width="500"/>
	<outline>
		<contour>
			<point x="105" y="430" type="line"/>
			<point x="115" y="425"/>
			<point x="147" y="417"/>
			<point x="167" y="417" type="qcurve"/>
			<point x="193" y="417"/>
			<point x="230" y="434"/>
			<point x="230" y="455" type="qcurve"/>
			<point x="230" y="471"/>
			<point x="194" y="480"/>
			<point x="161" y="480" type="qcurve"/>
			<point x="149" y="480" type="line"/>
			<point x="161" y="530" type="line"/>
			<point x="196" y="530" type="line"/>
			<point x="219" y="530"/>
			<point x="245" y="548"/>
			<point x="245" y="562" type="qcurve"/>
			<point x="245" y="583"/>
			<point x="210" y="583" type="qcurve"/>
			<point x="196" y="583"/>
			<point x="159" y="573"/>
			<point x="145" y="568" type="qcurve"/>
			<point x="137" y="611" type="line"/>
			<point x="152" y="619"/>
			<point x="203" y="633"/>
			<point x="229" y="633" type="qcurve"/>
			<point x="258" y="633"/>
			<point x="303" y="608"/>
			<point x="303" y="575" type="qcurve"/>
			<point x="303" y="558"/>
			<point x="280" y="522"/>
			<point x="257" y="510" type="qcurve"/>
			<point x="287" y="491"/>
			<point x="287" y="458" type="qcurve"/>
			<point x="287" y="442"/>
			<point x="271" y="409"/>
			<point x="239" y="383"/>
			<point x="191" y="367"/>
			<point x="159" y="367" type="qcurve"/>
			<point x="114" y="367"/>
			<point x="80" y="384" type="qcurve"/>
		</contour>
		<contour>
			<point x="496" y="250" type="line"/>
			<point x="459" y="98" type="line"/>
			<point x="495" y="98" type="line"/>
			<point x="483" y="48" type="line"/>
			<point x="447" y="48" type="line"/>
			<point x="436" y="0" type="line"/>
			<point x="377" y="0" type="line"/>
			<point x="388" y="48" type="line"/>
			<point x="259" y="48" type="line"/>
			<point x="269" y="89" type="line"/>
			<point x="307" y="135"/>
			<point x="388" y="214"/>
			<point x="438" y="250" type="qcurve"/>
		</contour>
		<contour>
			<point x="421" y="185" type="line"/>
			<point x="406" y="173"/>
			<point x="383" y="152"/>
			<point x="364" y="132"/>
			<point x="345" y="111"/>
			<point x="335" y="98" type="qcurve"/>
			<point x="400" y="98" type="line"/>
		</contour>
		<contour>
			<point x="104" y="0" type="line"/>
			<point x="28" y="0" type="line"/>
			<point x="510" y="619" type="line"/>
			<point x="588" y="619" type="line"/>
		</contour>
	</outline>
	<guideline x="278"/>
	<guideline x="294"/>
</glyph>
<glyph name="Aring" format="2">
	<unicode hex="00C5"/>
	<advance width="500"/>
	<outline>
		<contour>
			<point x="383" y="0" type="line"/>
			<point x="384" y="162" type="line"/>
			<point x="146" y="162" type="line"/>
			<point x="70" y="0" type="line"/>
			<point x="-13" y="0" type="line"/>
			<point x="17" y="61"/>
			<point x="93" y="208"/>
			<point x="178" y="365"/>
			<point x="267" y="522"/>
			<point x="311" y="593" type="qcurve"/>
			<point x="300" y="605"/>
			<point x="286" y="638"/>
			<point x="286" y="658" type="qcurve"/>
			<point x="286" y="700"/>
			<point x="341" y="749"/>
			<point x="378" y="749" type="qcurve"/>
			<point x="415" y="749"/>
			<point x="470" y="700"/>
			<point x="470" y="658" type="qcurve"/>
			<point x="470" y="635"/>
			<point x="449" y="592"/>
			<point x="430" y="580" type="qcurve"/>
			<point x="438" y="511"/>
			<point x="451" y="356"/>
			<point x="461" y="202"/>
			<point x="467" y="58"/>
			<point x="469" y="0" type="qcurve"/>
		</contour>
		<contour>
			<point x="357" y="547" type="qcurve"/>
			<point x="319" y="484"/>
			<point x="227" y="318"/>
			<point x="181" y="230" type="qcurve"/>
			<point x="381" y="230" type="line"/>
			<point x="379" y="320"/>
			<point x="365" y="487"/>
		</contour>
		<contour>
			<point x="425" y="658" type="qcurve"/>
			<point x="425" y="681"/>
			<point x="398" y="707"/>
			<point x="378" y="707" type="qcurve"/>
			<point x="358" y="707"/>
			<point x="331" y="681"/>
			<point x="331" y="658" type="qcurve"/>
			<point x="331" y="635"/>
			<point x="358" y="609"/>
			<point x="378" y="609" type="qcurve"/>
			<point x="398" y="609"/>
			<point x="425" y="635"/>
		</contour>
	</outline>
</glyph>
<glyph name="Ccedilla" format="2">
	<unicode hex="00C7"/>
	<advance width="500"/>
	<outline>
		<contour>
			<point x="280" y="-34" type="line"/>
			<point x="298" y="-44"/>
			<point x="316" y="-67"/>
			<point x="316" y="-88" type="qcurve"/>
			<point x="316" y="-127"/>
			<point x="260" y="-169"/>
			<point x="212" y="-169" type="qcurve"/>
			<point x="186" y="-169"/>
			<point x="151" y="-161"/>
			<point x="140" y="-155" type="qcurve"/>
			<point x="160" y="-106" type="line"/>
			<point x="168" y="-110"/>
			<point x="191" y="-116"/>
			<point x="208" y="-116" type="qcurve"/>
			<point x="223" y="-116"/>
			<point x="242" y="-107"/>
			<point x="242" y="-94" type="qcurve"/>
			<point x="242" y="-79"/>
			<point x="219" y="-65"/>
			<point x="206" y="-62" type="qcurve"/>
			<point x="212" y="-51"/>
			<point x="231" y="-23"/>
			<point x="240" y="-9" type="qcurve"/>
			<point x="170" y="3"/>
			<point x="89" y="114"/>
			<point x="89" y="202" type="qcurve"/>
			<point x="89" y="281"/>
			<point x="135" y="436"/>
			<point x="222" y="558"/>
			<point x="346" y="633"/>
			<point x="424" y="633" type="qcurve"/>
			<point x="484" y="633"/>
			<point x="557" y="601"/>
			<point x="574" y="587" type="qcurve"/>
			<point x="535" y="521" type="line"/>
			<point x="518" y="536"/>
			<point x="453" y="560"/>
			<point x="418" y="560" type="qcurve"/>
			<point x="360" y="560"/>
			<point x="269" y="500"/>
			<point x="206" y="402"/>
			<point x="172" y="279"/>
			<point x="172" y="215" type="qcurve"/>
			<point x="172" y="143"/>
			<point x="236" y="60"/>
			<point x="297" y="60" type="qcurve"/>
			<point x="345" y="60"/>
			<point x="419" y="85"/>
			<point x="437" y="96" type="qcurve"/>
			<point x="446" y="26" type="line"/>
			<point x="440" y="21"/>
			<point x="413" y="9"/>
			<point x="373" y="-3"/>
			<point x="323" y="-12"/>
			<point x="295" y="-13" type="qcurve"/>
		</contour>
	</outline>
</glyph>
<glyph name="Oslash" format="2">
	<unicode hex="00D8"/>
	<advance width="500"/>
	<outline>
		<contour>
			<point x="370" y="633" type="qcurve"/>
			<point x="432" y="633"/>
			<point x="472" y="599" type="qcurve"/>
			<point x="510" y="651" type="line"/>
			<point x="561" y="614" type="line"/>
			<point x="512" y="547" type="line"/>
			<point x="532" y="502"/>
			<point x="532" y="436" type="qcurve"/>
			<point x="532" y="399"/>
			<point x="518" y="304"/>
			<point x="488" y="204"/>
			<point x="441" y="108"/>
			<point x="375" y="33"/>
			<point x="289" y="-13"/>
			<point x="235" y="-13" type="qcurve"/>
			<point x="171" y="-13"/>
			<point x="130" y="21" type="qcurve"/>
			<point x="91" y="-33" type="line"/>
			<point x="41" y="3" type="line"/>
			<point x="92" y="73" type="line"/>
			<point x="82" y="95"/>
			<point x="71" y="150"/>
			<point x="71" y="184" type="qcurve"/>
			<point x="71" y="221"/>
			<point x="85" y="316"/>
			<point x="115" y="416"/>
			<point x="163" y="512"/>
			<point x="229" y="587"/>
			<point x="316" y="633"/>
		</contour>
		<contour>
			<point x="453" y="430" type="qcurve"/>
			<point x="453" y="438"/>
			<point x="452" y="455"/>
			<point x="451" y="463" type="qcurve"/>
			<point x="177" y="86" type="line"/>
			<point x="201" y="58"/>
			<point x="245" y="58" type="qcurve"/>
			<point x="294" y="58"/>
			<point x="371" y="131"/>
			<point x="425" y="242"/>
			<point x="453" y="373"/>
		</contour>
		<contour>
			<point x="360" y="562" type="qcurve"/>
			<point x="311" y="562"/>
			<point x="234" y="489"/>
			<point x="180" y="378"/>
			<point x="152" y="247"/>
			<point x="152" y="190" type="qcurve"/>
			<point x="152" y="182"/>
			<point x="152" y="165"/>
			<point x="153" y="157" type="qcurve"/>
			<point x="426" y="535" type="line"/>
			<point x="402" y="562"/>
		</contour>
	</outline>
	<guideline x="114"/>
	<guideline x="308"/>
	<guideline y="310"/>
</glyph>
<glyph name="ae" format="2">
	<unicode hex="00E6"/>
	<advance width="500"/>
	<outline>
		<contour>
			<point x="266" y="79" type="qcurve"/>
			<point x="255" y="58"/>
			<point x="224" y="24"/>
			<point x="188" y="1"/>
			<point x="150" y="-11"/>
			<point x="132" y="-11" type="qcurve"/>
			<point x="97" y="-11"/>
			<point x="46" y="39"/>
			<point x="46" y="93" type="qcurve"/>
			<point x="46" y="124"/>
			<point x="72" y="189"/>
			<point x="125" y="245"/>
			<point x="207" y="282"/>
			<point x="263" y="284" type="qcurve"/>
			<point x="264" y="291"/>
			<point x="264" y="303"/>
			<point x="264" y="311" type="qcurve"/>
			<point x="264" y="358"/>
			<point x="228" y="403"/>
			<point x="197" y="403" type="qcurve"/>
			<point x="166" y="403"/>
			<point x="125" y="380" type="qcurve"/>
			<point x="130" y="449" type="line"/>
			<point x="152" y="463"/>
			<point x="196" y="475"/>
			<point x="217" y="475" type="qcurve"/>
			<point x="235" y="475"/>
			<point x="271" y="465"/>
			<point x="303" y="444"/>
			<point x="326" y="410"/>
			<point x="330" y="385" type="qcurve"/>
			<point x="351" y="428"/>
			<point x="424" y="475"/>
			<point x="459" y="475" type="qcurve"/>
			<point x="494" y="475"/>
			<point x="545" y="425"/>
			<point x="545" y="371" type="qcurve"/>
			<point x="545" y="340"/>
			<point x="520" y="275"/>
			<point x="466" y="220"/>
			<point x="384" y="183"/>
			<point x="327" y="180" type="qcurve"/>
			<point x="327" y="154" type="line"/>
			<point x="327" y="106"/>
			<point x="363" y="62"/>
			<point x="394" y="62" type="qcurve"/>
			<point x="425" y="62"/>
			<point x="466" y="85" type="qcurve"/>
			<point x="461" y="15" type="line"/>
			<point x="439" y="1"/>
			<point x="395" y="-11"/>
			<point x="374" y="-11" type="qcurve"/>
			<point x="356" y="-11"/>
			<point x="322" y="-1"/>
			<point x="292" y="20"/>
			<point x="270" y="54"/>
		</contour>
		<contour>
			<point x="156" y="59" type="qcurve"/>
			<point x="168" y="59"/>
			<point x="197" y="79"/>
			<point x="225" y="118"/>
			<point x="249" y="176"/>
			<point x="256" y="215" type="qcurve"/>
			<point x="219" y="213"/>
			<point x="169" y="193"/>
			<point x="138" y="163"/>
			<point x="125" y="127"/>
			<point x="125" y="111" type="qcurve"/>
			<point x="125" y="85"/>
			<point x="142" y="59"/>
		</contour>
		<contour>
			<point x="435" y="405" type="qcurve"/>
			<point x="423" y="405"/>
			<point x="394" y="385"/>
			<point x="366" y="346"/>
			<point x="342" y="288"/>
			<point x="335" y="249" type="qcurve"/>
			<point x="372" y="250"/>
			<point x="422" y="271"/>
			<point x="453" y="302"/>
			<point x="466" y="337"/>
			<point x="466" y="354" type="qcurve"/>
			<point x="466" y="380"/>
			<point x="449" y="405"/>
		</contour>
	</outline>
	<guideline y="59"/>
	<guideline y="210"/>
	<guideline y="347"/>
	<guideline y="360"/>
</glyph>
<glyph name="eth" format="2">
	<unicode hex="00F0"/>
	<advance width="500"/>
	<outline>
		<contour>
			<point x="499" y="381" type="qcurve"/>
			<point x="499" y="354"/>
			<point x="492" y="275"/>
			<point x="471" y="188"/>
			<point x="434" y="101"/>
			<point x="375" y="31"/>
			<point x="291" y="-12"/>
			<point x="233" y="-12" type="qcurve"/>
			<point x="200" y="-12"/>
			<point x="144" y="14"/>
			<point x="103" y="60"/>
			<point x="80" y="122"/>
			<point x="80" y="157" type="qcurve"/>
			<point x="80" y="216"/>
			<point x="112" y="319"/>
			<point x="174" y="395"/>
			<point x="266" y="438"/>
			<point x="326" y="438" type="qcurve"/>
			<point x="355" y="438"/>
			<point x="401" y="421"/>
			<point x="416" y="411" type="qcurve"/>
			<point x="414" y="440"/>
			<point x="402" y="499"/>
			<point x="389" y="529" type="qcurve"/>
			<point x="273" y="492" type="line"/>
			<point x="266" y="548" type="line"/>
			<point x="364" y="580" type="line"/>
			<point x="350" y="603"/>
			<point x="319" y="634"/>
			<point x="301" y="651" type="qcurve"/>
			<point x="363" y="693" type="line"/>
			<point x="380" y="680"/>
			<point x="421" y="636"/>
			<point x="441" y="604" type="qcurve"/>
			<point x="558" y="641" type="line"/>
			<point x="565" y="585" type="line"/>
			<point x="467" y="554" type="line"/>
			<point x="481" y="519"/>
			<point x="499" y="433"/>
		</contour>
		<contour>
			<point x="245" y="58" type="qcurve"/>
			<point x="284" y="58"/>
			<point x="344" y="106"/>
			<point x="386" y="183"/>
			<point x="410" y="280"/>
			<point x="414" y="330" type="qcurve"/>
			<point x="393" y="350"/>
			<point x="344" y="368"/>
			<point x="320" y="368" type="qcurve"/>
			<point x="244" y="368"/>
			<point x="163" y="255"/>
			<point x="163" y="158" type="qcurve"/>
			<point x="163" y="114"/>
			<point x="206" y="58"/>
		</contour>
	</outline>
</glyph>
<glyph name="divide" format="2">
	<unicode hex="00F7"/>
	<advance width="500"/>
	<outline>
		<contour>
			<point x="328" y="108" type="qcurve"/>
			<point x="328" y="96"/>
			<point x="318" y="70"/>
			<point x="299" y="49"/>
			<point x="273" y="36"/>
			<point x="258" y="36" type="qcurve"/>
			<point x="235" y="36"/>
			<point x="208" y="65"/>
			<point x="208" y="85" type="qcurve"/>
			<point x="208" y="113"/>
			<point x="249" y="158"/>
			<point x="280" y="158" type="qcurve"/>
			<point x="303" y="158"/>
			<point x="328" y="129"/>
		</contour>
		<contour>
			<point x="386" y="440" type="qcurve"/>
			<point x="386" y="427"/>
			<point x="376" y="401"/>
			<point x="358" y="380"/>
			<point x="332" y="367"/>
			<point x="316" y="367" type="qcurve"/>
			<point x="292" y="367"/>
			<point x="266" y="396"/>
			<point x="266" y="417" type="qcurve"/>
			<point x="266" y="446"/>
			<point x="308" y="489"/>
			<point x="338" y="489" type="qcurve"/>
			<point x="361" y="489"/>
			<point x="386" y="461"/>
		</contour>
		<contour>
			<point x="505" y="298" type="line"/>
			<point x="488" y="228" type="line"/>
			<point x="88" y="228" type="line"/>
			<point x="104" y="298" type="line"/>
		</contour>
	</outline>
</glyph>
<glyph name="oslash" format="2">
	<unicode hex="00F8"/>
	<advance width="500"/>
	<outline>
		<contour>
			<point x="556" y="457" type="line"/>
			<point x="490" y="390" type="line"/>
			<point x="497" y="374"/>
			<point x="505" y="336"/>
			<point x="505" y="313" type="qcurve"/>
			<point x="505" y="261"/>
			<point x="476" y="147"/>
			<point x="411" y="51"/>
			<point x="309" y="-11"/>
			<point x="237" y="-11" type="qcurve"/>
			<point x="168" y="-11"/>
			<point x="128" y="26" type="qcurve"/>
			<point x="71" y="-32" type="line"/>
			<point x="29" y="7" type="line"/>
			<point x="95" y="73" type="line"/>
			<point x="80" y="107"/>
			<point x="80" y="151" type="qcurve"/>
			<point x="80" y="203"/>
			<point x="109" y="317"/>
			<point x="174" y="413"/>
			<point x="276" y="475"/>
			<point x="348" y="475" type="qcurve"/>
			<point x="416" y="475"/>
			<point x="456" y="438" type="qcurve"/>
			<point x="513" y="496" type="line"/>
		</contour>
		<contour>
			<point x="159" y="158" type="qcurve"/>
			<point x="159" y="153"/>
			<point x="159" y="144"/>
			<point x="160" y="139" type="qcurve"/>
			<point x="400" y="381" type="line"/>
			<point x="379" y="402"/>
			<point x="334" y="402" type="qcurve"/>
			<point x="294" y="402"/>
			<point x="229" y="357"/>
			<point x="184" y="286"/>
			<point x="159" y="199"/>
		</contour>
		<contour>
			<point x="251" y="63" type="qcurve"/>
			<point x="291" y="63"/>
			<point x="356" y="108"/>
			<point x="401" y="178"/>
			<point x="426" y="265"/>
			<point x="426" y="306" type="qcurve"/>
			<point x="426" y="311"/>
			<point x="425" y="320"/>
			<point x="425" y="325" type="qcurve"/>
			<point x="184" y="82" type="line"/>
			<point x="208" y="63"/>
		</contour>
	</outline>
	<guideline x="246"/>
	<guideline y="232"/>
</glyph>
<glyph name="Aogonek" format="2">
	<unicode hex="0104"/>
	<advance width="500"/>
	<outline>
		<contour>
			<point x="391" y="-167" type="qcurve"/>
			<point x="341" y="-167"/>
			<point x="302" y="-136"/>
			<point x="302" y="-111" type="qcurve"/>
			<point x="302" y="-87"/>
			<point x="334" y="-42"/>
			<point x="356" y="-24" type="qcurve"/>
			<point x="365" y="-16"/>
			<point x="380" y="-5"/>
			<point x="387" y="0" type="qcurve"/>
			<point x="383" y="0" type="line"/>
			<point x="384" y="162" type="line"/>
			<point x="146" y="162" type="line"/>
			<point x="70" y="0" type="line"/>
			<point x="-13" y="0" type="line"/>
			<point x="20" y="66"/>
			<point x="100" y="220"/>
			<point x="187" y="382"/>
			<point x="280" y="545"/>
			<point x="327" y="619" type="qcurve"/>
			<point x="425" y="619" type="line"/>
			<point x="436" y="545"/>
			<point x="451" y="382"/>
			<point x="461" y="220"/>
			<point x="467" y="66"/>
			<point x="469" y="0" type="qcurve"/>
			<point x="458" y="-7"/>
			<point x="435" y="-24"/>
			<point x="422" y="-35" type="qcurve"/>
			<point x="411" y="-43"/>
			<point x="381" y="-72"/>
			<point x="381" y="-90" type="qcurve"/>
			<point x="381" y="-99"/>
			<point x="396" y="-110"/>
			<point x="414" y="-110" type="qcurve"/>
			<point x="422" y="-110"/>
			<point x="441" y="-106"/>
			<point x="449" y="-104" type="qcurve"/>
			<point x="442" y="-157" type="line"/>
			<point x="420" y="-167"/>
		</contour>
		<contour>
			<point x="357" y="547" type="qcurve"/>
			<point x="319" y="484"/>
			<point x="227" y="318"/>
			<point x="181" y="230" type="qcurve"/>
			<point x="381" y="230" type="line"/>
			<point x="379" y="320"/>
			<point x="365" y="487"/>
		</contour>
	</outline>
</glyph>
<glyph name="aogonek" format="2">
	<unicode hex="0105"/>
	<advance width="500"/>
	<outline>
		<contour>
			<point x="363" y="-167" type="qcurve"/>
			<point x="313" y="-167"/>
			<point x="274" y="-136"/>
			<point x="274" y="-111" type="qcurve"/>
			<point x="274" y="-87"/>
			<point x="306" y="-42"/>
			<point x="328" y="-24" type="qcurve"/>
			<point x="341" y="-13"/>
			<point x="363" y="1"/>
			<point x="371" y="6" type="qcurve"/>
			<point x="368" y="14"/>
			<point x="363" y="32"/>
			<point x="361" y="42" type="qcurve"/>
			<point x="341" y="24"/>
			<point x="270" y="-11"/>
			<point x="222" y="-11" type="qcurve"/>
			<point x="144" y="-11"/>
			<point x="71" y="83"/>
			<point x="71" y="155" type="qcurve"/>
			<point x="71" y="215"/>
			<point x="111" y="329"/>
			<point x="192" y="419"/>
			<point x="314" y="474"/>
			<point x="395" y="474" type="qcurve"/>
			<point x="407" y="474"/>
			<point x="438" y="472"/>
			<point x="470" y="466"/>
			<point x="501" y="457"/>
			<point x="513" y="451" type="qcurve"/>
			<point x="445" y="171" type="line"/>
			<point x="440" y="150"/>
			<point x="433" y="113"/>
			<point x="433" y="92" type="qcurve"/>
			<point x="433" y="71"/>
			<point x="441" y="30"/>
			<point x="449" y="5" type="qcurve"/>
			<point x="438" y="-3"/>
			<point x="410" y="-21"/>
			<point x="394" y="-35" type="qcurve"/>
			<point x="383" y="-43"/>
			<point x="353" y="-72"/>
			<point x="353" y="-90" type="qcurve"/>
			<point x="353" y="-99"/>
			<point x="368" y="-110"/>
			<point x="386" y="-110" type="qcurve"/>
			<point x="394" y="-110"/>
			<point x="413" y="-106"/>
			<point x="421" y="-104" type="qcurve"/>
			<point x="414" y="-157" type="line"/>
			<point x="392" y="-167"/>
		</contour>
		<contour>
			<point x="239" y="57" type="qcurve"/>
			<point x="277" y="57"/>
			<point x="336" y="89"/>
			<point x="356" y="111" type="qcurve"/>
			<point x="357" y="126"/>
			<point x="362" y="164"/>
			<point x="366" y="181" type="qcurve"/>
			<point x="421" y="400" type="line"/>
			<point x="416" y="402"/>
			<point x="388" y="405"/>
			<point x="380" y="405" type="qcurve"/>
			<point x="329" y="405"/>
			<point x="246" y="365"/>
			<point x="186" y="298"/>
			<point x="154" y="211"/>
			<point x="154" y="164" type="qcurve"/>
			<point x="154" y="141"/>
			<point x="162" y="102"/>
			<point x="181" y="74"/>
			<point x="214" y="57"/>
		</contour>
	</outline>
</glyph>
<glyph name="dcaron" format="2">
	<unicode hex="010F"/>
	<advance width="500"/>
	<outline>
		<contour>
			<point x="371" y="92" type="qcurve"/>
			<point x="371" y="71"/>
			<point x="378" y="30"/>
			<point x="387" y="5" type="qcurve"/>
			<point x="313" y="-5" type="line"/>
			<point x="304" y="13"/>
			<point x="298" y="42" type="qcurve"/>
			<point x="280" y="24"/>
			<point x="222" y="-11"/>
			<point x="175" y="-11" type="qcurve"/>
			<point x="142" y="-11"/>
			<point x="95" y="15"/>
			<point x="63" y="58"/>
			<point x="48" y="113"/>
			<point x="48" y="142" type="qcurve"/>
			<point x="48" y="203"/>
			<point x="84" y="323"/>
			<point x="156" y="416"/>
			<point x="265" y="474"/>
			<point x="338" y="474" type="qcurve"/>
			<point x="346" y="474"/>
			<point x="365" y="473"/>
			<point x="373" y="471" type="qcurve"/>
			<point x="423" y="679" type="line"/>
			<point x="508" y="693" type="line"/>
			<point x="382" y="171" type="line"/>
			<point x="377" y="150"/>
			<point x="371" y="113"/>
		</contour>
		<contour>
			<point x="191" y="57" type="qcurve"/>
			<point x="226" y="57"/>
			<point x="277" y="89"/>
			<point x="294" y="111" type="qcurve"/>
			<point x="295" y="126"/>
			<point x="299" y="164"/>
			<point x="304" y="181" type="qcurve"/>
			<point x="358" y="400" type="line"/>
			<point x="355" y="402"/>
			<point x="334" y="405"/>
			<point x="328" y="405" type="qcurve"/>
			<point x="283" y="405"/>
			<point x="209" y="363"/>
			<point x="158" y="293"/>
			<point x="130" y="202"/>
			<point x="130" y="153" type="qcurve"/>
			<point x="130" y="137"/>
			<point x="136" y="103"/>
			<point x="150" y="75"/>
			<point x="174" y="57"/>
		</contour>
		<contour>
			<point x="646" y="693" type="line"/>
			<point x="573" y="495" type="line"/>
			<point x="519" y="495" type="line"/>
			<point x="566" y="693" type="line"/>
		</contour>
	</outline>
</glyph>
<glyph name="Eogonek" format="2">
	<unicode hex="0118"/>
	<advance width="500"/>
	<outline>
		<contour>
			<point x="356" y="-167" type="qcurve"/>
			<point x="306" y="-167"/>
			<point x="267" y="-136"/>
			<point x="267" y="-111" type="qcurve"/>
			<point x="267" y="-87"/>
			<point x="299" y="-42"/>
			<point x="321" y="-24" type="qcurve"/>
			<point x="330" y="-16"/>
			<point x="345" y="-5"/>
			<point x="352" y="0" type="qcurve"/>
			<point x="71" y="0" type="line"/>
			<point x="221" y="619" type="line"/>
			<point x="567" y="619" type="line"/>
			<point x="550" y="549" type="line"/>
			<point x="286" y="549" type="line"/>
			<point x="240" y="359" type="line"/>
			<point x="472" y="359" type="line"/>
			<point x="455" y="289" type="line"/>
			<point x="223" y="289" type="line"/>
			<point x="171" y="70" type="line"/>
			<point x="457" y="70" type="line"/>
			<point x="440" y="0" type="line"/>
			<point x="428" y="-6"/>
			<point x="401" y="-23"/>
			<point x="387" y="-34" type="qcurve"/>
			<point x="376" y="-42"/>
			<point x="346" y="-72"/>
			<point x="346" y="-90" type="qcurve"/>
			<point x="346" y="-99"/>
			<point x="361" y="-110"/>
			<point x="379" y="-110" type="qcurve"/>
			<point x="387" y="-110"/>
			<point x="406" y="-106"/>
			<point x="414" y="-104" type="qcurve"/>
			<point x="407" y="-157" type="line"/>
			<point x="385" y="-167"/>
		</contour>
	</outline>
</glyph>
<glyph name="IJ" format="2">
	<unicode hex="0132"/>
	<advance width="500"/>
	<outline>
		<contour>
			<point x="102" y="0" type="line"/>
			<point x="21" y="0" type="line"/>
			<point x="168" y="619" type="line"/>
			<point x="250" y="619" type="line"/>
		</contour>
		<contour>
			<point x="597" y="619" type="line"/>
			<point x="489" y="171" type="line"/>
			<point x="466" y="73"/>
			<point x="371" y="-13"/>
			<point x="284" y="-13" type="qcurve"/>
			<point x="249" y="-13"/>
			<point x="185" y="12"/>
			<point x="163" y="37" type="qcurve"/>
			<point x="213" y="104" type="line"/>
			<point x="226" y="85"/>
			<point x="266" y="58"/>
			<point x="300" y="58" type="qcurve"/>
			<point x="339" y="58"/>
			<point x="393" y="112"/>
			<point x="407" y="172" type="qcurve"/>
			<point x="514" y="619" type="line"/>
		</contour>
	</outline>
</glyph>
<glyph name="lslash" format="2">
	<unicode hex="0142"/>
	<advance width="500"/>
	<outline>
		<contour>
			<point x="238" y="305" type="line"/>
			<point x="174" y="275" type="line"/>
			<point x="160" y="337" type="line"/>
			<point x="256" y="382" type="line"/>
			<point x="313" y="618" type="line"/>
			<point x="179" y="618" type="line"/>
			<point x="196" y="688" type="line"/>
			<point x="412" y="688" type="line"/>
			<point x="346" y="418" type="line"/>
			<point x="415" y="450" type="line"/>
			<point x="430" y="388" type="line"/>
			<point x="328" y="340" type="line"/>
			<point x="292" y="189" type="line"/>
			<point x="287" y="169"/>
			<point x="281" y="132"/>
			<point x="281" y="116" type="qcurve"/>
			<point x="281" y="87"/>
			<point x="309" y="59"/>
			<point x="347" y="59" type="qcurve"/>
			<point x="373" y="59"/>
			<point x="423" y="77"/>
			<point x="437" y="85" type="qcurve"/>
			<point x="443" y="15" type="line"/>
			<point x="429" y="7"/>
			<point x="366" y="-11"/>
			<point x="324" y="-11" type="qcurve"/>
			<point x="258" y="-11"/>
			<point x="199" y="46"/>
			<point x="199" y="103" type="qcurve"/>
			<point x="199" y="144"/>
			<point x="212" y="196" type="qcurve"/>
		</contour>
	</outline>
</glyph>
<glyph name="uni0162" format="2">
	<unicode hex="0162"/>
	<advance width="500"/>
	<outline>
		<contour>
			<point x="228" y="-34" type="line"/>
			<point x="246" y="-44"/>
			<point x="264" y="-67"/>
			<point x="264" y="-88" type="qcurve"/>
			<point x="264" y="-127"/>
			<point x="208" y="-169"/>
			<point x="160" y="-169" type="qcurve"/>
			<point x="134" y="-169"/>
			<point x="99" y="-161"/>
			<point x="88" y="-155" type="qcurve"/>
			<point x="108" y="-106" type="line"/>
			<point x="116" y="-110"/>
			<point x="139" y="-116"/>
			<point x="156" y="-116" type="qcurve"/>
			<point x="171" y="-116"/>
			<point x="190" y="-107"/>
			<point x="190" y="-94" type="qcurve"/>
			<point x="190" y="-83"/>
			<point x="175" y="-68"/>
			<point x="154" y="-62" type="qcurve"/>
			<point x="162" y="-49"/>
			<point x="184" y="-14"/>
			<point x="195" y="0" type="qcurve"/>
			<point x="188" y="0" type="line"/>
			<point x="321" y="549" type="line"/>
			<point x="152" y="549" type="line"/>
			<point x="169" y="619" type="line"/>
			<point x="589" y="619" type="line"/>
			<point x="572" y="549" type="line"/>
			<point x="403" y="549" type="line"/>
			<point x="271" y="0" type="line"/>
			<point x="253" y="0" type="line"/>
		</contour>
	</outline>
</glyph>
<glyph name="Uogonek" format="2">
	<unicode hex="0172"/>
	<advance width="500"/>
	<outline>
		<contour>
			<point x="237" y="-13" type="line"/>
			<point x="196" y="-13"/>
			<point x="138" y="15"/>
			<point x="99" y="62"/>
			<point x="81" y="124"/>
			<point x="81" y="158" type="qcurve"/>
			<point x="81" y="188"/>
			<point x="89" y="222" type="qcurve"/>
			<point x="184" y="619" type="line"/>
			<point x="266" y="619" type="line"/>
			<point x="171" y="223" type="line"/>
			<point x="163" y="189"/>
			<point x="163" y="160" type="qcurve"/>
			<point x="163" y="139"/>
			<point x="172" y="102"/>
			<point x="192" y="74"/>
			<point x="225" y="58"/>
			<point x="249" y="58" type="qcurve"/>
			<point x="276" y="58"/>
			<point x="320" y="71"/>
			<point x="356" y="105"/>
			<point x="384" y="165"/>
			<point x="396" y="212" type="qcurve"/>
			<point x="494" y="619" type="line"/>
			<point x="576" y="619" type="line"/>
			<point x="476" y="202" type="line"/>
			<point x="462" y="144"/>
			<point x="422" y="57"/>
			<point x="383" y="29" type="qcurve"/>
			<point x="360" y="12"/>
			<point x="311" y="-24"/>
			<point x="298" y="-35" type="qcurve"/>
			<point x="293" y="-39"/>
			<point x="278" y="-51"/>
			<point x="265" y="-65"/>
			<point x="256" y="-81"/>
			<point x="256" y="-90" type="qcurve"/>
			<point x="256" y="-99"/>
			<point x="271" y="-110"/>
			<point x="289" y="-110" type="qcurve"/>
			<point x="297" y="-110"/>
			<point x="318" y="-106"/>
			<point x="326" y="-104" type="qcurve"/>
			<point x="318" y="-157" type="line"/>
			<point x="296" y="-167"/>
			<point x="267" y="-167" type="qcurve"/>
			<point x="217" y="-167"/>
			<point x="178" y="-136"/>
			<point x="178" y="-111" type="qcurve"/>
			<point x="178" y="-96"/>
			<point x="191" y="-66"/>
			<point x="212" y="-41"/>
			<point x="236" y="-20"/>
			<point x="248" y="-12" type="qcurve"/>
		</contour>
	</outline>
</glyph>
<glyph name="uni0183" format="2">
	<unicode hex="0183"/>
	<advance width="500"/>
	<outline>
		<contour>
			<point x="247" y="445" type="line"/>
			<point x="268" y="458"/>
			<point x="322" y="475"/>
			<point x="352" y="475" type="qcurve"/>
			<point x="391" y="475"/>
			<point x="448" y="450"/>
			<point x="486" y="406"/>
			<point x="505" y="345"/>
			<point x="505" y="310" type="qcurve"/>
			<point x="505" y="248"/>
			<point x="466" y="133"/>
			<point x="386" y="44"/>
			<point x="265" y="-10"/>
			<point x="184" y="-10" type="qcurve"/>
			<point x="157" y="-10"/>
			<point x="87" y="3"/>
			<point x="63" y="18" type="qcurve"/>
			<point x="222" y="689" type="line"/>
			<point x="544" y="689" type="line"/>
			<point x="528" y="619" type="line"/>
			<point x="289" y="619" type="line"/>
		</contour>
		<contour>
			<point x="331" y="405" type="qcurve"/>
			<point x="305" y="405"/>
			<point x="251" y="386"/>
			<point x="228" y="369" type="qcurve"/>
			<point x="155" y="67" type="line"/>
			<point x="164" y="65"/>
			<point x="190" y="62"/>
			<point x="201" y="62" type="qcurve"/>
			<point x="252" y="62"/>
			<point x="334" y="101"/>
			<point x="391" y="167"/>
			<point x="422" y="254"/>
			<point x="422" y="301" type="qcurve"/>
			<point x="422" y="321"/>
			<point x="415" y="359"/>
			<point x="395" y="388"/>
			<point x="359" y="405"/>
		</contour>
	</outline>
</glyph>
<glyph name="uni0184" format="2">
	<unicode hex="0184"/>
	<advance width="500"/>
	<outline>
		<contour>
			<point x="257" y="446" type="line"/>
			<point x="278" y="459"/>
			<point x="331" y="475"/>
			<point x="362" y="475" type="qcurve"/>
			<point x="401" y="475"/>
			<point x="458" y="450"/>
			<point x="495" y="407"/>
			<point x="514" y="347"/>
			<point x="514" y="312" type="qcurve"/>
			<point x="514" y="250"/>
			<point x="475" y="134"/>
			<point x="395" y="44"/>
			<point x="274" y="-10"/>
			<point x="193" y="-10" type="qcurve"/>
			<point x="166" y="-10"/>
			<point x="96" y="3"/>
			<point x="71" y="18" type="qcurve"/>
			<point x="203" y="565" type="line"/>
			<point x="156" y="632" type="line"/>
			<point x="192" y="651"/>
			<point x="274" y="683"/>
			<point x="316" y="693" type="qcurve"/>
		</contour>
		<contour>
			<point x="341" y="405" type="qcurve"/>
			<point x="314" y="405"/>
			<point x="260" y="387"/>
			<point x="237" y="370" type="qcurve"/>
			<point x="164" y="67" type="line"/>
			<point x="184" y="62"/>
			<point x="208" y="62" type="qcurve"/>
			<point x="259" y="62"/>
			<point x="342" y="102"/>
			<point x="400" y="169"/>
			<point x="432" y="256"/>
			<point x="432" y="303" type="qcurve"/>
			<point x="432" y="323"/>
			<point x="424" y="360"/>
			<point x="403" y="388"/>
			<point x="368" y="405"/>
		</contour>
	</outline>
</glyph>
<glyph name="uni0188" format="2">
	<unicode hex="0188"/>
	<advance width="500"/>
	<outline>
		<contour>
			<point x="360" y="475" type="qcurve"/>
			<point x="371" y="475"/>
			<point x="398" y="473"/>
			<point x="404" y="471" type="qcurve"/>
			<point x="427" y="524"/>
			<point x="489" y="562"/>
			<point x="530" y="562" type="qcurve"/>
			<point x="551" y="562"/>
			<point x="581" y="554"/>
			<point x="589" y="549" type="qcurve"/>
			<point x="563" y="490" type="line"/>
			<point x="557" y="493"/>
			<point x="538" y="498"/>
			<point x="527" y="498" type="qcurve"/>
			<point x="507" y="498"/>
			<point x="480" y="480"/>
			<point x="460" y="450"/>
			<point x="445" y="411"/>
			<point x="437" y="390" type="qcurve"/>
			<point x="424" y="396"/>
			<point x="384" y="405"/>
			<point x="352" y="405" type="qcurve"/>
			<point x="308" y="405"/>
			<point x="238" y="366"/>
			<point x="189" y="302"/>
			<point x="163" y="219"/>
			<point x="163" y="174" type="qcurve"/>
			<point x="163" y="151"/>
			<point x="173" y="109"/>
			<point x="198" y="78"/>
			<point x="240" y="59"/>
			<point x="272" y="59" type="qcurve"/>
			<point x="288" y="59"/>
			<point x="324" y="65"/>
			<point x="355" y="74"/>
			<point x="379" y="84"/>
			<point x="384" y="88" type="qcurve"/>
			<point x="391" y="20" type="line"/>
			<point x="374" y="9"/>
			<point x="302" y="-12"/>
			<point x="257" y="-12" type="qcurve"/>
			<point x="214" y="-12"/>
			<point x="148" y="14"/>
			<point x="103" y="62"/>
			<point x="80" y="127"/>
			<point x="80" y="166" type="qcurve"/>
			<point x="80" y="227"/>
			<point x="117" y="338"/>
			<point x="188" y="424"/>
			<point x="292" y="475"/>
		</contour>
	</outline>
</glyph>
<glyph name="uni018A" format="2">
	<unicode hex="018A"/>
	<advance width="500"/>
	<outline>
		<contour>
			<point x="263" y="554" type="line"/>
			<point x="219" y="550"/>
			<point x="169" y="503"/>
			<point x="169" y="447" type="qcurve"/>
			<point x="102" y="439" type="line"/>
			<point x="101" y="443"/>
			<point x="101" y="451"/>
			<point x="101" y="453" type="qcurve"/>
			<point x="101" y="491"/>
			<point x="126" y="554"/>
			<point x="180" y="600"/>
			<point x="267" y="625"/>
			<point x="329" y="625" type="qcurve"/>
			<point x="440" y="625"/>
			<point x="540" y="508"/>
			<point x="540" y="397" type="qcurve"/>
			<point x="540" y="321"/>
			<point x="501" y="177"/>
			<point x="423" y="64"/>
			<point x="307" y="-5"/>
			<point x="230" y="-5" type="qcurve"/>
			<point x="207" y="-5"/>
			<point x="158" y="1"/>
			<point x="132" y="9" type="qcurve"/>
		</contour>
		<contour>
			<point x="228" y="68" type="line"/>
			<point x="241" y="65"/>
			<point x="255" y="65" type="qcurve"/>
			<point x="306" y="65"/>
			<point x="382" y="133"/>
			<point x="432" y="234"/>
			<point x="457" y="348"/>
			<point x="457" y="394" type="qcurve"/>
			<point x="457" y="474"/>
			<point x="406" y="554"/>
			<point x="346" y="554" type="qcurve"/>
		</contour>
	</outline>
</glyph>
<glyph name="uni018B" format="2">
	<unicode hex="018B"/>
	<advance width="500"/>
	<outline>
		<contour>
			<point x="78" y="154" type="qcurve"/>
			<point x="78" y="211"/>
			<point x="119" y="296"/>
			<point x="192" y="354"/>
			<point x="294" y="383"/>
			<point x="355" y="383" type="qcurve"/>
			<point x="433" y="383" type="line"/>
			<point x="473" y="549" type="line"/>
			<point x="206" y="549" type="line"/>
			<point x="221" y="619" type="line"/>
			<point x="572" y="619" type="line"/>
			<point x="424" y="9" type="line"/>
			<point x="407" y="4"/>
			<point x="366" y="-1"/>
			<point x="325" y="-4"/>
			<point x="286" y="-5"/>
			<point x="271" y="-5" type="qcurve"/>
			<point x="177" y="-5"/>
			<point x="78" y="76"/>
		</contour>
		<contour>
			<point x="285" y="64" type="qcurve"/>
			<point x="312" y="64"/>
			<point x="348" y="67"/>
			<point x="357" y="68" type="qcurve"/>
			<point x="417" y="316" type="line"/>
			<point x="351" y="316" type="line"/>
			<point x="313" y="316"/>
			<point x="244" y="300"/>
			<point x="192" y="264"/>
			<point x="160" y="205"/>
			<point x="160" y="162" type="qcurve"/>
			<point x="160" y="107"/>
			<point x="225" y="64"/>
		</contour>
	</outline>
	<guideline x="191"/>
</glyph>
<glyph name="uni0193" format="2">
	<unicode hex="0193"/>
	<advance width="500"/>
	<outline>
		<contour>
			<point x="163" y="224" type="qcurve"/>
			<point x="163" y="59"/>
			<point x="288" y="59" type="qcurve"/>
			<point x="312" y="59"/>
			<point x="349" y="66"/>
			<point x="360" y="70" type="qcurve"/>
			<point x="416" y="304" type="line"/>
			<point x="498" y="304" type="line"/>
			<point x="429" y="14" type="line"/>
			<point x="421" y="11"/>
			<point x="390" y="2"/>
			<point x="348" y="-7"/>
			<point x="298" y="-13"/>
			<point x="271" y="-13" type="qcurve"/>
			<point x="225" y="-13"/>
			<point x="154" y="20"/>
			<point x="105" y="78"/>
			<point x="80" y="156"/>
			<point x="80" y="202" type="qcurve"/>
			<point x="80" y="305"/>
			<point x="132" y="465"/>
			<point x="219" y="575"/>
			<point x="334" y="633"/>
			<point x="396" y="633" type="qcurve"/>
			<point x="415" y="633"/>
			<point x="453" y="628"/>
			<point x="472" y="622" type="qcurve"/>
			<point x="497" y="671"/>
			<point x="548" y="702"/>
			<point x="583" y="702" type="qcurve"/>
			<point x="594" y="702"/>
			<point x="626" y="694"/>
			<point x="634" y="689" type="qcurve"/>
			<point x="606" y="628" type="line"/>
			<point x="591" y="637"/>
			<point x="576" y="637" type="qcurve"/>
			<point x="563" y="637"/>
			<point x="544" y="625"/>
			<point x="527" y="599"/>
			<point x="507" y="558"/>
			<point x="494" y="530" type="qcurve"/>
			<point x="469" y="546"/>
			<point x="420" y="560"/>
			<point x="396" y="560" type="qcurve"/>
			<point x="349" y="560"/>
			<point x="265" y="515"/>
			<point x="201" y="430"/>
			<point x="163" y="305"/>
		</contour>
	</outline>
</glyph>
<glyph name="uni0196" format="2">
	<unicode hex="0196"/>
	<advance width="500"/>
	<outline>
		<contour>
			<point x="301" y="549" type="line"/>
			<point x="190" y="549" type="line"/>
			<point x="206" y="619" type="line"/>
			<point x="528" y="619" type="line"/>
			<point x="512" y="549" type="line"/>
			<point x="383" y="549" type="line"/>
			<point x="291" y="165" type="line"/>
			<point x="283" y="133"/>
			<point x="283" y="112" type="qcurve"/>
			<point x="283" y="84"/>
			<point x="315" y="56"/>
			<point x="357" y="56" type="qcurve"/>
			<point x="383" y="56"/>
			<point x="428" y="71"/>
			<point x="441" y="77" type="qcurve"/>
			<point x="440" y="11" type="line"/>
			<point x="426" y="2"/>
			<point x="360" y="-13"/>
			<point x="328" y="-13" type="qcurve"/>
			<point x="257" y="-13"/>
			<point x="201" y="44"/>
			<point x="201" y="96" type="qcurve"/>
			<point x="201" y="136"/>
			<point x="215" y="194" type="qcurve"/>
		</contour>
	</outline>
</glyph>
<glyph name="uni019B" format="2">
	<unicode hex="019B"/>
	<advance width="500"/>
	<outline>
		<contour>
			<point x="211" y="487" type="line"/>
			<point x="204" y="543" type="line"/>
			<point x="302" y="574" type="line"/>
			<point x="291" y="602"/>
			<point x="260" y="626"/>
			<point x="231" y="626" type="qcurve"/>
			<point x="218" y="626"/>
			<point x="193" y="623"/>
			<point x="182" y="618" type="qcurve"/>
			<point x="186" y="685" type="line"/>
			<point x="199" y="690"/>
			<point x="230" y="693"/>
			<point x="247" y="693" type="qcurve"/>
			<point x="304" y="693"/>
			<point x="361" y="643"/>
			<point x="375" y="598" type="qcurve"/>
			<point x="485" y="633" type="line"/>
			<point x="492" y="577" type="line"/>
			<point x="388" y="543" type="line"/>
			<point x="418" y="388"/>
			<point x="444" y="115"/>
			<point x="449" y="0" type="qcurve"/>
			<point x="368" y="0" type="line"/>
			<point x="367" y="38"/>
			<point x="364" y="119"/>
			<point x="358" y="211"/>
			<point x="348" y="317"/>
			<point x="339" y="380" type="qcurve"/>
			<point x="304" y="335"/>
			<point x="239" y="239"/>
			<point x="182" y="142"/>
			<point x="134" y="45"/>
			<point x="116" y="0" type="qcurve"/>
			<point x="32" y="0" type="line"/>
			<point x="80" y="122"/>
			<point x="234" y="362"/>
			<point x="324" y="472" type="qcurve"/>
			<point x="315" y="520" type="line"/>
			<point x="314" y="520" type="line"/>
		</contour>
	</outline>
</glyph>
<glyph name="uni019D" format="2">
	<unicode hex="019D"/>
	<advance width="500"/>
	<outline>
		<contour>
			<point x="116" y="0" type="line"/>
			<point x="108" y="-36"/>
			<point x="88" y="-97"/>
			<point x="53" y="-142"/>
			<point x="-3" y="-167"/>
			<point x="-47" y="-167" type="qcurve"/>
			<point x="-60" y="-167"/>
			<point x="-95" y="-160"/>
			<point x="-103" y="-155" type="qcurve"/>
			<point x="-81" y="-93" type="line"/>
			<point x="-76" y="-95"/>
			<point x="-57" y="-100"/>
			<point x="-44" y="-100" type="qcurve"/>
			<point x="-8" y="-100"/>
			<point x="27" y="-56"/>
			<point x="38" y="-15" type="qcurve"/>
			<point x="189" y="619" type="line"/>
			<point x="274" y="619" type="line"/>
			<point x="292" y="560"/>
			<point x="327" y="440"/>
			<point x="359" y="323"/>
			<point x="386" y="212"/>
			<point x="394" y="163" type="qcurve"/>
			<point x="504" y="619" type="line"/>
			<point x="579" y="619" type="line"/>
			<point x="430" y="0" type="line"/>
			<point x="355" y="0" type="line"/>
			<point x="351" y="46"/>
			<point x="326" y="169"/>
			<point x="291" y="303"/>
			<point x="252" y="441"/>
			<point x="234" y="503" type="qcurve"/>
		</contour>
	</outline>
</glyph>
<glyph name="uni019F" format="2">
	<unicode hex="019F"/>
	<advance width="500"/>
	<outline>
		<contour>
			<point x="374" y="633" type="qcurve"/>
			<point x="447" y="633"/>
			<point x="537" y="538"/>
			<point x="537" y="436" type="qcurve"/>
			<point x="537" y="399"/>
			<point x="523" y="304"/>
			<point x="493" y="204"/>
			<point x="446" y="108"/>
			<point x="380" y="33"/>
			<point x="293" y="-13"/>
			<point x="239" y="-13" type="qcurve"/>
			<point x="167" y="-13"/>
			<point x="76" y="82"/>
			<point x="76" y="184" type="qcurve"/>
			<point x="76" y="221"/>
			<point x="90" y="316"/>
			<point x="120" y="416"/>
			<point x="167" y="512"/>
			<point x="233" y="587"/>
			<point x="320" y="633"/>
		</contour>
		<contour>
			<point x="249" y="58" type="qcurve"/>
			<point x="283" y="58"/>
			<point x="341" y="94"/>
			<point x="387" y="156"/>
			<point x="422" y="235"/>
			<point x="433" y="279" type="qcurve"/>
			<point x="166" y="279" type="line"/>
			<point x="162" y="256"/>
			<point x="159" y="211"/>
			<point x="159" y="190" type="qcurve"/>
			<point x="159" y="119"/>
			<point x="207" y="58"/>
		</contour>
		<contour>
			<point x="364" y="562" type="qcurve"/>
			<point x="330" y="562"/>
			<point x="273" y="526"/>
			<point x="227" y="466"/>
			<point x="192" y="387"/>
			<point x="180" y="345" type="qcurve"/>
			<point x="447" y="345" type="line"/>
			<point x="450" y="366"/>
			<point x="454" y="410"/>
			<point x="454" y="430" type="qcurve"/>
			<point x="454" y="500"/>
			<point x="407" y="562"/>
		</contour>
	</outline>
</glyph>
<glyph name="uni01A5" format="2">
	<unicode hex="01A5"/>
	<advance width="500"/>
	<outline>
		<contour>
			<point x="252" y="468" type="line"/>
			<point x="275" y="471"/>
			<point x="318" y="475"/>
			<point x="337" y="475" type="qcurve"/>
			<point x="380" y="475"/>
			<point x="444" y="450"/>
			<point x="485" y="407"/>
			<point x="505" y="347"/>
			<point x="505" y="312" type="qcurve"/>
			<point x="505" y="250"/>
			<point x="468" y="134"/>
			<point x="390" y="44"/>
			<point x="271" y="-11"/>
			<point x="190" y="-11" type="qcurve"/>
			<point x="180" y="-11"/>
			<point x="147" y="-6"/>
			<point x="138" y="-4" type="qcurve"/>
			<point x="100" y="-165" type="line"/>
			<point x="18" y="-165" type="line"/>
			<point x="183" y="526" type="line"/>
			<point x="193" y="567"/>
			<point x="214" y="630"/>
			<point x="249" y="672"/>
			<point x="304" y="693"/>
			<point x="348" y="693" type="qcurve"/>
			<point x="361" y="693"/>
			<point x="396" y="686"/>
			<point x="404" y="681" type="qcurve"/>
			<point x="382" y="619" type="line"/>
			<point x="377" y="621"/>
			<point x="358" y="626"/>
			<point x="345" y="626" type="qcurve"/>
			<point x="310" y="626"/>
			<point x="278" y="581"/>
			<point x="269" y="541" type="qcurve"/>
		</contour>
		<contour>
			<point x="156" y="68" type="line"/>
			<point x="165" y="66"/>
			<point x="194" y="63"/>
			<point x="204" y="63" type="qcurve"/>
			<point x="255" y="63"/>
			<point x="336" y="102"/>
			<point x="393" y="168"/>
			<point x="423" y="255"/>
			<point x="423" y="302" type="qcurve"/>
			<point x="423" y="322"/>
			<point x="414" y="359"/>
			<point x="390" y="388"/>
			<point x="348" y="405"/>
			<point x="316" y="405" type="qcurve"/>
			<point x="294" y="405"/>
			<point x="248" y="397"/>
			<point x="235" y="394" type="qcurve"/>
		</contour>
	</outline>
</glyph>
<glyph name="uni01AA" format="2">
	<unicode hex="01AA"/>
	<advance width="500"/>
	<outline>
		<contour>
			<point x="324" y="693" type="qcurve"/>
			<point x="390" y="693"/>
			<point x="442" y="631"/>
			<point x="442" y="580" type="qcurve"/>
			<point x="442" y="564"/>
			<point x="437" y="529"/>
			<point x="432" y="512" type="qcurve"/>
			<point x="321" y="45" type="line"/>
			<point x="316" y="25"/>
			<point x="307" y="-12"/>
			<point x="307" y="-29" type="qcurve"/>
			<point x="307" y="-55"/>
			<point x="338" y="-93"/>
			<point x="381" y="-93" type="qcurve"/>
			<point x="421" y="-93" type="line"/>
			<point x="403" y="-164" type="line"/>
			<point x="395" y="-165"/>
			<point x="376" y="-165"/>
			<point x="368" y="-165" type="qcurve"/>
			<point x="336" y="-165"/>
			<point x="283" y="-154"/>
			<point x="245" y="-126"/>
			<point x="225" y="-77"/>
			<point x="225" y="-38" type="qcurve"/>
			<point x="225" y="-18"/>
			<point x="232" y="27"/>
			<point x="238" y="51" type="qcurve"/>
			<point x="338" y="463" type="line"/>
			<point x="318" y="450"/>
			<point x="278" y="439"/>
			<point x="262" y="439" type="qcurve"/>
			<point x="235" y="439"/>
			<point x="198" y="456"/>
			<point x="175" y="484"/>
			<point x="165" y="521"/>
			<point x="165" y="542" type="qcurve"/>
			<point x="165" y="573"/>
			<point x="186" y="628"/>
			<point x="226" y="669"/>
			<point x="285" y="693"/>
		</contour>
		<contour>
			<point x="280" y="500" type="qcurve"/>
			<point x="302" y="500"/>
			<point x="336" y="519"/>
			<point x="355" y="536" type="qcurve"/>
			<point x="361" y="555"/>
			<point x="364" y="577"/>
			<point x="364" y="582" type="qcurve"/>
			<point x="364" y="631"/>
			<point x="312" y="631" type="qcurve"/>
			<point x="277" y="631"/>
			<point x="230" y="582"/>
			<point x="230" y="547" type="qcurve"/>
			<point x="230" y="526"/>
			<point x="254" y="500"/>
		</contour>
	</outline>
</glyph>
<glyph name="uni01AC" format="2">
	<unicode hex="01AC"/>
	<advance width="500"/>
	<outline>
		<contour>
			<point x="283" y="549" type="line"/>
			<point x="256" y="549"/>
			<point x="220" y="533"/>
			<point x="199" y="506"/>
			<point x="190" y="469"/>
			<point x="190" y="447" type="qcurve"/>
			<point x="123" y="439" type="line"/>
			<point x="122" y="443"/>
			<point x="122" y="451"/>
			<point x="122" y="453" type="qcurve"/>
			<point x="122" y="503"/>
			<point x="156" y="567"/>
			<point x="210" y="605"/>
			<point x="275" y="619"/>
			<point x="305" y="619" type="qcurve"/>
			<point x="598" y="619" type="line"/>
			<point x="581" y="549" type="line"/>
			<point x="421" y="549" type="line"/>
			<point x="288" y="0" type="line"/>
			<point x="206" y="0" type="line"/>
			<point x="338" y="549" type="line"/>
		</contour>
	</outline>
</glyph>
<glyph name="Uhorn" format="2">
	<unicode hex="01AF"/>
	<advance width="500"/>
	<outline>
		<contour>
			<point x="504" y="619" type="line"/>
			<point x="528" y="619"/>
			<point x="558" y="638"/>
			<point x="575" y="666"/>
			<point x="583" y="700"/>
			<point x="584" y="715" type="qcurve"/>
			<point x="667" y="715" type="line"/>
			<point x="664" y="687"/>
			<point x="647" y="635"/>
			<point x="613" y="593"/>
			<point x="560" y="564"/>
			<point x="522" y="559" type="qcurve"/>
			<point x="436" y="202" type="line"/>
			<point x="424" y="151"/>
			<point x="392" y="71"/>
			<point x="340" y="16"/>
			<point x="264" y="-13"/>
			<point x="210" y="-13" type="qcurve"/>
			<point x="172" y="-13"/>
			<point x="117" y="11"/>
			<point x="81" y="55"/>
			<point x="63" y="113"/>
			<point x="63" y="148" type="qcurve"/>
			<point x="63" y="165"/>
			<point x="66" y="202"/>
			<point x="71" y="222" type="qcurve"/>
			<point x="166" y="619" type="line"/>
			<point x="248" y="619" type="line"/>
			<point x="153" y="223" type="line"/>
			<point x="148" y="205"/>
			<point x="143" y="169"/>
			<point x="143" y="152" type="qcurve"/>
			<point x="143" y="112"/>
			<point x="178" y="58"/>
			<point x="222" y="58" type="qcurve"/>
			<point x="247" y="58"/>
			<point x="287" y="71"/>
			<point x="320" y="105"/>
			<point x="345" y="165"/>
			<point x="355" y="212" type="qcurve"/>
			<point x="454" y="619" type="line"/>
		</contour>
	</outline>
</glyph>
<glyph name="uni01B3" format="2">
	<unicode hex="01B3"/>
	<advance width="500"/>
	<outline>
		<contour>
			<point x="170" y="0" type="line"/>
			<point x="225" y="230" type="line"/>
			<point x="190" y="329"/>
			<point x="134" y="520"/>
			<point x="121" y="619" type="qcurve"/>
			<point x="204" y="619" type="line"/>
			<point x="207" y="584"/>
			<point x="221" y="503"/>
			<point x="241" y="420"/>
			<point x="263" y="338"/>
			<point x="274" y="301" type="qcurve"/>
			<point x="321" y="372"/>
			<point x="396" y="485"/>
			<point x="425" y="530" type="qcurve"/>
			<point x="443" y="559"/>
			<point x="475" y="597"/>
			<point x="506" y="619"/>
			<point x="538" y="628"/>
			<point x="555" y="628" type="qcurve"/>
			<point x="581" y="628"/>
			<point x="620" y="604"/>
			<point x="634" y="585" type="qcurve"/>
			<point x="588" y="533" type="line"/>
			<point x="568" y="560"/>
			<point x="545" y="560" type="qcurve"/>
			<point x="530" y="560"/>
			<point x="507" y="530"/>
			<point x="484" y="495" type="qcurve"/>
			<point x="454" y="447"/>
			<point x="359" y="309"/>
			<point x="307" y="227" type="qcurve"/>
			<point x="252" y="0" type="line"/>
		</contour>
	</outline>
</glyph>
<glyph name="uni01B4" format="2">
	<unicode hex="01B4"/>
	<advance width="500"/>
	<outline>
		<contour>
			<point x="512" y="476" type="qcurve"/>
			<point x="546" y="476"/>
			<point x="574" y="462" type="qcurve"/>
			<point x="555" y="399" type="line"/>
			<point x="546" y="404"/>
			<point x="529" y="409"/>
			<point x="515" y="409" type="qcurve"/>
			<point x="490" y="409"/>
			<point x="468" y="381"/>
			<point x="456" y="351" type="qcurve"/>
			<point x="432" y="291"/>
			<point x="389" y="197"/>
			<point x="348" y="116"/>
			<point x="305" y="41"/>
			<point x="280" y="0" type="qcurve"/>
			<point x="258" y="-36"/>
			<point x="211" y="-97"/>
			<point x="157" y="-142"/>
			<point x="93" y="-168"/>
			<point x="54" y="-168" type="qcurve"/>
			<point x="31" y="-168"/>
			<point x="-18" y="-158"/>
			<point x="-28" y="-150" type="qcurve"/>
			<point x="-2" y="-84" type="line"/>
			<point x="6" y="-92"/>
			<point x="46" y="-97"/>
			<point x="63" y="-97" type="qcurve"/>
			<point x="101" y="-97"/>
			<point x="163" y="-41"/>
			<point x="192" y="0" type="qcurve"/>
			<point x="159" y="109"/>
			<point x="132" y="341"/>
			<point x="127" y="464" type="qcurve"/>
			<point x="212" y="464" type="line"/>
			<point x="213" y="424"/>
			<point x="216" y="330"/>
			<point x="223" y="230"/>
			<point x="238" y="128"/>
			<point x="250" y="81" type="qcurve"/>
			<point x="291" y="156"/>
			<point x="349" y="294"/>
			<point x="382" y="369" type="qcurve"/>
			<point x="395" y="397"/>
			<point x="418" y="438"/>
			<point x="447" y="464"/>
			<point x="485" y="476"/>
		</contour>
	</outline>
</glyph>
<glyph name="uni01B6" format="2">
	<unicode hex="01B6"/>
	<advance width="500"/>
	<outline>
		<contour>
			<point x="494" y="405" type="line"/>
			<point x="471" y="385"/>
			<point x="400" y="316"/>
			<point x="358" y="274" type="qcurve"/>
			<point x="457" y="274" type="line"/>
			<point x="443" y="215" type="line"/>
			<point x="301" y="215" type="line"/>
			<point x="261" y="174"/>
			<point x="193" y="98"/>
			<point x="171" y="70" type="qcurve"/>
			<point x="421" y="70" type="line"/>
			<point x="405" y="0" type="line"/>
			<point x="58" y="0" type="line"/>
			<point x="71" y="54" type="line"/>
			<point x="95" y="89"/>
			<point x="165" y="172"/>
			<point x="204" y="215" type="qcurve"/>
			<point x="135" y="215" type="line"/>
			<point x="149" y="274" type="line"/>
			<point x="260" y="274" type="line"/>
			<point x="295" y="310"/>
			<point x="360" y="372"/>
			<point x="386" y="395" type="qcurve"/>
			<point x="165" y="395" type="line"/>
			<point x="183" y="464" type="line"/>
			<point x="509" y="464" type="line"/>
		</contour>
	</outline>
</glyph>
<glyph name="uni01B8" format="2">
	<unicode hex="01B8"/>
	<advance width="500"/>
	<outline>
		<contour>
			<point x="399" y="297" type="line"/>
			<point x="378" y="297" type="line"/>
			<point x="327" y="297"/>
			<point x="250" y="274"/>
			<point x="198" y="235"/>
			<point x="171" y="183"/>
			<point x="171" y="154" type="qcurve"/>
			<point x="171" y="110"/>
			<point x="236" y="58"/>
			<point x="305" y="58" type="qcurve"/>
			<point x="326" y="58"/>
			<point x="370" y="64"/>
			<point x="410" y="74"/>
			<point x="443" y="86"/>
			<point x="453" y="91" type="qcurve"/>
			<point x="462" y="23" type="line"/>
			<point x="452" y="18"/>
			<point x="415" y="5"/>
			<point x="368" y="-6"/>
			<point x="314" y="-13"/>
			<point x="287" y="-13" type="qcurve"/>
			<point x="235" y="-13"/>
			<point x="160" y="14"/>
			<point x="111" y="60"/>
			<point x="88" y="124"/>
			<point x="88" y="160" type="qcurve"/>
			<point x="88" y="193"/>
			<point x="114" y="257"/>
			<point x="170" y="310"/>
			<point x="258" y="348"/>
			<point x="320" y="356" type="qcurve"/>
			<point x="305" y="383"/>
			<point x="272" y="440"/>
			<point x="241" y="496"/>
			<point x="214" y="547"/>
			<point x="204" y="567" type="qcurve"/>
			<point x="215" y="619" type="line"/>
			<point x="576" y="619" type="line"/>
			<point x="560" y="549" type="line"/>
			<point x="295" y="549" type="line"/>
			<point x="302" y="531"/>
			<point x="330" y="479"/>
			<point x="362" y="422"/>
			<point x="396" y="365"/>
			<point x="410" y="343" type="qcurve"/>
		</contour>
	</outline>
	<guideline x="88"/>
</glyph>
<glyph name="uni01B9" format="2">
	<unicode hex="01B9"/>
	<advance width="500"/>
	<outline>
		<contour>
			<point x="382" y="142" type="line"/>
			<point x="367" y="142" type="line"/>
			<point x="331" y="142"/>
			<point x="255" y="131"/>
			<point x="194" y="99"/>
			<point x="154" y="42"/>
			<point x="154" y="-3" type="qcurve"/>
			<point x="154" y="-48"/>
			<point x="220" y="-96"/>
			<point x="282" y="-96" type="qcurve"/>
			<point x="324" y="-96"/>
			<point x="383" y="-76"/>
			<point x="406" y="-65" type="qcurve"/>
			<point x="412" y="-133" type="line"/>
			<point x="387" y="-144"/>
			<point x="314" y="-165"/>
			<point x="264" y="-165" type="qcurve"/>
			<point x="174" y="-165"/>
			<point x="72" y="-82"/>
			<point x="72" y="-12" type="qcurve"/>
			<point x="72" y="40"/>
			<point x="112" y="119"/>
			<point x="176" y="173"/>
			<point x="259" y="203"/>
			<point x="302" y="207" type="qcurve"/>
			<point x="269" y="258"/>
			<point x="211" y="370"/>
			<point x="191" y="416" type="qcurve"/>
			<point x="203" y="464" type="line"/>
			<point x="533" y="464" type="line"/>
			<point x="516" y="395" type="line"/>
			<point x="278" y="395" type="line"/>
			<point x="285" y="377"/>
			<point x="312" y="325"/>
			<point x="345" y="269"/>
			<point x="379" y="213"/>
			<point x="394" y="191" type="qcurve"/>
		</contour>
	</outline>
</glyph>
<glyph name="uni01BD" format="2">
	<unicode hex="01BD"/>
	<advance width="500"/>
	<outline>
		<contour>
			<point x="454" y="154" type="qcurve"/>
			<point x="454" y="109"/>
			<point x="418" y="47"/>
			<point x="357" y="7"/>
			<point x="274" y="-11"/>
			<point x="227" y="-11" type="qcurve"/>
			<point x="181" y="-11"/>
			<point x="109" y="2"/>
			<point x="89" y="13" type="qcurve"/>
			<point x="114" y="81" type="line"/>
			<point x="130" y="73"/>
			<point x="186" y="59"/>
			<point x="237" y="59" type="qcurve"/>
			<point x="264" y="59"/>
			<point x="313" y="67"/>
			<point x="350" y="88"/>
			<point x="373" y="124"/>
			<point x="373" y="151" type="qcurve"/>
			<point x="373" y="169"/>
			<point x="356" y="197"/>
			<point x="315" y="217"/>
			<point x="249" y="228"/>
			<point x="201" y="228" type="qcurve"/>
			<point x="164" y="228" type="line"/>
			<point x="182" y="278"/>
			<point x="208" y="355"/>
			<point x="221" y="398" type="qcurve"/>
			<point x="153" y="398" type="line"/>
			<point x="168" y="464" type="line"/>
			<point x="505" y="464" type="line"/>
			<point x="490" y="398" type="line"/>
			<point x="295" y="398" type="line"/>
			<point x="291" y="387"/>
			<point x="282" y="358"/>
			<point x="272" y="328"/>
			<point x="263" y="301"/>
			<point x="259" y="291" type="qcurve"/>
			<point x="315" y="289"/>
			<point x="390" y="268"/>
			<point x="435" y="232"/>
			<point x="454" y="183"/>
		</contour>
	</outline>
</glyph>
<glyph name="uni01BE" format="2">
	<unicode hex="01BE"/>
	<advance width="500"/>
	<outline>
		<contour>
			<point x="223" y="395" type="line"/>
			<point x="125" y="395" type="line"/>
			<point x="142" y="464" type="line"/>
			<point x="240" y="464" type="line"/>
			<point x="271" y="594" type="line"/>
			<point x="357" y="608" type="line"/>
			<point x="322" y="464" type="line"/>
			<point x="501" y="464" type="line"/>
			<point x="484" y="395" type="line"/>
			<point x="305" y="395" type="line"/>
			<point x="302" y="384" type="line"/>
			<point x="296" y="359"/>
			<point x="294" y="326"/>
			<point x="304" y="303"/>
			<point x="328" y="286"/>
			<point x="347" y="278" type="qcurve"/>
			<point x="373" y="266"/>
			<point x="418" y="242"/>
			<point x="451" y="212"/>
			<point x="469" y="172"/>
			<point x="469" y="144" type="qcurve"/>
			<point x="469" y="106"/>
			<point x="437" y="48"/>
			<point x="378" y="8"/>
			<point x="297" y="-12"/>
			<point x="248" y="-12" type="qcurve"/>
			<point x="187" y="-12"/>
			<point x="108" y="14"/>
			<point x="88" y="25" type="qcurve"/>
			<point x="121" y="95" type="line"/>
			<point x="138" y="84"/>
			<point x="203" y="58"/>
			<point x="252" y="58" type="qcurve"/>
			<point x="277" y="58"/>
			<point x="326" y="65"/>
			<point x="364" y="83"/>
			<point x="388" y="112"/>
			<point x="388" y="134" type="qcurve"/>
			<point x="388" y="165"/>
			<point x="335" y="202"/>
			<point x="287" y="223" type="qcurve"/>
			<point x="268" y="232"/>
			<point x="236" y="255"/>
			<point x="216" y="293"/>
			<point x="212" y="348"/>
			<point x="221" y="387" type="qcurve"/>
		</contour>
	</outline>
</glyph>
<glyph name="uni01C6" format="2">
	<unicode hex="01C6"/>
	<advance width="500"/>
	<outline>
		<contour>
			<point x="528" y="524" type="line"/>
			<point x="452" y="613" type="line"/>
			<point x="488" y="645" type="line"/>
			<point x="541" y="590" type="line"/>
			<point x="619" y="646" type="line"/>
			<point x="645" y="613" type="line"/>
		</contour>
		<contour>
			<point x="574" y="400" type="line"/>
			<point x="544" y="349"/>
			<point x="496" y="269"/>
			<point x="454" y="195"/>
			<point x="413" y="118"/>
			<point x="389" y="70" type="qcurve"/>
			<point x="502" y="70" type="line"/>
			<point x="485" y="0" type="line"/>
			<point x="300" y="0" type="line"/>
			<point x="313" y="54" type="line"/>
			<point x="346" y="120"/>
			<point x="394" y="210"/>
			<point x="436" y="284"/>
			<point x="476" y="352"/>
			<point x="501" y="395" type="qcurve"/>
			<point x="402" y="395" type="line"/>
			<point x="419" y="464" type="line"/>
			<point x="590" y="464" type="line"/>
		</contour>
		<contour>
			<point x="245" y="8" type="line"/>
			<point x="207" y="-5"/>
			<point x="147" y="-12"/>
			<point x="128" y="-12" type="qcurve"/>
			<point x="100" y="-12"/>
			<point x="60" y="11"/>
			<point x="34" y="49"/>
			<point x="21" y="99"/>
			<point x="21" y="127" type="qcurve"/>
			<point x="21" y="188"/>
			<point x="51" y="312"/>
			<point x="106" y="412"/>
			<point x="186" y="475"/>
			<point x="237" y="475" type="qcurve"/>
			<point x="248" y="475"/>
			<point x="270" y="471"/>
			<point x="282" y="468" type="qcurve"/>
			<point x="333" y="679" type="line"/>
			<point x="410" y="693" type="line"/>
		</contour>
		<contour>
			<point x="268" y="406" type="line"/>
			<point x="251" y="416"/>
			<point x="234" y="416" type="qcurve"/>
			<point x="206" y="416"/>
			<point x="156" y="362"/>
			<point x="118" y="275"/>
			<point x="96" y="165"/>
			<point x="96" y="109" type="qcurve"/>
			<point x="96" y="82"/>
			<point x="121" y="48"/>
			<point x="144" y="48" type="qcurve"/>
			<point x="161" y="48"/>
			<point x="184" y="58" type="qcurve"/>
		</contour>
	</outline>
</glyph>
<glyph name="uni01CA" format="2">
	<unicode hex="01CA"/>
	<advance width="500"/>
	<outline>
		<contour>
			<point x="309" y="69" type="line"/>
			<point x="340" y="69"/>
			<point x="378" y="84"/>
			<point x="402" y="114"/>
			<point x="416" y="160"/>
			<point x="423" y="191" type="qcurve"/>
			<point x="526" y="619" type="line"/>
			<point x="597" y="619" type="line"/>
			<point x="486" y="154" type="line"/>
			<point x="468" y="79"/>
			<point x="378" y="0"/>
			<point x="292" y="0" type="qcurve"/>
		</contour>
		<contour>
			<point x="135" y="251" type="line"/>
			<point x="74" y="0" type="line"/>
			<point x="13" y="0" type="line"/>
			<point x="161" y="619" type="line"/>
			<point x="227" y="619" type="line"/>
			<point x="241" y="183" type="line"/>
			<point x="276" y="366" type="line"/>
			<point x="337" y="619" type="line"/>
			<point x="399" y="619" type="line"/>
			<point x="250" y="0" type="line"/>
			<point x="184" y="0" type="line"/>
			<point x="170" y="436" type="line"/>
		</contour>
	</outline>
</glyph>
<glyph name="uni01DD" format="2">
	<unicode hex="01DD"/>
	<advance width="500"/>
	<outline>
		<contour>
			<point x="421" y="220" type="qcurve"/>
			<point x="361" y="219"/>
			<point x="265" y="209"/>
			<point x="198" y="185"/>
			<point x="162" y="143"/>
			<point x="162" y="110" type="qcurve"/>
			<point x="162" y="102"/>
			<point x="169" y="83"/>
			<point x="186" y="67"/>
			<point x="215" y="57"/>
			<point x="238" y="57" type="qcurve"/>
			<point x="272" y="57"/>
			<point x="332" y="84"/>
			<point x="379" y="129"/>
			<point x="412" y="188"/>
		</contour>
		<contour>
			<point x="321" y="475" type="qcurve"/>
			<point x="369" y="475"/>
			<point x="441" y="447"/>
			<point x="489" y="399"/>
			<point x="512" y="336"/>
			<point x="512" y="302" type="qcurve"/>
			<point x="512" y="239"/>
			<point x="473" y="125"/>
			<point x="399" y="39"/>
			<point x="294" y="-12"/>
			<point x="228" y="-12" type="qcurve"/>
			<point x="189" y="-12"/>
			<point x="133" y="7"/>
			<point x="97" y="39"/>
			<point x="80" y="81"/>
			<point x="80" y="104" type="qcurve"/>
			<point x="80" y="167"/>
			<point x="145" y="237"/>
			<point x="246" y="272"/>
			<point x="371" y="281"/>
			<point x="431" y="283" type="qcurve"/>
			<point x="434" y="315"/>
			<point x="416" y="361"/>
			<point x="380" y="390"/>
			<point x="327" y="404"/>
			<point x="295" y="404" type="qcurve"/>
			<point x="274" y="404"/>
			<point x="229" y="397"/>
			<point x="190" y="387"/>
			<point x="160" y="376"/>
			<point x="154" y="372" type="qcurve"/>
			<point x="147" y="442" type="line"/>
			<point x="166" y="452"/>
			<point x="252" y="475"/>
		</contour>
	</outline>
</glyph>
<glyph name="uni01E9" format="2">
	<unicode hex="01E9"/>
	<advance width="500"/>
	<outline>
		<contour>
			<point x="63" y="0" type="line"/>
			<point x="219" y="649" type="line"/>
			<point x="305" y="663" type="line"/>
			<point x="211" y="277" type="line"/>
			<point x="271" y="321"/>
			<point x="396" y="418"/>
			<point x="447" y="464" type="qcurve"/>
			<point x="545" y="464" type="line"/>
			<point x="520" y="438"/>
			<point x="453" y="380"/>
			<point x="382" y="323"/>
			<point x="314" y="271"/>
			<point x="288" y="252" type="qcurve"/>
			<point x="311" y="232"/>
			<point x="360" y="174"/>
			<point x="405" y="106"/>
			<point x="444" y="34"/>
			<point x="456" y="0" type="qcurve"/>
			<point x="367" y="0" type="line"/>
			<point x="335" y="72"/>
			<point x="249" y="194"/>
			<point x="201" y="232" type="qcurve"/>
			<point x="145" y="0" type="line"/>
		</contour>
		<contour>
			<point x="230" y="794" type="line"/>
			<point x="263" y="830" type="line"/>
			<point x="328" y="772" type="line"/>
			<point x="415" y="829" type="line"/>
			<point x="439" y="787" type="line"/>
			<point x="318" y="699" type="line"/>
		</contour>
	</outline>
</glyph>
<glyph name="uni021D" format="2">
	<unicode hex="021D"/>
	<advance width="500"/>
	<outline>
		<contour>
			<point x="481" y="344" type="qcurve"/>
			<point x="481" y="287"/>
			<point x="410" y="204"/>
			<point x="353" y="184" type="qcurve"/>
			<point x="396" y="170"/>
			<point x="439" y="114"/>
			<point x="439" y="73" type="qcurve"/>
			<point x="439" y="5"/>
			<point x="365" y="-87"/>
			<point x="245" y="-142"/>
			<point x="96" y="-165"/>
			<point x="21" y="-165" type="qcurve"/>
			<point x="33" y="-96" type="line"/>
			<point x="64" y="-96"/>
			<point x="136" y="-91"/>
			<point x="208" y="-78"/>
			<point x="275" y="-55"/>
			<point x="326" y="-18"/>
			<point x="357" y="33"/>
			<point x="357" y="68" type="qcurve"/>
			<point x="357" y="94"/>
			<point x="325" y="124"/>
			<point x="277" y="140"/>
			<point x="219" y="145"/>
			<point x="194" y="145" type="qcurve"/>
			<point x="168" y="145" type="line"/>
			<point x="185" y="214" type="line"/>
			<point x="221" y="214"/>
			<point x="296" y="227"/>
			<point x="359" y="256"/>
			<point x="399" y="303"/>
			<point x="399" y="338" type="qcurve"/>
			<point x="399" y="358"/>
			<point x="381" y="385"/>
			<point x="351" y="400"/>
			<point x="314" y="406"/>
			<point x="295" y="406" type="qcurve"/>
			<point x="271" y="406"/>
			<point x="225" y="400"/>
			<point x="186" y="391"/>
			<point x="158" y="381"/>
			<point x="152" y="377" type="qcurve"/>
			<point x="146" y="448" type="line"/>
			<point x="152" y="451"/>
			<point x="184" y="461"/>
			<point x="229" y="470"/>
			<point x="282" y="476"/>
			<point x="309" y="476" type="qcurve"/>
			<point x="392" y="476"/>
			<point x="481" y="410"/>
		</contour>
	</outline>
</glyph>
<glyph name="uni021F" format="2">
	<unicode hex="021F"/>
	<advance width="500"/>
	<outline>
		<contour>
			<point x="45" y="0" type="line"/>
			<point x="200" y="649" type="line"/>
			<point x="286" y="663" type="line"/>
			<point x="236" y="457" type="line"/>
			<point x="256" y="465"/>
			<point x="302" y="474"/>
			<point x="325" y="474" type="qcurve"/>
			<point x="365" y="474"/>
			<point x="423" y="452"/>
			<point x="459" y="413"/>
			<point x="476" y="359"/>
			<point x="476" y="327" type="qcurve"/>
			<point x="476" y="306"/>
			<point x="468" y="260"/>
			<point x="462" y="236" type="qcurve"/>
			<point x="405" y="0" type="line"/>
			<point x="323" y="0" type="line"/>
			<point x="375" y="218" type="line"/>
			<point x="381" y="243"/>
			<point x="394" y="296"/>
			<point x="394" y="320" type="qcurve"/>
			<point x="394" y="355"/>
			<point x="354" y="402"/>
			<point x="301" y="402" type="qcurve"/>
			<point x="256" y="402"/>
			<point x="221" y="388" type="qcurve"/>
			<point x="126" y="0" type="line"/>
		</contour>
		<contour>
			<point x="213" y="794" type="line"/>
			<point x="246" y="830" type="line"/>
			<point x="311" y="772" type="line"/>
			<point x="398" y="829" type="line"/>
			<point x="422" y="787" type="line"/>
			<point x="301" y="699" type="line"/>
		</contour>
	</outline>
</glyph>
<glyph name="uni0220" format="2">
	<unicode hex="0220"/>
	<advance width="500"/>
	<outline>
		<contour>
			<point x="118" y="0" type="line"/>
			<point x="36" y="0" type="line"/>
			<point x="181" y="605" type="line"/>
			<point x="226" y="618"/>
			<point x="330" y="632"/>
			<point x="372" y="632" type="qcurve"/>
			<point x="417" y="632"/>
			<point x="482" y="610"/>
			<point x="522" y="571"/>
			<point x="541" y="517"/>
			<point x="541" y="485" type="qcurve"/>
			<point x="541" y="464"/>
			<point x="533" y="419"/>
			<point x="528" y="396" type="qcurve"/>
			<point x="393" y="-165" type="line"/>
			<point x="311" y="-165" type="line"/>
			<point x="441" y="378" type="line"/>
			<point x="447" y="403"/>
			<point x="459" y="455"/>
			<point x="459" y="478" type="qcurve"/>
			<point x="459" y="513"/>
			<point x="412" y="560"/>
			<point x="348" y="560" type="qcurve"/>
			<point x="322" y="560"/>
			<point x="268" y="555"/>
			<point x="251" y="550" type="qcurve"/>
		</contour>
	</outline>
	<guideline y="632"/>
</glyph>
<glyph name="uni0223" format="2">
	<unicode hex="0223"/>
	<advance width="500"/>
	<outline>
		<contour>
			<point x="541" y="546" type="qcurve"/>
			<point x="529" y="495"/>
			<point x="474" y="410"/>
			<point x="424" y="392" type="qcurve"/>
			<point x="454" y="376"/>
			<point x="493" y="311"/>
			<point x="493" y="263" type="qcurve"/>
			<point x="493" y="211"/>
			<point x="464" y="112"/>
			<point x="402" y="35"/>
			<point x="305" y="-12"/>
			<point x="238" y="-12" type="qcurve"/>
			<point x="201" y="-12"/>
			<point x="141" y="13"/>
			<point x="99" y="56"/>
			<point x="76" y="116"/>
			<point x="76" y="151" type="qcurve"/>
			<point x="76" y="248"/>
			<point x="158" y="374"/>
			<point x="230" y="401" type="qcurve"/>
			<point x="209" y="414"/>
			<point x="183" y="465"/>
			<point x="183" y="497" type="qcurve"/>
			<point x="183" y="548"/>
			<point x="215" y="650"/>
			<point x="236" y="693" type="qcurve"/>
			<point x="315" y="693" type="line"/>
			<point x="295" y="649"/>
			<point x="262" y="553"/>
			<point x="262" y="507" type="qcurve"/>
			<point x="262" y="474"/>
			<point x="295" y="430"/>
			<point x="333" y="430" type="qcurve"/>
			<point x="384" y="430"/>
			<point x="447" y="495"/>
			<point x="465" y="567" type="qcurve"/>
			<point x="473" y="599"/>
			<point x="479" y="661"/>
			<point x="481" y="693" type="qcurve"/>
			<point x="558" y="693" type="line"/>
			<point x="556" y="652"/>
			<point x="550" y="583"/>
		</contour>
		<contour>
			<point x="248" y="60" type="qcurve"/>
			<point x="290" y="60"/>
			<point x="352" y="95"/>
			<point x="391" y="151"/>
			<point x="410" y="222"/>
			<point x="410" y="258" type="qcurve"/>
			<point x="410" y="303"/>
			<point x="365" y="360"/>
			<point x="320" y="360" type="qcurve"/>
			<point x="278" y="360"/>
			<point x="216" y="325"/>
			<point x="177" y="269"/>
			<point x="158" y="198"/>
			<point x="158" y="162" type="qcurve"/>
			<point x="158" y="117"/>
			<point x="203" y="60"/>
		</contour>
	</outline>
</glyph>
<glyph name="uni0230" format="2">
	<unicode hex="0230"/>
	<advance width="500"/>
	<outline>
		<contour>
			<point x="369" y="542" type="qcurve"/>
			<point x="320" y="542"/>
			<point x="243" y="471"/>
			<point x="191" y="363"/>
			<point x="163" y="236"/>
			<point x="163" y="180" type="qcurve"/>
			<point x="163" y="114"/>
			<point x="211" y="58"/>
			<point x="254" y="58" type="qcurve"/>
			<point x="303" y="58"/>
			<point x="379" y="129"/>
			<point x="431" y="237"/>
			<point x="458" y="364"/>
			<point x="458" y="420" type="qcurve"/>
			<point x="458" y="485"/>
			<point x="411" y="542"/>
		</contour>
		<contour>
			<point x="379" y="613" type="qcurve"/>
			<point x="451" y="613"/>
			<point x="541" y="523"/>
			<point x="541" y="426" type="qcurve"/>
			<point x="541" y="390"/>
			<point x="527" y="297"/>
			<point x="497" y="199"/>
			<point x="450" y="105"/>
			<point x="384" y="32"/>
			<point x="298" y="-13"/>
			<point x="244" y="-13" type="qcurve"/>
			<point x="171" y="-13"/>
			<point x="80" y="77"/>
			<point x="80" y="174" type="qcurve"/>
			<point x="80" y="210"/>
			<point x="94" y="303"/>
			<point x="124" y="401"/>
			<point x="172" y="495"/>
			<point x="238" y="568"/>
			<point x="325" y="613"/>
		</contour>
		<contour>
			<point x="402" y="647" type="qcurve"/>
			<point x="383" y="647"/>
			<point x="358" y="670"/>
			<point x="358" y="690" type="qcurve"/>
			<point x="358" y="716"/>
			<point x="391" y="747"/>
			<point x="412" y="747" type="qcurve"/>
			<point x="430" y="747"/>
			<point x="456" y="723"/>
			<point x="456" y="703" type="qcurve"/>
			<point x="456" y="678"/>
			<point x="421" y="647"/>
		</contour>
		<contour>
			<point x="324" y="829" type="line"/>
			<point x="551" y="829" type="line"/>
			<point x="537" y="772" type="line"/>
			<point x="310" y="772" type="line"/>
		</contour>
	</outline>
	<guideline y="647"/>
	<guideline y="772"/>
</glyph>
<glyph name="uni0234" format="2">
	<unicode hex="0234"/>
	<advance width="500"/>
	<outline>
		<contour>
			<point x="179" y="618" type="line"/>
			<point x="196" y="688" type="line"/>
			<point x="413" y="688" type="line"/>
			<point x="263" y="64" type="line"/>
			<point x="282" y="78"/>
			<point x="322" y="88"/>
			<point x="338" y="88" type="qcurve"/>
			<point x="365" y="88"/>
			<point x="402" y="71"/>
			<point x="425" y="43"/>
			<point x="435" y="6"/>
			<point x="435" y="-14" type="qcurve"/>
			<point x="435" y="-45"/>
			<point x="413" y="-100"/>
			<point x="374" y="-141"/>
			<point x="318" y="-165"/>
			<point x="284" y="-165" type="qcurve"/>
			<point x="188" y="-165"/>
			<point x="168" y="-88" type="qcurve"/>
			<point x="83" y="-168" type="line"/>
			<point x="46" y="-126" type="line"/>
			<point x="162" y="-17" type="line"/>
			<point x="162" y="-9"/>
			<point x="169" y="16"/>
			<point x="171" y="24" type="qcurve"/>
			<point x="313" y="618" type="line"/>
		</contour>
		<contour>
			<point x="321" y="28" type="qcurve"/>
			<point x="298" y="28"/>
			<point x="264" y="8"/>
			<point x="245" y="-8" type="qcurve"/>
			<point x="239" y="-30" type="line"/>
			<point x="238" y="-36"/>
			<point x="237" y="-47"/>
			<point x="237" y="-52" type="qcurve"/>
			<point x="237" y="-75"/>
			<point x="262" y="-104"/>
			<point x="288" y="-104" type="qcurve"/>
			<point x="305" y="-104"/>
			<point x="335" y="-91"/>
			<point x="357" y="-68"/>
			<point x="370" y="-37"/>
			<point x="370" y="-19" type="qcurve"/>
			<point x="370" y="2"/>
			<point x="347" y="28"/>
		</contour>
	</outline>
</glyph>
<glyph name="uni0236" format="2">
	<unicode hex="0236"/>
	<advance width="500"/>
	<outline>
		<contour>
			<point x="142" y="395" type="line"/>
			<point x="160" y="464" type="line"/>
			<point x="258" y="464" type="line"/>
			<point x="288" y="594" type="line"/>
			<point x="375" y="608" type="line"/>
			<point x="340" y="464" type="line"/>
			<point x="529" y="464" type="line"/>
			<point x="511" y="395" type="line"/>
			<point x="323" y="395" type="line"/>
			<point x="245" y="64" type="line"/>
			<point x="265" y="78"/>
			<point x="304" y="88"/>
			<point x="321" y="88" type="qcurve"/>
			<point x="347" y="88"/>
			<point x="384" y="71"/>
			<point x="407" y="43"/>
			<point x="417" y="6"/>
			<point x="417" y="-14" type="qcurve"/>
			<point x="417" y="-45"/>
			<point x="395" y="-100"/>
			<point x="356" y="-141"/>
			<point x="300" y="-165"/>
			<point x="266" y="-165" type="qcurve"/>
			<point x="170" y="-165"/>
			<point x="150" y="-88" type="qcurve"/>
			<point x="65" y="-168" type="line"/>
			<point x="28" y="-126" type="line"/>
			<point x="144" y="-17" type="line"/>
			<point x="144" y="-9"/>
			<point x="150" y="16"/>
			<point x="152" y="24" type="qcurve"/>
			<point x="241" y="395" type="line"/>
		</contour>
		<contour>
			<point x="303" y="28" type="qcurve"/>
			<point x="280" y="28"/>
			<point x="246" y="8"/>
			<point x="227" y="-8" type="qcurve"/>
			<point x="221" y="-30" type="line"/>
			<point x="220" y="-36"/>
			<point x="219" y="-47"/>
			<point x="219" y="-52" type="qcurve"/>
			<point x="219" y="-75"/>
			<point x="245" y="-104"/>
			<point x="271" y="-104" type="qcurve"/>
			<point x="288" y="-104"/>
			<point x="317" y="-91"/>
			<point x="339" y="-68"/>
			<point x="352" y="-37"/>
			<point x="352" y="-19" type="qcurve"/>
			<point x="352" y="2"/>
			<point x="329" y="28"/>
		</contour>
	</outline>
</glyph>
<glyph name="uni0239" format="2">
	<unicode hex="0239"/>
	<advance width="500"/>
	<outline>
		<contour>
			<point x="230" y="-165" type="line"/>
			<point x="156" y="-165" type="line"/>
			<point x="196" y="4" type="line"/>
			<point x="180" y="-4"/>
			<point x="152" y="-13"/>
			<point x="137" y="-13" type="qcurve"/>
			<point x="115" y="-13"/>
			<point x="82" y="11"/>
			<point x="59" y="53"/>
			<point x="48" y="110"/>
			<point x="48" y="142" type="qcurve"/>
			<point x="48" y="196"/>
			<point x="77" y="312"/>
			<point x="133" y="410"/>
			<point x="212" y="473"/>
			<point x="262" y="473" type="qcurve"/>
			<point x="280" y="473"/>
			<point x="320" y="463"/>
			<point x="340" y="448" type="qcurve"/>
			<point x="364" y="462"/>
			<point x="410" y="473"/>
			<point x="429" y="473" type="qcurve"/>
			<point x="455" y="473"/>
			<point x="493" y="448"/>
			<point x="518" y="405"/>
			<point x="530" y="346"/>
			<point x="530" y="313" type="qcurve"/>
			<point x="530" y="260"/>
			<point x="500" y="145"/>
			<point x="445" y="49"/>
			<point x="365" y="-13"/>
			<point x="314" y="-13" type="qcurve"/>
			<point x="295" y="-13"/>
			<point x="269" y="-5" type="qcurve"/>
		</contour>
		<contour>
			<point x="293" y="400" type="line"/>
			<point x="273" y="411"/>
			<point x="258" y="411" type="qcurve"/>
			<point x="230" y="411"/>
			<point x="182" y="355"/>
			<point x="146" y="272"/>
			<point x="126" y="175"/>
			<point x="126" y="134" type="qcurve"/>
			<point x="126" y="50"/>
			<point x="169" y="50" type="qcurve"/>
			<point x="186" y="50"/>
			<point x="214" y="71" type="qcurve"/>
		</contour>
		<contour>
			<point x="283" y="57" type="line"/>
			<point x="300" y="50"/>
			<point x="318" y="50" type="qcurve"/>
			<point x="346" y="50"/>
			<point x="395" y="105"/>
			<point x="432" y="188"/>
			<point x="453" y="284"/>
			<point x="453" y="325" type="qcurve"/>
			<point x="453" y="364"/>
			<point x="430" y="411"/>
			<point x="406" y="411" type="qcurve"/>
			<point x="389" y="411"/>
			<point x="366" y="401" type="qcurve"/>
		</contour>
	</outline>
</glyph>
<glyph name="uni0240" format="2">
	<unicode hex="0240"/>
	<advance width="500"/>
	<outline>
		<contour>
			<point x="161" y="60" type="qcurve"/>
			<point x="192" y="49"/>
			<point x="239" y="15"/>
			<point x="266" y="-19" type="qcurve"/>
			<point x="277" y="-33"/>
			<point x="296" y="-59"/>
			<point x="319" y="-79"/>
			<point x="349" y="-91"/>
			<point x="371" y="-91" type="qcurve"/>
			<point x="374" y="-91"/>
			<point x="396" y="-90"/>
			<point x="409" y="-87" type="qcurve"/>
			<point x="401" y="-157" type="line"/>
			<point x="388" y="-162"/>
			<point x="353" y="-165"/>
			<point x="342" y="-165" type="qcurve"/>
			<point x="314" y="-165"/>
			<point x="276" y="-150"/>
			<point x="247" y="-125"/>
			<point x="224" y="-93"/>
			<point x="211" y="-76" type="qcurve"/>
			<point x="199" y="-60"/>
			<point x="175" y="-32"/>
			<point x="145" y="-12"/>
			<point x="107" y="0"/>
			<point x="80" y="0" type="qcurve"/>
			<point x="57" y="0" type="line"/>
			<point x="70" y="54" type="line"/>
			<point x="97" y="93"/>
			<point x="179" y="188"/>
			<point x="268" y="282"/>
			<point x="354" y="366"/>
			<point x="385" y="395" type="qcurve"/>
			<point x="163" y="395" type="line"/>
			<point x="179" y="464" type="line"/>
			<point x="510" y="464" type="line"/>
			<point x="496" y="405" type="line"/>
			<point x="479" y="390"/>
			<point x="426" y="340"/>
			<point x="363" y="279"/>
			<point x="296" y="212"/>
			<point x="233" y="145"/>
			<point x="179" y="84"/>
		</contour>
	</outline>
</glyph>
<glyph name="uni0242" format="2">
	<unicode hex="0242"/>
	<advance width="500"/>
	<outline>
		<contour>
			<point x="179" y="114" type="line"/>
			<point x="193" y="169"/>
			<point x="255" y="233"/>
			<point x="309" y="256" type="qcurve"/>
			<point x="364" y="281"/>
			<point x="410" y="321"/>
			<point x="410" y="354" type="qcurve"/>
			<point x="410" y="380"/>
			<point x="370" y="408"/>
			<point x="321" y="408" type="qcurve"/>
			<point x="299" y="408"/>
			<point x="257" y="401"/>
			<point x="222" y="390"/>
			<point x="195" y="379"/>
			<point x="189" y="376" type="qcurve"/>
			<point x="182" y="446" type="line"/>
			<point x="191" y="451"/>
			<point x="225" y="462"/>
			<point x="267" y="471"/>
			<point x="314" y="476"/>
			<point x="337" y="476" type="qcurve"/>
			<point x="416" y="476"/>
			<point x="491" y="415"/>
			<point x="491" y="358" type="qcurve"/>
			<point x="491" y="330"/>
			<point x="474" y="287"/>
			<point x="439" y="251"/>
			<point x="388" y="219"/>
			<point x="355" y="203" type="qcurve"/>
			<point x="333" y="192"/>
			<point x="301" y="175"/>
			<point x="279" y="154"/>
			<point x="265" y="128"/>
			<point x="261" y="109" type="qcurve"/>
			<point x="236" y="0" type="line"/>
			<point x="154" y="0" type="line"/>
		</contour>
	</outline>
</glyph>
<glyph name="uni0249" format="2">
	<unicode hex="0249"/>
	<advance width="500"/>
	<outline>
		<contour>
			<point x="173" y="395" type="line"/>
			<point x="189" y="464" type="line"/>
			<point x="459" y="464" type="line"/>
			<point x="413" y="277" type="line"/>
			<point x="491" y="277" type="line"/>
			<point x="476" y="214" type="line"/>
			<point x="399" y="214" type="line"/>
			<point x="349" y="6" type="line"/>
			<point x="326" y="-90"/>
			<point x="219" y="-168"/>
			<point x="137" y="-168" type="qcurve"/>
			<point x="61" y="-168"/>
			<point x="3" y="-132" type="qcurve"/>
			<point x="35" y="-63" type="line"/>
			<point x="56" y="-78"/>
			<point x="120" y="-97"/>
			<point x="145" y="-97" type="qcurve"/>
			<point x="197" y="-97"/>
			<point x="253" y="-51"/>
			<point x="267" y="8" type="qcurve"/>
			<point x="317" y="214" type="line"/>
			<point x="129" y="214" type="line"/>
			<point x="145" y="277" type="line"/>
			<point x="332" y="277" type="line"/>
			<point x="361" y="395" type="line"/>
		</contour>
		<contour>
			<point x="410" y="536" type="qcurve"/>
			<point x="384" y="536"/>
			<point x="350" y="566"/>
			<point x="350" y="595" type="qcurve"/>
			<point x="350" y="630"/>
			<point x="394" y="670"/>
			<point x="421" y="670" type="qcurve"/>
			<point x="447" y="670"/>
			<point x="482" y="638"/>
			<point x="482" y="609" type="qcurve"/>
			<point x="482" y="592"/>
			<point x="469" y="566"/>
			<point x="449" y="546"/>
			<point x="423" y="536"/>
		</contour>
	</outline>
</glyph>
<glyph name="uni024F" format="2">
	<unicode hex="024F"/>
	<advance width="500"/>
	<outline>
		<contour>
			<point x="442" y="221" type="line"/>
			<point x="420" y="173"/>
			<point x="368" y="78"/>
			<point x="338" y="34" type="qcurve"/>
			<point x="310" y="-8"/>
			<point x="253" y="-82"/>
			<point x="188" y="-137"/>
			<point x="109" y="-168"/>
			<point x="60" y="-168" type="qcurve"/>
			<point x="35" y="-168"/>
			<point x="-7" y="-156"/>
			<point x="-18" y="-148" type="qcurve"/>
			<point x="11" y="-80" type="line"/>
			<point x="19" y="-88"/>
			<point x="50" y="-97"/>
			<point x="69" y="-97" type="qcurve"/>
			<point x="121" y="-97"/>
			<point x="191" y="-55"/>
			<point x="225" y="-6" type="qcurve"/>
			<point x="208" y="48"/>
			<point x="178" y="161"/>
			<point x="167" y="221" type="qcurve"/>
			<point x="84" y="221" type="line"/>
			<point x="98" y="281" type="line"/>
			<point x="155" y="281" type="line"/>
			<point x="148" y="326"/>
			<point x="138" y="418"/>
			<point x="137" y="464" type="qcurve"/>
			<point x="221" y="464" type="line"/>
			<point x="222" y="425"/>
			<point x="232" y="332"/>
			<point x="240" y="281" type="qcurve"/>
			<point x="388" y="281" type="line"/>
			<point x="411" y="339"/>
			<point x="442" y="435"/>
			<point x="449" y="464" type="qcurve"/>
			<point x="536" y="464" type="line"/>
			<point x="526" y="432"/>
			<point x="492" y="337"/>
			<point x="469" y="281" type="qcurve"/>
			<point x="531" y="281" type="line"/>
			<point x="517" y="221" type="line"/>
		</contour>
		<contour>
			<point x="283" y="75" type="qcurve"/>
			<point x="306" y="110"/>
			<point x="344" y="183"/>
			<point x="361" y="221" type="qcurve"/>
			<point x="250" y="221" type="line"/>
			<point x="258" y="183"/>
			<point x="274" y="110"/>
		</contour>
	</outline>
</glyph>
<glyph name="tilde" format="2">
	<unicode hex="02DC"/>
	<advance width="500"/>
	<outline>
		<contour>
			<point x="377" y="631" type="qcurve"/>
			<point x="391" y="624"/>
			<point x="411" y="615"/>
			<point x="422" y="615" type="qcurve"/>
			<point x="441" y="615"/>
			<point x="466" y="643"/>
			<point x="476" y="658" type="qcurve"/>
			<point x="518" y="632" type="line"/>
			<point x="500" y="595"/>
			<point x="450" y="555"/>
			<point x="411" y="555" type="qcurve"/>
			<point x="393" y="555"/>
			<point x="366" y="566"/>
			<point x="353" y="574" type="qcurve"/>
			<point x="339" y="582"/>
			<point x="318" y="590"/>
			<point x="307" y="590" type="qcurve"/>
			<point x="288" y="590"/>
			<point x="264" y="563"/>
			<point x="254" y="547" type="qcurve"/>
			<point x="212" y="573" type="line"/>
			<point x="230" y="610"/>
			<point x="279" y="651"/>
			<point x="319" y="651" type="qcurve"/>
			<point x="337" y="651"/>
			<point x="364" y="639"/>
		</contour>
	</outline>
</glyph>
<glyph name="breve_inverted" format="2">
	<unicode hex="0311"/>
	<advance width="500"/>
	<outline>
		<contour>
			<point x="375" y="669" type="qcurve"/>
			<point x="402" y="669"/>
			<point x="441" y="653"/>
			<point x="465" y="626"/>
			<point x="477" y="591"/>
			<point x="477" y="572" type="qcurve"/>
			<point x="477" y="558"/>
			<point x="474" y="545" type="qcurve"/>
			<point x="422" y="545" type="line"/>
			<point x="423" y="547"/>
			<point x="423" y="555" type="qcurve"/>
			<point x="423" y="581"/>
			<point x="395" y="611"/>
			<point x="368" y="611" type="qcurve"/>
			<point x="349" y="611"/>
			<point x="322" y="598"/>
			<point x="305" y="578"/>
			<point x="295" y="555"/>
			<point x="292" y="545" type="qcurve"/>
			<point x="237" y="545" type="line"/>
			<point x="245" y="604"/>
			<point x="318" y="669"/>
		</contour>
	</outline>
</glyph>
<glyph name="iotadieresistonos" format="2">
  <advance width="500"/>
  <unicode hex="0390"/>
  <outline>
    <contour>
      <point x="252" y="550" type="curve" smooth="yes"/>
      <point x="279" y="550"/>
      <point x="309" y="573"/>
      <point x="309" y="608" type="curve" smooth="yes"/>
      <point x="309" y="637"/>
      <point x="287" y="655"/>
      <point x="261" y="655" type="curve" smooth="yes"/>
      <point x="234" y="655"/>
      <point x="205" y="631"/>
      <point x="205" y="596" type="curve" smooth="yes"/>
      <point x="205" y="568"/>
      <point x="226" y="550"/>
    </contour>
    <contour>
      <point x="421" y="550" type="curve" smooth="yes"/>
      <point x="449" y="550"/>
      <point x="478" y="573"/>
      <point x="478" y="608" type="curve" smooth="yes"/>
      <point x="478" y="637"/>
      <point x="457" y="655"/>
      <point x="431" y="655" type="curve" smooth="yes"/>
      <point x="403" y="655"/>
      <point x="375" y="631"/>
      <point x="375" y="596" type="curve" smooth="yes"/>
      <point x="375" y="568"/>
      <point x="395" y="550"/>
    </contour>
    <contour>
      <point x="366" y="464" type="line"/>
      <point x="150" y="464" type="line"/>
      <point x="134" y="395" type="line"/>
      <point x="268" y="395" type="line"/>
      <point x="223" y="212" type="line" smooth="yes"/>
      <point x="216" y="181"/>
      <point x="211" y="152"/>
      <point x="211" y="124" type="curve" smooth="yes"/>
      <point x="211" y="53"/>
      <point x="244" y="-3"/>
      <point x="343" y="-3" type="curve" smooth="yes"/>
      <point x="388" y="-3"/>
      <point x="412" y="4"/>
      <point x="421" y="6" type="curve"/>
      <point x="426" y="76" type="line"/>
      <point x="408" y="71"/>
      <point x="386" y="67"/>
      <point x="363" y="67" type="curve" smooth="yes"/>
      <point x="309" y="67"/>
      <point x="293" y="95"/>
      <point x="293" y="132" type="curve" smooth="yes"/>
      <point x="293" y="154"/>
      <point x="298" y="179"/>
      <point x="305" y="205" type="curve" smooth="yes"/>
    </contour>
  </outline>
</glyph>
<glyph name="Lambda" format="2">
	<unicode hex="039B"/>
	<advance width="500"/>
	<outline>
		<contour>
			<point x="-13" y="0" type="line"/>
			<point x="20" y="66"/>
			<point x="100" y="220"/>
			<point x="187" y="382"/>
			<point x="280" y="545"/>
			<point x="327" y="619" type="qcurve"/>
			<point x="425" y="619" type="line"/>
			<point x="436" y="548"/>
			<point x="451" y="386"/>
			<point x="461" y="222"/>
			<point x="467" y="66"/>
			<point x="469" y="0" type="qcurve"/>
			<point x="384" y="0" type="line"/>
			<point x="385" y="82"/>
			<point x="381" y="245"/>
			<point x="373" y="391"/>
			<point x="362" y="510"/>
			<point x="357" y="547" type="qcurve"/>
			<point x="338" y="516"/>
			<point x="268" y="392"/>
			<point x="186" y="239"/>
			<point x="102" y="73"/>
			<point x="70" y="0" type="qcurve"/>
		</contour>
	</outline>
</glyph>
<glyph name="Sigma" format="2">
	<unicode hex="03A3"/>
	<advance width="500"/>
	<outline>
		<contour>
			<point x="32" y="62" type="line"/>
			<point x="54" y="90"/>
			<point x="116" y="155"/>
			<point x="185" y="223"/>
			<point x="258" y="291"/>
			<point x="291" y="322" type="qcurve"/>
			<point x="270" y="361"/>
			<point x="229" y="438"/>
			<point x="195" y="505"/>
			<point x="170" y="557"/>
			<point x="165" y="569" type="qcurve"/>
			<point x="178" y="619" type="line"/>
			<point x="578" y="619" type="line"/>
			<point x="561" y="549" type="line"/>
			<point x="258" y="549" type="line"/>
			<point x="281" y="495"/>
			<point x="347" y="376"/>
			<point x="382" y="313" type="qcurve"/>
			<point x="318" y="253"/>
			<point x="191" y="135"/>
			<point x="129" y="70" type="qcurve"/>
			<point x="446" y="70" type="line"/>
			<point x="429" y="0" type="line"/>
			<point x="18" y="0" type="line"/>
		</contour>
	</outline>
</glyph>
<glyph name="Psi" format="2">
	<unicode hex="03A8"/>
	<advance width="500"/>
	<outline>
		<contour>
			<point x="266" y="0" type="line"/>
			<point x="189" y="0" type="line"/>
			<point x="228" y="158" type="line"/>
			<point x="183" y="158"/>
			<point x="128" y="194"/>
			<point x="102" y="260"/>
			<point x="106" y="353"/>
			<point x="120" y="410" type="qcurve"/>
			<point x="170" y="619" type="line"/>
			<point x="246" y="619" type="line"/>
			<point x="196" y="413" type="line"/>
			<point x="172" y="312"/>
			<point x="191" y="228"/>
			<point x="245" y="228" type="qcurve"/>
			<point x="303" y="475" type="line"/>
			<point x="380" y="475" type="line"/>
			<point x="321" y="228" type="line"/>
			<point x="370" y="228"/>
			<point x="433" y="312"/>
			<point x="457" y="413" type="qcurve"/>
			<point x="507" y="619" type="line"/>
			<point x="584" y="619" type="line"/>
			<point x="534" y="410" type="line"/>
			<point x="520" y="353"/>
			<point x="484" y="260"/>
			<point x="431" y="194"/>
			<point x="357" y="158"/>
			<point x="305" y="158" type="qcurve"/>
		</contour>
	</outline>
	<guideline y="555"/>
</glyph>
<glyph name="upsilon" format="2">
	<unicode hex="03C5"/>
	<advance width="500"/>
	<outline>
		<contour>
			<point x="454" y="197" type="line"/>
			<point x="445" y="159"/>
			<point x="421" y="84"/>
			<point x="374" y="26"/>
			<point x="298" y="-10"/>
			<point x="236" y="-10" type="qcurve"/>
			<point x="194" y="-10"/>
			<point x="137" y="12"/>
			<point x="102" y="51"/>
			<point x="88" y="105"/>
			<point x="88" y="137" type="qcurve"/>
			<point x="88" y="177"/>
			<point x="100" y="227" type="qcurve"/>
			<point x="157" y="464" type="line"/>
			<point x="239" y="464" type="line"/>
			<point x="187" y="245" type="line"/>
			<point x="181" y="224"/>
			<point x="169" y="168"/>
			<point x="169" y="142" type="qcurve"/>
			<point x="169" y="126"/>
			<point x="175" y="97"/>
			<point x="192" y="74"/>
			<point x="220" y="60"/>
			<point x="242" y="60" type="qcurve"/>
			<point x="272" y="60"/>
			<point x="314" y="77"/>
			<point x="344" y="113"/>
			<point x="365" y="169"/>
			<point x="374" y="208" type="qcurve"/>
			<point x="436" y="464" type="line"/>
			<point x="518" y="464" type="line"/>
		</contour>
	</outline>
</glyph>
<glyph name="phi" format="2">
	<unicode hex="03C6"/>
	<advance width="500"/>
	<outline>
		<contour>
			<point x="293" y="67" type="line"/>
			<point x="330" y="68"/>
			<point x="388" y="106"/>
			<point x="427" y="166"/>
			<point x="448" y="241"/>
			<point x="448" y="277" type="qcurve"/>
			<point x="448" y="322"/>
			<point x="413" y="389"/>
			<point x="371" y="397" type="qcurve"/>
		</contour>
		<contour>
			<point x="63" y="190" type="qcurve"/>
			<point x="63" y="259"/>
			<point x="108" y="364"/>
			<point x="185" y="435"/>
			<point x="285" y="472"/>
			<point x="341" y="472" type="qcurve"/>
			<point x="426" y="472"/>
			<point x="529" y="375"/>
			<point x="529" y="274" type="qcurve"/>
			<point x="529" y="221"/>
			<point x="494" y="121"/>
			<point x="428" y="44"/>
			<point x="334" y="-3"/>
			<point x="276" y="-3" type="qcurve"/>
			<point x="237" y="-165" type="line"/>
			<point x="163" y="-165" type="line"/>
			<point x="203" y="-3" type="line"/>
			<point x="163" y="5"/>
			<point x="110" y="38"/>
			<point x="77" y="88"/>
			<point x="63" y="152"/>
		</contour>
		<contour>
			<point x="298" y="397" type="line"/>
			<point x="261" y="397"/>
			<point x="203" y="358"/>
			<point x="164" y="298"/>
			<point x="143" y="224"/>
			<point x="143" y="188" type="qcurve"/>
			<point x="143" y="144"/>
			<point x="179" y="75"/>
			<point x="220" y="67" type="qcurve"/>
		</contour>
	</outline>
	<guideline y="67"/>
	<guideline y="397"/>
</glyph>
<glyph name="afii10051" format="2">
	<unicode hex="0402"/>
	<advance width="500"/>
	<outline>
		<contour>
			<point x="262" y="376" type="line"/>
			<point x="300" y="389"/>
			<point x="340" y="389" type="qcurve"/>
			<point x="379" y="389"/>
			<point x="437" y="364"/>
			<point x="476" y="321"/>
			<point x="496" y="264"/>
			<point x="496" y="232" type="qcurve"/>
			<point x="496" y="191"/>
			<point x="471" y="108"/>
			<point x="419" y="41"/>
			<point x="335" y="-2"/>
			<point x="277" y="-2" type="qcurve"/>
			<point x="264" y="-2"/>
			<point x="238" y="2"/>
			<point x="228" y="4" type="qcurve"/>
			<point x="245" y="68" type="line"/>
			<point x="250" y="66"/>
			<point x="268" y="64"/>
			<point x="281" y="64" type="qcurve"/>
			<point x="315" y="64"/>
			<point x="364" y="89"/>
			<point x="397" y="131"/>
			<point x="413" y="185"/>
			<point x="413" y="214" type="qcurve"/>
			<point x="413" y="265"/>
			<point x="369" y="319"/>
			<point x="321" y="319" type="qcurve"/>
			<point x="302" y="319"/>
			<point x="262" y="312"/>
			<point x="245" y="307" type="qcurve"/>
			<point x="171" y="0" type="line"/>
			<point x="89" y="0" type="line"/>
			<point x="221" y="549" type="line"/>
			<point x="127" y="549" type="line"/>
			<point x="144" y="619" type="line"/>
			<point x="510" y="619" type="line"/>
			<point x="493" y="549" type="line"/>
			<point x="303" y="549" type="line"/>
		</contour>
	</outline>
</glyph>
<glyph name="afii10058" format="2">
	<unicode hex="0409"/>
	<advance width="500"/>
	<outline>
		<contour>
			<point x="442" y="619" type="line"/>
			<point x="388" y="394" type="line"/>
			<point x="394" y="395"/>
			<point x="406" y="396"/>
			<point x="411" y="396" type="qcurve"/>
			<point x="472" y="396"/>
			<point x="519" y="322"/>
			<point x="519" y="260" type="qcurve"/>
			<point x="519" y="205"/>
			<point x="495" y="109"/>
			<point x="445" y="37"/>
			<point x="370" y="-4"/>
			<point x="319" y="-4" type="qcurve"/>
			<point x="297" y="-4"/>
			<point x="249" y="3"/>
			<point x="223" y="12" type="qcurve"/>
			<point x="352" y="549" type="line"/>
			<point x="292" y="549" type="line"/>
			<point x="270" y="447"/>
			<point x="220" y="258"/>
			<point x="190" y="177" type="qcurve"/>
			<point x="176" y="139"/>
			<point x="144" y="76"/>
			<point x="103" y="28"/>
			<point x="53" y="-3"/>
			<point x="20" y="-7" type="qcurve"/>
			<point x="12" y="61" type="line"/>
			<point x="46" y="69"/>
			<point x="100" y="132"/>
			<point x="125" y="198" type="qcurve"/>
			<point x="138" y="234"/>
			<point x="168" y="330"/>
			<point x="196" y="440"/>
			<point x="224" y="560"/>
			<point x="236" y="619" type="qcurve"/>
		</contour>
		<contour>
			<point x="308" y="63" type="line"/>
			<point x="321" y="60"/>
			<point x="334" y="60" type="qcurve"/>
			<point x="367" y="60"/>
			<point x="410" y="97"/>
			<point x="435" y="154"/>
			<point x="446" y="221"/>
			<point x="446" y="250" type="qcurve"/>
			<point x="446" y="298"/>
			<point x="421" y="330"/>
			<point x="394" y="330" type="qcurve"/>
			<point x="389" y="330"/>
			<point x="378" y="329"/>
			<point x="371" y="327" type="qcurve"/>
		</contour>
	</outline>
</glyph>
<glyph name="afii10059" format="2">
	<unicode hex="040A"/>
	<advance width="500"/>
	<outline>
		<contour>
			<point x="387" y="389" type="line"/>
			<point x="393" y="390"/>
			<point x="405" y="391"/>
			<point x="410" y="391" type="qcurve"/>
			<point x="440" y="391"/>
			<point x="482" y="372"/>
			<point x="508" y="337"/>
			<point x="519" y="289"/>
			<point x="519" y="260" type="qcurve"/>
			<point x="519" y="205"/>
			<point x="495" y="109"/>
			<point x="445" y="37"/>
			<point x="370" y="-4"/>
			<point x="319" y="-4" type="qcurve"/>
			<point x="297" y="-4"/>
			<point x="249" y="3"/>
			<point x="223" y="12" type="qcurve"/>
			<point x="295" y="310" type="line"/>
			<point x="172" y="310" type="line"/>
			<point x="97" y="0" type="line"/>
			<point x="25" y="0" type="line"/>
			<point x="173" y="619" type="line"/>
			<point x="246" y="619" type="line"/>
			<point x="189" y="380" type="line"/>
			<point x="311" y="380" type="line"/>
			<point x="369" y="619" type="line"/>
			<point x="442" y="619" type="line"/>
		</contour>
		<contour>
			<point x="308" y="63" type="line"/>
			<point x="321" y="60"/>
			<point x="334" y="60" type="qcurve"/>
			<point x="367" y="60"/>
			<point x="410" y="97"/>
			<point x="435" y="152"/>
			<point x="446" y="214"/>
			<point x="446" y="240" type="qcurve"/>
			<point x="446" y="266"/>
			<point x="439" y="298"/>
			<point x="426" y="315"/>
			<point x="405" y="321"/>
			<point x="392" y="321" type="qcurve"/>
			<point x="387" y="321"/>
			<point x="376" y="320"/>
			<point x="370" y="318" type="qcurve"/>
		</contour>
	</outline>
	<guideline y="380"/>
</glyph>
<glyph name="afii10145" format="2">
	<unicode hex="040F"/>
	<advance width="500"/>
	<outline>
		<contour>
			<point x="265" y="619" type="line"/>
			<point x="133" y="70" type="line"/>
			<point x="363" y="70" type="line"/>
			<point x="495" y="619" type="line"/>
			<point x="577" y="619" type="line"/>
			<point x="429" y="0" type="line"/>
			<point x="270" y="0" type="line"/>
			<point x="230" y="-165" type="line"/>
			<point x="152" y="-165" type="line"/>
			<point x="191" y="0" type="line"/>
			<point x="36" y="0" type="line"/>
			<point x="183" y="619" type="line"/>
		</contour>
	</outline>
	<guideline x="244"/>
</glyph>
<glyph name="afii10025" format="2">
	<unicode hex="0417"/>
	<advance width="500"/>
	<outline>
		<contour>
			<point x="197" y="362" type="line"/>
			<point x="243" y="362" type="line"/>
			<point x="273" y="362"/>
			<point x="341" y="373"/>
			<point x="400" y="401"/>
			<point x="439" y="450"/>
			<point x="439" y="488" type="qcurve"/>
			<point x="439" y="520"/>
			<point x="385" y="560"/>
			<point x="338" y="560" type="qcurve"/>
			<point x="286" y="560"/>
			<point x="209" y="536"/>
			<point x="182" y="522" type="qcurve"/>
			<point x="171" y="588" type="line"/>
			<point x="204" y="604"/>
			<point x="299" y="630"/>
			<point x="355" y="630" type="qcurve"/>
			<point x="432" y="630"/>
			<point x="525" y="561"/>
			<point x="525" y="500" type="qcurve"/>
			<point x="525" y="448"/>
			<point x="457" y="353"/>
			<point x="388" y="329" type="qcurve"/>
			<point x="427" y="314"/>
			<point x="481" y="250"/>
			<point x="481" y="204" type="qcurve"/>
			<point x="481" y="147"/>
			<point x="436" y="65"/>
			<point x="362" y="12"/>
			<point x="267" y="-12"/>
			<point x="216" y="-12" type="qcurve"/>
			<point x="163" y="-12"/>
			<point x="75" y="5"/>
			<point x="27" y="34" type="qcurve"/>
			<point x="67" y="100" type="line"/>
			<point x="99" y="78"/>
			<point x="174" y="58"/>
			<point x="218" y="58" type="qcurve"/>
			<point x="253" y="58"/>
			<point x="318" y="74"/>
			<point x="367" y="107"/>
			<point x="397" y="160"/>
			<point x="397" y="196" type="qcurve"/>
			<point x="397" y="223"/>
			<point x="372" y="260"/>
			<point x="328" y="282"/>
			<point x="266" y="292"/>
			<point x="230" y="292" type="qcurve"/>
			<point x="180" y="292" type="line"/>
		</contour>
	</outline>
	<guideline y="58"/>
</glyph>
<glyph name="afii10026" format="2">
	<unicode hex="0418"/>
	<advance width="500"/>
	<outline>
		<contour>
			<point x="40" y="0" type="line"/>
			<point x="189" y="619" type="line"/>
			<point x="264" y="619" type="line"/>
			<point x="145" y="134" type="line"/>
			<point x="192" y="207"/>
			<point x="269" y="321"/>
			<point x="347" y="429"/>
			<point x="436" y="544"/>
			<point x="495" y="619" type="qcurve"/>
			<point x="579" y="619" type="line"/>
			<point x="430" y="0" type="line"/>
			<point x="355" y="0" type="line"/>
			<point x="477" y="503" type="line"/>
			<point x="437" y="450"/>
			<point x="357" y="342"/>
			<point x="272" y="221"/>
			<point x="178" y="83"/>
			<point x="124" y="0" type="qcurve"/>
		</contour>
	</outline>
</glyph>
<glyph name="afii10044" format="2">
	<unicode hex="042A"/>
	<advance width="500"/>
	<outline>
		<contour>
			<point x="323" y="396" type="qcurve"/>
			<point x="360" y="396"/>
			<point x="423" y="380"/>
			<point x="469" y="343"/>
			<point x="495" y="284"/>
			<point x="495" y="242" type="qcurve"/>
			<point x="495" y="192"/>
			<point x="466" y="102"/>
			<point x="402" y="34"/>
			<point x="300" y="-6"/>
			<point x="228" y="-6" type="qcurve"/>
			<point x="197" y="-6"/>
			<point x="130" y="1"/>
			<point x="98" y="9" type="qcurve"/>
			<point x="228" y="549" type="line"/>
			<point x="134" y="549" type="line"/>
			<point x="151" y="619" type="line"/>
			<point x="327" y="619" type="line"/>
			<point x="272" y="394" type="line"/>
			<point x="285" y="396"/>
			<point x="311" y="396"/>
		</contour>
		<contour>
			<point x="242" y="63" type="qcurve"/>
			<point x="328" y="63"/>
			<point x="409" y="152"/>
			<point x="409" y="231" type="qcurve"/>
			<point x="409" y="279"/>
			<point x="359" y="327"/>
			<point x="305" y="327" type="qcurve"/>
			<point x="293" y="327"/>
			<point x="265" y="325"/>
			<point x="255" y="323" type="qcurve"/>
			<point x="194" y="67" type="line"/>
			<point x="206" y="65"/>
			<point x="230" y="63"/>
		</contour>
	</outline>
	<guideline y="733"/>
</glyph>
<glyph name="afii10048" format="2">
	<unicode hex="042E"/>
	<advance width="500"/>
	<outline>
		<contour>
			<point x="216" y="143" type="qcurve"/>
			<point x="216" y="206"/>
			<point x="230" y="288" type="qcurve"/>
			<point x="173" y="288" type="line"/>
			<point x="105" y="0" type="line"/>
			<point x="27" y="0" type="line"/>
			<point x="174" y="619" type="line"/>
			<point x="253" y="619" type="line"/>
			<point x="189" y="358" type="line"/>
			<point x="244" y="358" type="line"/>
			<point x="257" y="410"/>
			<point x="295" y="510"/>
			<point x="348" y="586"/>
			<point x="416" y="633"/>
			<point x="458" y="633" type="qcurve"/>
			<point x="479" y="633"/>
			<point x="516" y="619"/>
			<point x="543" y="583"/>
			<point x="559" y="524"/>
			<point x="559" y="479" type="qcurve"/>
			<point x="559" y="438"/>
			<point x="547" y="333"/>
			<point x="523" y="224"/>
			<point x="484" y="119"/>
			<point x="430" y="38"/>
			<point x="360" y="-12"/>
			<point x="317" y="-12" type="qcurve"/>
			<point x="296" y="-12"/>
			<point x="259" y="2"/>
			<point x="232" y="38"/>
			<point x="216" y="98"/>
		</contour>
		<contour>
			<point x="446" y="563" type="qcurve"/>
			<point x="425" y="563"/>
			<point x="386" y="522"/>
			<point x="352" y="453"/>
			<point x="324" y="363"/>
			<point x="304" y="267"/>
			<point x="293" y="172"/>
			<point x="293" y="132" type="qcurve"/>
			<point x="293" y="58"/>
			<point x="330" y="58" type="qcurve"/>
			<point x="351" y="58"/>
			<point x="389" y="100"/>
			<point x="423" y="169"/>
			<point x="451" y="258"/>
			<point x="471" y="354"/>
			<point x="482" y="449"/>
			<point x="482" y="489" type="qcurve"/>
			<point x="482" y="563"/>
		</contour>
	</outline>
	<guideline x="555"/>
	<guideline y="633"/>
	<guideline y="766"/>
</glyph>
<glyph name="afii10066" format="2">
	<unicode hex="0431"/>
	<advance width="500"/>
	<outline>
		<contour>
			<point x="352" y="457" type="qcurve"/>
			<point x="391" y="457"/>
			<point x="446" y="432"/>
			<point x="482" y="389"/>
			<point x="499" y="331"/>
			<point x="499" y="297" type="qcurve"/>
			<point x="499" y="235"/>
			<point x="468" y="123"/>
			<point x="404" y="38"/>
			<point x="307" y="-12"/>
			<point x="241" y="-12" type="qcurve"/>
			<point x="166" y="-12"/>
			<point x="91" y="85"/>
			<point x="91" y="163" type="qcurve"/>
			<point x="91" y="223"/>
			<point x="121" y="350"/>
			<point x="142" y="412" type="qcurve"/>
			<point x="161" y="469"/>
			<point x="214" y="561"/>
			<point x="291" y="628"/>
			<point x="394" y="669"/>
			<point x="462" y="676" type="qcurve"/>
			<point x="487" y="679"/>
			<point x="520" y="683"/>
			<point x="543" y="688"/>
			<point x="559" y="691"/>
			<point x="567" y="693" type="qcurve"/>
			<point x="563" y="618" type="line"/>
			<point x="552" y="613"/>
			<point x="507" y="607"/>
			<point x="462" y="602" type="qcurve"/>
			<point x="410" y="597"/>
			<point x="335" y="566"/>
			<point x="281" y="518"/>
			<point x="243" y="457"/>
			<point x="230" y="421" type="qcurve"/>
			<point x="255" y="438"/>
			<point x="323" y="457"/>
		</contour>
		<contour>
			<point x="205" y="340" type="qcurve"/>
			<point x="188" y="286"/>
			<point x="174" y="203"/>
			<point x="174" y="173" type="qcurve"/>
			<point x="174" y="115"/>
			<point x="212" y="60"/>
			<point x="255" y="60" type="qcurve"/>
			<point x="294" y="60"/>
			<point x="354" y="101"/>
			<point x="395" y="167"/>
			<point x="416" y="248"/>
			<point x="416" y="288" type="qcurve"/>
			<point x="416" y="306"/>
			<point x="410" y="341"/>
			<point x="391" y="369"/>
			<point x="358" y="386"/>
			<point x="331" y="386" type="qcurve"/>
			<point x="293" y="386"/>
			<point x="229" y="358"/>
		</contour>
	</outline>
</glyph>
<glyph name="afii10069" format="2">
	<unicode hex="0434"/>
	<advance width="500"/>
	<outline>
		<contour>
			<point x="260" y="623" type="qcurve"/>
			<point x="228" y="623"/>
			<point x="194" y="613"/>
			<point x="186" y="610" type="qcurve"/>
			<point x="179" y="680" type="line"/>
			<point x="186" y="682"/>
			<point x="235" y="693"/>
			<point x="273" y="693" type="qcurve"/>
			<point x="383" y="693"/>
			<point x="503" y="554"/>
			<point x="503" y="411" type="qcurve"/>
			<point x="503" y="380"/>
			<point x="497" y="294"/>
			<point x="477" y="200"/>
			<point x="441" y="107"/>
			<point x="383" y="34"/>
			<point x="298" y="-12"/>
			<point x="239" y="-12" type="qcurve"/>
			<point x="167" y="-12"/>
			<point x="87" y="78"/>
			<point x="87" y="150" type="qcurve"/>
			<point x="87" y="202"/>
			<point x="113" y="312"/>
			<point x="171" y="402"/>
			<point x="265" y="459"/>
			<point x="333" y="459" type="qcurve"/>
			<point x="356" y="459"/>
			<point x="403" y="447"/>
			<point x="421" y="439" type="qcurve"/>
			<point x="419" y="467"/>
			<point x="409" y="531"/>
			<point x="376" y="586"/>
			<point x="313" y="623"/>
		</contour>
		<contour>
			<point x="251" y="58" type="qcurve"/>
			<point x="296" y="58"/>
			<point x="360" y="122"/>
			<point x="401" y="216"/>
			<point x="420" y="324"/>
			<point x="420" y="369" type="qcurve"/>
			<point x="408" y="376"/>
			<point x="366" y="389"/>
			<point x="331" y="389" type="qcurve"/>
			<point x="288" y="389"/>
			<point x="227" y="347"/>
			<point x="188" y="280"/>
			<point x="169" y="198"/>
			<point x="169" y="158" type="qcurve"/>
			<point x="169" y="110"/>
			<point x="205" y="58"/>
		</contour>
	</outline>
</glyph>
<glyph name="afii10077" format="2">
  <advance width="500"/>
  <unicode hex="043B"/>
  <outline>
    <contour>
      <point x="421" y="395" type="line"/>
      <point x="327" y="0" type="line"/>
      <point x="409" y="0" type="line"/>
      <point x="521" y="464" type="line"/>
      <point x="249" y="464" type="line"/>
      <point x="225" y="365"/>
      <point x="196" y="232"/>
      <point x="142" y="153" type="curve" smooth="yes"/>
      <point x="111" y="106"/>
      <point x="71" y="72"/>
      <point x="11" y="61" type="curve"/>
      <point x="5" y="-9" type="line"/>
      <point x="108" y="1"/>
      <point x="173" y="63"/>
      <point x="217" y="138" type="curve" smooth="yes"/>
      <point x="262" y="213"/>
      <point x="292" y="315"/>
      <point x="311" y="395" type="curve"/>
    </contour>
  </outline>
</glyph>
<glyph name="afii10088" format="2">
	<unicode hex="0446"/>
	<advance width="500"/>
	<outline>
		<contour>
			<point x="217" y="-10" type="qcurve"/>
			<point x="178" y="-10"/>
			<point x="125" y="13"/>
			<point x="93" y="52"/>
			<point x="79" y="105"/>
			<point x="79" y="135" type="qcurve"/>
			<point x="79" y="158"/>
			<point x="87" y="204"/>
			<point x="92" y="227" type="qcurve"/>
			<point x="149" y="464" type="line"/>
			<point x="231" y="464" type="line"/>
			<point x="179" y="245" type="line"/>
			<point x="174" y="224"/>
			<point x="161" y="169"/>
			<point x="161" y="141" type="qcurve"/>
			<point x="161" y="125"/>
			<point x="167" y="96"/>
			<point x="183" y="73"/>
			<point x="211" y="60"/>
			<point x="233" y="60" type="qcurve"/>
			<point x="265" y="60"/>
			<point x="312" y="89"/>
			<point x="329" y="112" type="qcurve"/>
			<point x="330" y="143"/>
			<point x="338" y="178" type="qcurve"/>
			<point x="407" y="464" type="line"/>
			<point x="489" y="464" type="line"/>
			<point x="421" y="182" type="line"/>
			<point x="416" y="162"/>
			<point x="410" y="125"/>
			<point x="416" y="94"/>
			<point x="441" y="73"/>
			<point x="468" y="70" type="qcurve"/>
			<point x="421" y="-129" type="line"/>
			<point x="342" y="-129" type="line"/>
			<point x="374" y="9" type="line"/>
			<point x="358" y="18"/>
			<point x="348" y="46" type="qcurve"/>
			<point x="341" y="38"/>
			<point x="318" y="18"/>
			<point x="285" y="1"/>
			<point x="242" y="-10"/>
		</contour>
	</outline>
	<guideline y="68"/>
</glyph>
<glyph name="afii10089" format="2">
	<unicode hex="0447"/>
	<advance width="500"/>
	<outline>
		<contour>
			<point x="228" y="464" type="line"/>
			<point x="195" y="328" type="line"/>
			<point x="182" y="274"/>
			<point x="218" y="231"/>
			<point x="268" y="231" type="qcurve"/>
			<point x="304" y="231"/>
			<point x="366" y="238"/>
			<point x="386" y="243" type="qcurve"/>
			<point x="438" y="464" type="line"/>
			<point x="521" y="464" type="line"/>
			<point x="409" y="0" type="line"/>
			<point x="327" y="0" type="line"/>
			<point x="370" y="179" type="line"/>
			<point x="362" y="177"/>
			<point x="336" y="172"/>
			<point x="304" y="168"/>
			<point x="269" y="164"/>
			<point x="253" y="164" type="qcurve"/>
			<point x="215" y="164"/>
			<point x="153" y="180"/>
			<point x="114" y="218"/>
			<point x="102" y="281"/>
			<point x="113" y="327" type="qcurve"/>
			<point x="146" y="464" type="line"/>
		</contour>
	</outline>
</glyph>
<glyph name="afii10094" format="2">
	<unicode hex="044C"/>
	<advance width="500"/>
	<outline>
		<contour>
			<point x="311" y="297" type="qcurve"/>
			<point x="392" y="297"/>
			<point x="480" y="237"/>
			<point x="480" y="171" type="qcurve"/>
			<point x="480" y="121"/>
			<point x="442" y="53"/>
			<point x="376" y="9"/>
			<point x="289" y="-10"/>
			<point x="240" y="-10" type="qcurve"/>
			<point x="192" y="-10"/>
			<point x="107" y="0"/>
			<point x="72" y="13" type="qcurve"/>
			<point x="180" y="464" type="line"/>
			<point x="263" y="464" type="line"/>
			<point x="220" y="287" type="line"/>
			<point x="237" y="292"/>
			<point x="288" y="297"/>
		</contour>
		<contour>
			<point x="166" y="62" type="line"/>
			<point x="180" y="60"/>
			<point x="215" y="56"/>
			<point x="247" y="56" type="qcurve"/>
			<point x="316" y="56"/>
			<point x="400" y="109"/>
			<point x="400" y="163" type="qcurve"/>
			<point x="400" y="197"/>
			<point x="348" y="231"/>
			<point x="288" y="231" type="qcurve"/>
			<point x="241" y="231"/>
			<point x="204" y="223" type="qcurve"/>
		</contour>
	</outline>
</glyph>
<glyph name="afii10095" format="2">
	<unicode hex="044D"/>
	<advance width="500"/>
	<outline>
		<contour>
			<point x="413" y="272" type="line"/>
			<point x="413" y="284" type="line"/>
			<point x="413" y="311"/>
			<point x="400" y="355"/>
			<point x="369" y="386"/>
			<point x="319" y="404"/>
			<point x="282" y="404" type="qcurve"/>
			<point x="265" y="404"/>
			<point x="231" y="399"/>
			<point x="200" y="392"/>
			<point x="175" y="383"/>
			<point x="169" y="380" type="qcurve"/>
			<point x="163" y="451" type="line"/>
			<point x="175" y="456"/>
			<point x="250" y="476"/>
			<point x="300" y="476" type="qcurve"/>
			<point x="353" y="476"/>
			<point x="427" y="445"/>
			<point x="474" y="394"/>
			<point x="496" y="329"/>
			<point x="496" y="296" type="qcurve"/>
			<point x="496" y="234"/>
			<point x="463" y="122"/>
			<point x="391" y="38"/>
			<point x="278" y="-12"/>
			<point x="199" y="-12" type="qcurve"/>
			<point x="154" y="-12"/>
			<point x="89" y="2"/>
			<point x="68" y="13" type="qcurve"/>
			<point x="94" y="84" type="line"/>
			<point x="109" y="76"/>
			<point x="162" y="61"/>
			<point x="205" y="61" type="qcurve"/>
			<point x="289" y="61"/>
			<point x="388" y="143"/>
			<point x="405" y="205" type="qcurve"/>
			<point x="184" y="205" type="line"/>
			<point x="200" y="272" type="line"/>
		</contour>
	</outline>
	<guideline y="61"/>
	<guideline y="404"/>
</glyph>
<glyph name="uni045D" format="2">
  <advance width="500"/>
  <unicode hex="045D"/>
  <outline>
    <contour>
      <point x="244" y="640" type="line"/>
      <point x="374" y="509" type="line"/>
      <point x="418" y="548" type="line"/>
      <point x="304" y="691" type="line"/>
    </contour>
  </outline>
</glyph>
<glyph name="afii10193" format="2">
	<unicode hex="045F"/>
	<advance width="500"/>
	<outline>
		<contour>
			<point x="278" y="-38" type="line"/>
			<point x="241" y="-165" type="line"/>
			<point x="163" y="-165" type="line"/>
			<point x="199" y="-38" type="line"/>
		</contour>
		<contour>
			<point x="222" y="-10" type="qcurve"/>
			<point x="183" y="-10"/>
			<point x="131" y="13"/>
			<point x="98" y="52"/>
			<point x="84" y="105"/>
			<point x="84" y="135" type="qcurve"/>
			<point x="84" y="158"/>
			<point x="92" y="204"/>
			<point x="97" y="227" type="qcurve"/>
			<point x="154" y="464" type="line"/>
			<point x="237" y="464" type="line"/>
			<point x="184" y="245" type="line"/>
			<point x="179" y="224"/>
			<point x="166" y="169"/>
			<point x="166" y="141" type="qcurve"/>
			<point x="166" y="125"/>
			<point x="172" y="96"/>
			<point x="188" y="73"/>
			<point x="216" y="60"/>
			<point x="238" y="60" type="qcurve"/>
			<point x="276" y="60"/>
			<point x="336" y="93"/>
			<point x="355" y="115" type="qcurve"/>
			<point x="356" y="129"/>
			<point x="359" y="160"/>
			<point x="364" y="178" type="qcurve"/>
			<point x="433" y="464" type="line"/>
			<point x="515" y="464" type="line"/>
			<point x="445" y="171" type="line"/>
			<point x="440" y="150"/>
			<point x="434" y="112"/>
			<point x="434" y="91" type="qcurve"/>
			<point x="434" y="70"/>
			<point x="441" y="30"/>
			<point x="450" y="5" type="qcurve"/>
			<point x="377" y="-5" type="line"/>
			<point x="372" y="5"/>
			<point x="363" y="30"/>
			<point x="361" y="44" type="qcurve"/>
			<point x="341" y="26"/>
			<point x="273" y="-10"/>
		</contour>
	</outline>
	<guideline x="241"/>
</glyph>
<glyph name="uni0463" format="2">
	<unicode hex="0463"/>
	<advance width="500"/>
	<outline>
		<contour>
			<point x="257" y="241" type="line"/>
			<point x="266" y="276"/>
			<point x="278" y="333"/>
			<point x="278" y="354" type="qcurve"/>
			<point x="278" y="384"/>
			<point x="248" y="407"/>
			<point x="226" y="407" type="qcurve"/>
			<point x="216" y="407"/>
			<point x="194" y="404"/>
			<point x="183" y="400" type="qcurve"/>
			<point x="87" y="0" type="line"/>
			<point x="9" y="0" type="line"/>
			<point x="118" y="452" type="line"/>
			<point x="149" y="460"/>
			<point x="213" y="474"/>
			<point x="242" y="474" type="qcurve"/>
			<point x="266" y="474"/>
			<point x="306" y="463"/>
			<point x="336" y="435"/>
			<point x="353" y="388"/>
			<point x="353" y="352" type="qcurve"/>
			<point x="353" y="337"/>
			<point x="349" y="305"/>
			<point x="345" y="287" type="qcurve"/>
			<point x="372" y="296"/>
			<point x="400" y="296" type="qcurve"/>
			<point x="449" y="296"/>
			<point x="515" y="229"/>
			<point x="515" y="165" type="qcurve"/>
			<point x="515" y="130"/>
			<point x="493" y="67"/>
			<point x="448" y="19"/>
			<point x="381" y="-10"/>
			<point x="335" y="-10" type="qcurve"/>
			<point x="298" y="-10"/>
			<point x="231" y="0"/>
			<point x="202" y="13" type="qcurve"/>
		</contour>
		<contour>
			<point x="342" y="56" type="qcurve"/>
			<point x="390" y="56"/>
			<point x="437" y="117"/>
			<point x="437" y="160" type="qcurve"/>
			<point x="437" y="200"/>
			<point x="403" y="231"/>
			<point x="377" y="231" type="qcurve"/>
			<point x="356" y="231"/>
			<point x="330" y="223" type="qcurve"/>
			<point x="291" y="62" type="line"/>
			<point x="299" y="60"/>
			<point x="322" y="56"/>
		</contour>
	</outline>
</glyph>
<glyph name="uni0473" format="2">
	<unicode hex="0473"/>
	<advance width="500"/>
	<outline>
		<contour>
			<point x="237" y="-12" type="qcurve"/>
			<point x="163" y="-12"/>
			<point x="80" y="75"/>
			<point x="80" y="151" type="qcurve"/>
			<point x="80" y="203"/>
			<point x="109" y="317"/>
			<point x="174" y="413"/>
			<point x="276" y="476"/>
			<point x="348" y="476" type="qcurve"/>
			<point x="422" y="476"/>
			<point x="505" y="389"/>
			<point x="505" y="313" type="qcurve"/>
			<point x="505" y="261"/>
			<point x="476" y="147"/>
			<point x="411" y="51"/>
			<point x="309" y="-12"/>
		</contour>
		<contour>
			<point x="405" y="201" type="qcurve"/>
			<point x="393" y="193"/>
			<point x="366" y="185"/>
			<point x="349" y="185" type="qcurve"/>
			<point x="329" y="185"/>
			<point x="302" y="199"/>
			<point x="277" y="217"/>
			<point x="251" y="231"/>
			<point x="234" y="231" type="qcurve"/>
			<point x="216" y="231"/>
			<point x="178" y="212"/>
			<point x="165" y="201" type="qcurve"/>
			<point x="163" y="190"/>
			<point x="163" y="167"/>
			<point x="163" y="158" type="qcurve"/>
			<point x="163" y="113"/>
			<point x="203" y="59"/>
			<point x="251" y="59" type="qcurve"/>
			<point x="279" y="59"/>
			<point x="326" y="82"/>
			<point x="365" y="121"/>
			<point x="395" y="172"/>
		</contour>
		<contour>
			<point x="421" y="306" type="qcurve"/>
			<point x="421" y="351"/>
			<point x="382" y="405"/>
			<point x="334" y="405" type="qcurve"/>
			<point x="306" y="405"/>
			<point x="258" y="382"/>
			<point x="219" y="343"/>
			<point x="190" y="291"/>
			<point x="180" y="263" type="qcurve"/>
			<point x="194" y="274"/>
			<point x="226" y="288"/>
			<point x="246" y="288" type="qcurve"/>
			<point x="265" y="288"/>
			<point x="293" y="273"/>
			<point x="319" y="256"/>
			<point x="345" y="241"/>
			<point x="363" y="241" type="qcurve"/>
			<point x="378" y="241"/>
			<point x="408" y="254"/>
			<point x="419" y="263" type="qcurve"/>
			<point x="421" y="274"/>
			<point x="421" y="295"/>
		</contour>
	</outline>
</glyph>
<glyph name="uni048C" format="2">
	<unicode hex="048C"/>
	<advance width="500"/>
	<outline>
		<contour>
			<point x="305" y="396" type="qcurve"/>
			<point x="342" y="396"/>
			<point x="405" y="380"/>
			<point x="451" y="343"/>
			<point x="477" y="284"/>
			<point x="477" y="242" type="qcurve"/>
			<point x="477" y="192"/>
			<point x="448" y="102"/>
			<point x="384" y="34"/>
			<point x="282" y="-6"/>
			<point x="210" y="-6" type="qcurve"/>
			<point x="179" y="-6"/>
			<point x="112" y="1"/>
			<point x="80" y="9" type="qcurve"/>
			<point x="195" y="485" type="line"/>
			<point x="123" y="485" type="line"/>
			<point x="139" y="553" type="line"/>
			<point x="211" y="553" type="line"/>
			<point x="227" y="619" type="line"/>
			<point x="309" y="619" type="line"/>
			<point x="293" y="553" type="line"/>
			<point x="407" y="553" type="line"/>
			<point x="391" y="485" type="line"/>
			<point x="276" y="485" type="line"/>
			<point x="255" y="394" type="line"/>
			<point x="267" y="396"/>
			<point x="293" y="396"/>
		</contour>
		<contour>
			<point x="224" y="63" type="qcurve"/>
			<point x="310" y="63"/>
			<point x="391" y="152"/>
			<point x="391" y="231" type="qcurve"/>
			<point x="391" y="279"/>
			<point x="341" y="327"/>
			<point x="287" y="327" type="qcurve"/>
			<point x="275" y="327"/>
			<point x="247" y="325"/>
			<point x="238" y="323" type="qcurve"/>
			<point x="176" y="67" type="line"/>
			<point x="188" y="65"/>
			<point x="212" y="63"/>
		</contour>
	</outline>
</glyph>
<glyph name="uni048D" format="2">
	<unicode hex="048D"/>
	<advance width="500"/>
	<outline>
		<contour>
			<point x="302" y="297" type="qcurve"/>
			<point x="383" y="297"/>
			<point x="472" y="237"/>
			<point x="472" y="171" type="qcurve"/>
			<point x="472" y="121"/>
			<point x="433" y="53"/>
			<point x="367" y="9"/>
			<point x="280" y="-10"/>
			<point x="231" y="-10" type="qcurve"/>
			<point x="183" y="-10"/>
			<point x="102" y="0"/>
			<point x="68" y="13" type="qcurve"/>
			<point x="155" y="377" type="line"/>
			<point x="83" y="377" type="line"/>
			<point x="97" y="435" type="line"/>
			<point x="169" y="435" type="line"/>
			<point x="184" y="497" type="line"/>
			<point x="266" y="497" type="line"/>
			<point x="251" y="435" type="line"/>
			<point x="381" y="435" type="line"/>
			<point x="367" y="377" type="line"/>
			<point x="237" y="377" type="line"/>
			<point x="215" y="287" type="line"/>
			<point x="232" y="292"/>
			<point x="279" y="297"/>
		</contour>
		<contour>
			<point x="162" y="62" type="line"/>
			<point x="175" y="60"/>
			<point x="206" y="56"/>
			<point x="238" y="56" type="qcurve"/>
			<point x="307" y="56"/>
			<point x="391" y="109"/>
			<point x="391" y="163" type="qcurve"/>
			<point x="391" y="197"/>
			<point x="339" y="231"/>
			<point x="279" y="231" type="qcurve"/>
			<point x="254" y="231"/>
			<point x="217" y="227"/>
			<point x="200" y="223" type="qcurve"/>
		</contour>
	</outline>
</glyph>
<glyph name="uni048E" format="2">
	<unicode hex="048E"/>
	<advance width="500"/>
	<outline>
		<contour>
			<point x="357" y="625" type="qcurve"/>
			<point x="439" y="625"/>
			<point x="541" y="548"/>
			<point x="541" y="472" type="qcurve"/>
			<point x="541" y="397"/>
			<point x="467" y="287"/>
			<point x="401" y="258" type="qcurve"/>
			<point x="437" y="154" type="line"/>
			<point x="385" y="129" type="line"/>
			<point x="347" y="240" type="line"/>
			<point x="308" y="231"/>
			<point x="263" y="231" type="qcurve"/>
			<point x="191" y="231" type="line"/>
			<point x="135" y="0" type="line"/>
			<point x="54" y="0" type="line"/>
			<point x="199" y="610" type="line"/>
			<point x="212" y="613"/>
			<point x="252" y="618"/>
			<point x="296" y="623"/>
			<point x="339" y="625"/>
		</contour>
		<contour>
			<point x="344" y="555" type="qcurve"/>
			<point x="321" y="555"/>
			<point x="279" y="553"/>
			<point x="268" y="551" type="qcurve"/>
			<point x="207" y="301" type="line"/>
			<point x="274" y="301" type="line"/>
			<point x="288" y="301"/>
			<point x="314" y="303"/>
			<point x="325" y="305" type="qcurve"/>
			<point x="298" y="386" type="line"/>
			<point x="349" y="413" type="line"/>
			<point x="380" y="322" type="line"/>
			<point x="418" y="342"/>
			<point x="459" y="413"/>
			<point x="459" y="464" type="qcurve"/>
			<point x="459" y="489"/>
			<point x="439" y="524"/>
			<point x="406" y="546"/>
			<point x="365" y="555"/>
		</contour>
	</outline>
</glyph>
<glyph name="uni048F" format="2">
	<unicode hex="048F"/>
	<advance width="500"/>
	<outline>
		<contour>
			<point x="328" y="476" type="qcurve"/>
			<point x="371" y="476"/>
			<point x="435" y="451"/>
			<point x="477" y="407"/>
			<point x="497" y="347"/>
			<point x="497" y="312" type="qcurve"/>
			<point x="497" y="230"/>
			<point x="429" y="82"/>
			<point x="359" y="38" type="qcurve"/>
			<point x="390" y="-54" type="line"/>
			<point x="332" y="-84" type="line"/>
			<point x="300" y="11" type="line"/>
			<point x="274" y="2"/>
			<point x="216" y="-8"/>
			<point x="181" y="-8" type="qcurve"/>
			<point x="171" y="-8"/>
			<point x="148" y="-6"/>
			<point x="139" y="-4" type="qcurve"/>
			<point x="101" y="-165" type="line"/>
			<point x="18" y="-165" type="line"/>
			<point x="164" y="445" type="line"/>
			<point x="201" y="460"/>
			<point x="290" y="476"/>
		</contour>
		<contour>
			<point x="156" y="65" type="line"/>
			<point x="165" y="63"/>
			<point x="185" y="63"/>
			<point x="196" y="63" type="qcurve"/>
			<point x="239" y="63"/>
			<point x="278" y="78" type="qcurve"/>
			<point x="249" y="163" type="line"/>
			<point x="306" y="194" type="line"/>
			<point x="334" y="110" type="line"/>
			<point x="375" y="144"/>
			<point x="413" y="246"/>
			<point x="413" y="303" type="qcurve"/>
			<point x="413" y="323"/>
			<point x="404" y="360"/>
			<point x="380" y="388"/>
			<point x="339" y="405"/>
			<point x="307" y="405" type="qcurve"/>
			<point x="285" y="405"/>
			<point x="248" y="397"/>
			<point x="235" y="394" type="qcurve"/>
		</contour>
	</outline>
</glyph>
<glyph name="uni0494" format="2">
	<unicode hex="0494"/>
	<advance width="500"/>
	<outline>
		<contour>
			<point x="174" y="-165" type="qcurve"/>
			<point x="158" y="-165"/>
			<point x="134" y="-162"/>
			<point x="123" y="-160" type="qcurve"/>
			<point x="142" y="-92" type="line"/>
			<point x="147" y="-94"/>
			<point x="164" y="-96"/>
			<point x="175" y="-96" type="qcurve"/>
			<point x="229" y="-96"/>
			<point x="310" y="-44"/>
			<point x="362" y="35"/>
			<point x="388" y="131"/>
			<point x="388" y="176" type="qcurve"/>
			<point x="388" y="244"/>
			<point x="341" y="315"/>
			<point x="293" y="315" type="qcurve"/>
			<point x="261" y="315"/>
			<point x="213" y="306"/>
			<point x="199" y="301" type="qcurve"/>
			<point x="127" y="0" type="line"/>
			<point x="45" y="0" type="line"/>
			<point x="193" y="619" type="line"/>
			<point x="508" y="619" type="line"/>
			<point x="491" y="547" type="line"/>
			<point x="258" y="547" type="line"/>
			<point x="216" y="372" type="line"/>
			<point x="230" y="377"/>
			<point x="283" y="388"/>
			<point x="313" y="388" type="qcurve"/>
			<point x="355" y="388"/>
			<point x="416" y="356"/>
			<point x="457" y="302"/>
			<point x="476" y="229"/>
			<point x="476" y="189" type="qcurve"/>
			<point x="476" y="129"/>
			<point x="442" y="4"/>
			<point x="369" y="-99"/>
			<point x="254" y="-165"/>
		</contour>
	</outline>
</glyph>
<glyph name="uni049C" format="2">
	<unicode hex="049C"/>
	<advance width="500"/>
	<outline>
		<contour>
			<point x="375" y="0" type="line"/>
			<point x="355" y="91"/>
			<point x="314" y="237"/>
			<point x="277" y="285" type="qcurve"/>
			<point x="245" y="151" type="line"/>
			<point x="181" y="151" type="line"/>
			<point x="214" y="286" type="line"/>
			<point x="169" y="286" type="line"/>
			<point x="101" y="0" type="line"/>
			<point x="19" y="0" type="line"/>
			<point x="167" y="619" type="line"/>
			<point x="249" y="619" type="line"/>
			<point x="185" y="353" type="line"/>
			<point x="230" y="353" type="line"/>
			<point x="263" y="488" type="line"/>
			<point x="326" y="488" type="line"/>
			<point x="294" y="355" type="line"/>
			<point x="357" y="418"/>
			<point x="453" y="550"/>
			<point x="495" y="619" type="qcurve"/>
			<point x="591" y="619" type="line"/>
			<point x="538" y="541"/>
			<point x="424" y="389"/>
			<point x="354" y="321" type="qcurve"/>
			<point x="387" y="268"/>
			<point x="442" y="106"/>
			<point x="462" y="0" type="qcurve"/>
		</contour>
	</outline>
</glyph>
<glyph name="uni04A0" format="2">
	<unicode hex="04A0"/>
	<advance width="500"/>
	<outline>
		<contour>
			<point x="595" y="619" type="line"/>
			<point x="538" y="544"/>
			<point x="409" y="403"/>
			<point x="328" y="322" type="qcurve"/>
			<point x="367" y="269"/>
			<point x="442" y="109"/>
			<point x="474" y="0" type="qcurve"/>
			<point x="385" y="0" type="line"/>
			<point x="356" y="106"/>
			<point x="289" y="251"/>
			<point x="250" y="298" type="qcurve"/>
			<point x="179" y="0" type="line"/>
			<point x="96" y="0" type="line"/>
			<point x="229" y="551" type="line"/>
			<point x="135" y="551" type="line"/>
			<point x="151" y="619" type="line"/>
			<point x="327" y="619" type="line"/>
			<point x="262" y="348" type="line"/>
			<point x="400" y="495"/>
			<point x="493" y="619" type="qcurve"/>
		</contour>
	</outline>
</glyph>
<glyph name="uni04A9" format="2">
	<unicode hex="04A9"/>
	<advance width="500"/>
	<outline>
		<contour>
			<point x="386" y="288" type="qcurve"/>
			<point x="353" y="288"/>
			<point x="313" y="237"/>
			<point x="293" y="164"/>
			<point x="287" y="84"/>
			<point x="287" y="54" type="qcurve"/>
			<point x="321" y="58"/>
			<point x="372" y="96"/>
			<point x="405" y="147"/>
			<point x="421" y="204"/>
			<point x="421" y="229" type="qcurve"/>
			<point x="421" y="255"/>
			<point x="403" y="288"/>
		</contour>
		<contour>
			<point x="392" y="402" type="line"/>
			<point x="386" y="404"/>
			<point x="358" y="410"/>
			<point x="342" y="410" type="qcurve"/>
			<point x="294" y="410"/>
			<point x="221" y="363"/>
			<point x="171" y="292"/>
			<point x="145" y="207"/>
			<point x="145" y="169" type="qcurve"/>
			<point x="145" y="125"/>
			<point x="178" y="62"/>
			<point x="214" y="59" type="qcurve"/>
			<point x="213" y="67"/>
			<point x="213" y="81"/>
			<point x="213" y="88" type="qcurve"/>
			<point x="213" y="133"/>
			<point x="234" y="227"/>
			<point x="277" y="303"/>
			<point x="344" y="352"/>
			<point x="391" y="352" type="qcurve"/>
			<point x="418" y="352"/>
			<point x="456" y="332"/>
			<point x="482" y="299"/>
			<point x="494" y="254"/>
			<point x="494" y="229" type="qcurve"/>
			<point x="494" y="193"/>
			<point x="469" y="117"/>
			<point x="421" y="51"/>
			<point x="349" y="3"/>
			<point x="302" y="-4" type="qcurve"/>
			<point x="310" y="-24"/>
			<point x="340" y="-48"/>
			<point x="373" y="-63"/>
			<point x="405" y="-69"/>
			<point x="416" y="-70" type="qcurve"/>
			<point x="392" y="-129" type="line"/>
			<point x="369" y="-128"/>
			<point x="317" y="-114"/>
			<point x="271" y="-85"/>
			<point x="234" y="-40"/>
			<point x="225" y="-8" type="qcurve"/>
			<point x="142" y="0"/>
			<point x="67" y="88"/>
			<point x="67" y="171" type="qcurve"/>
			<point x="67" y="234"/>
			<point x="111" y="345"/>
			<point x="186" y="428"/>
			<point x="286" y="475"/>
			<point x="342" y="475" type="qcurve"/>
			<point x="371" y="475"/>
			<point x="411" y="468"/>
			<point x="419" y="465" type="qcurve"/>
		</contour>
	</outline>
</glyph>
<glyph name="uni04AF" format="2">
	<unicode hex="04AF"/>
	<advance width="500"/>
	<outline>
		<contour>
			<point x="148" y="-165" type="line"/>
			<point x="191" y="13" type="line"/>
			<point x="170" y="106"/>
			<point x="139" y="337"/>
			<point x="134" y="464" type="qcurve"/>
			<point x="218" y="464" type="line"/>
			<point x="219" y="420"/>
			<point x="225" y="321"/>
			<point x="235" y="222"/>
			<point x="247" y="130"/>
			<point x="254" y="93" type="qcurve"/>
			<point x="281" y="127"/>
			<point x="338" y="219"/>
			<point x="392" y="319"/>
			<point x="436" y="421"/>
			<point x="450" y="464" type="qcurve"/>
			<point x="534" y="464" type="line"/>
			<point x="514" y="406"/>
			<point x="455" y="282"/>
			<point x="385" y="161"/>
			<point x="309" y="50"/>
			<point x="272" y="6" type="qcurve"/>
			<point x="231" y="-165" type="line"/>
		</contour>
	</outline>
</glyph>
<glyph name="uni04B1" format="2">
	<unicode hex="04B1"/>
	<advance width="500"/>
	<outline>
		<contour>
			<point x="148" y="-165" type="line"/>
			<point x="188" y="0" type="line"/>
			<point x="71" y="0" type="line"/>
			<point x="85" y="61" type="line"/>
			<point x="184" y="61" type="line"/>
			<point x="166" y="148"/>
			<point x="137" y="352"/>
			<point x="134" y="464" type="qcurve"/>
			<point x="218" y="464" type="line"/>
			<point x="219" y="420"/>
			<point x="225" y="321"/>
			<point x="235" y="222"/>
			<point x="247" y="130"/>
			<point x="254" y="93" type="qcurve"/>
			<point x="281" y="127"/>
			<point x="338" y="219"/>
			<point x="392" y="319"/>
			<point x="436" y="421"/>
			<point x="450" y="464" type="qcurve"/>
			<point x="534" y="464" type="line"/>
			<point x="517" y="414"/>
			<point x="468" y="308"/>
			<point x="409" y="203"/>
			<point x="344" y="104"/>
			<point x="312" y="61" type="qcurve"/>
			<point x="408" y="61" type="line"/>
			<point x="394" y="0" type="line"/>
			<point x="271" y="0" type="line"/>
			<point x="231" y="-165" type="line"/>
		</contour>
	</outline>
</glyph>
<glyph name="uni04B5" format="2">
	<unicode hex="04B5"/>
	<advance width="500"/>
	<outline>
		<contour>
			<point x="238" y="-10" type="qcurve"/>
			<point x="167" y="-10"/>
			<point x="104" y="54"/>
			<point x="104" y="111" type="qcurve"/>
			<point x="104" y="145"/>
			<point x="115" y="189" type="qcurve"/>
			<point x="164" y="394" type="line"/>
			<point x="80" y="394" type="line"/>
			<point x="97" y="464" type="line"/>
			<point x="349" y="464" type="line"/>
			<point x="332" y="394" type="line"/>
			<point x="246" y="394" type="line"/>
			<point x="202" y="207" type="line"/>
			<point x="196" y="181"/>
			<point x="188" y="137"/>
			<point x="188" y="120" type="qcurve"/>
			<point x="188" y="91"/>
			<point x="217" y="60"/>
			<point x="255" y="60" type="qcurve"/>
			<point x="285" y="60"/>
			<point x="340" y="93"/>
			<point x="355" y="115" type="qcurve"/>
			<point x="355" y="142"/>
			<point x="364" y="178" type="qcurve"/>
			<point x="433" y="464" type="line"/>
			<point x="515" y="464" type="line"/>
			<point x="445" y="171" type="line"/>
			<point x="440" y="151"/>
			<point x="433" y="121"/>
			<point x="433" y="107" type="qcurve"/>
			<point x="433" y="84"/>
			<point x="460" y="70"/>
			<point x="479" y="70" type="qcurve"/>
			<point x="431" y="-129" type="line"/>
			<point x="353" y="-129" type="line"/>
			<point x="387" y="17" type="line"/>
			<point x="369" y="26"/>
			<point x="361" y="44" type="qcurve"/>
			<point x="344" y="26"/>
			<point x="280" y="-10"/>
		</contour>
	</outline>
</glyph>
<glyph name="uni04B8" format="2">
  <advance width="500"/>
  <unicode hex="04B8"/>
  <outline>
    <contour>
      <point x="266" y="619" type="line"/>
      <point x="184" y="619" type="line"/>
      <point x="141" y="440" type="line" smooth="yes"/>
      <point x="133" y="409"/>
      <point x="129" y="380"/>
      <point x="129" y="354" type="curve" smooth="yes"/>
      <point x="129" y="282"/>
      <point x="162" y="230"/>
      <point x="254" y="221" type="curve"/>
      <point x="226" y="104" type="line"/>
      <point x="292" y="104" type="line"/>
      <point x="320" y="221" type="line"/>
      <point x="354" y="222"/>
      <point x="385" y="227"/>
      <point x="402" y="232" type="curve"/>
      <point x="346" y="0" type="line"/>
      <point x="428" y="0" type="line"/>
      <point x="577" y="619" type="line"/>
      <point x="495" y="619" type="line"/>
      <point x="419" y="303" type="line"/>
      <point x="403" y="299"/>
      <point x="370" y="293"/>
      <point x="336" y="290" type="curve"/>
      <point x="363" y="405" type="line"/>
      <point x="297" y="405" type="line"/>
      <point x="271" y="293" type="line"/>
      <point x="224" y="303"/>
      <point x="213" y="333"/>
      <point x="213" y="373" type="curve" smooth="yes"/>
      <point x="213" y="394"/>
      <point x="218" y="417"/>
      <point x="223" y="440" type="curve" smooth="yes"/>
    </contour>
  </outline>
</glyph>
<glyph name="uni04C4" format="2">
	<unicode hex="04C4"/>
	<advance width="500"/>
	<outline>
		<contour>
			<point x="538" y="464" type="line"/>
			<point x="518" y="444"/>
			<point x="465" y="395"/>
			<point x="404" y="342"/>
			<point x="341" y="290"/>
			<point x="312" y="269" type="qcurve"/>
			<point x="386" y="255"/>
			<point x="449" y="163"/>
			<point x="449" y="96" type="qcurve"/>
			<point x="449" y="51"/>
			<point x="420" y="-43"/>
			<point x="362" y="-118"/>
			<point x="276" y="-166"/>
			<point x="218" y="-166" type="qcurve"/>
			<point x="202" y="-166"/>
			<point x="178" y="-162"/>
			<point x="171" y="-160" type="qcurve"/>
			<point x="188" y="-97" type="line"/>
			<point x="198" y="-100"/>
			<point x="213" y="-100" type="qcurve"/>
			<point x="250" y="-100"/>
			<point x="308" y="-68"/>
			<point x="346" y="-15"/>
			<point x="366" y="53"/>
			<point x="366" y="89" type="qcurve"/>
			<point x="366" y="151"/>
			<point x="299" y="213"/>
			<point x="250" y="213" type="qcurve"/>
			<point x="235" y="213"/>
			<point x="204" y="211"/>
			<point x="196" y="209" type="qcurve"/>
			<point x="146" y="0" type="line"/>
			<point x="63" y="0" type="line"/>
			<point x="174" y="464" type="line"/>
			<point x="257" y="464" type="line"/>
			<point x="210" y="267" type="line"/>
			<point x="242" y="291"/>
			<point x="309" y="346"/>
			<point x="370" y="400"/>
			<point x="422" y="447"/>
			<point x="440" y="464" type="qcurve"/>
		</contour>
	</outline>
</glyph>
<glyph name="uni04C5" format="2">
	<unicode hex="04C5"/>
	<advance width="500"/>
	<outline>
		<contour>
			<point x="320" y="0" type="line"/>
			<point x="451" y="549" type="line"/>
			<point x="353" y="549" type="line"/>
			<point x="325" y="448"/>
			<point x="269" y="258"/>
			<point x="228" y="177" type="qcurve"/>
			<point x="208" y="137"/>
			<point x="165" y="71"/>
			<point x="112" y="22"/>
			<point x="47" y="-7"/>
			<point x="4" y="-9" type="qcurve"/>
			<point x="12" y="61" type="line"/>
			<point x="55" y="68"/>
			<point x="121" y="132"/>
			<point x="155" y="198" type="qcurve"/>
			<point x="174" y="234"/>
			<point x="209" y="330"/>
			<point x="243" y="440"/>
			<point x="274" y="560"/>
			<point x="289" y="619" type="qcurve"/>
			<point x="550" y="619" type="line"/>
			<point x="418" y="70" type="line"/>
			<point x="464" y="70" type="line"/>
			<point x="460" y="34"/>
			<point x="433" y="-34"/>
			<point x="392" y="-96"/>
			<point x="338" y="-148"/>
			<point x="308" y="-169" type="qcurve"/>
			<point x="257" y="-128" type="line"/>
			<point x="293" y="-101"/>
			<point x="350" y="-32"/>
			<point x="361" y="0" type="qcurve"/>
		</contour>
	</outline>
</glyph>
<glyph name="uni04C8" format="2">
	<unicode hex="04C8"/>
	<advance width="500"/>
	<outline>
		<contour>
			<point x="377" y="205" type="line"/>
			<point x="186" y="205" type="line"/>
			<point x="137" y="0" type="line"/>
			<point x="54" y="0" type="line"/>
			<point x="165" y="464" type="line"/>
			<point x="248" y="464" type="line"/>
			<point x="203" y="275" type="line"/>
			<point x="394" y="275" type="line"/>
			<point x="439" y="464" type="line"/>
			<point x="522" y="464" type="line"/>
			<point x="411" y="0" type="line"/>
			<point x="401" y="-41"/>
			<point x="379" y="-104"/>
			<point x="343" y="-146"/>
			<point x="287" y="-167"/>
			<point x="244" y="-167" type="qcurve"/>
			<point x="231" y="-167"/>
			<point x="196" y="-160"/>
			<point x="188" y="-155" type="qcurve"/>
			<point x="210" y="-93" type="line"/>
			<point x="215" y="-95"/>
			<point x="234" y="-100"/>
			<point x="247" y="-100" type="qcurve"/>
			<point x="282" y="-100"/>
			<point x="314" y="-56"/>
			<point x="324" y="-15" type="qcurve"/>
		</contour>
	</outline>
</glyph>
<glyph name="uni04D9" format="2">
	<unicode hex="04D9"/>
	<advance width="500"/>
	<outline>
		<contour>
			<point x="430" y="220" type="qcurve"/>
			<point x="370" y="219"/>
			<point x="274" y="209"/>
			<point x="207" y="185"/>
			<point x="171" y="143"/>
			<point x="171" y="110" type="qcurve"/>
			<point x="171" y="102"/>
			<point x="178" y="83"/>
			<point x="195" y="67"/>
			<point x="224" y="57"/>
			<point x="247" y="57" type="qcurve"/>
			<point x="281" y="57"/>
			<point x="340" y="84"/>
			<point x="388" y="129"/>
			<point x="421" y="188"/>
		</contour>
		<contour>
			<point x="330" y="475" type="qcurve"/>
			<point x="378" y="475"/>
			<point x="450" y="447"/>
			<point x="498" y="399"/>
			<point x="521" y="336"/>
			<point x="521" y="302" type="qcurve"/>
			<point x="521" y="239"/>
			<point x="482" y="125"/>
			<point x="408" y="39"/>
			<point x="303" y="-12"/>
			<point x="237" y="-12" type="qcurve"/>
			<point x="198" y="-12"/>
			<point x="142" y="7"/>
			<point x="106" y="39"/>
			<point x="89" y="81"/>
			<point x="89" y="104" type="qcurve"/>
			<point x="89" y="167"/>
			<point x="154" y="237"/>
			<point x="255" y="272"/>
			<point x="380" y="281"/>
			<point x="440" y="283" type="qcurve"/>
			<point x="443" y="315"/>
			<point x="425" y="361"/>
			<point x="389" y="390"/>
			<point x="336" y="404"/>
			<point x="304" y="404" type="qcurve"/>
			<point x="283" y="404"/>
			<point x="238" y="397"/>
			<point x="199" y="387"/>
			<point x="169" y="376"/>
			<point x="163" y="372" type="qcurve"/>
			<point x="156" y="442" type="line"/>
			<point x="175" y="452"/>
			<point x="261" y="475"/>
		</contour>
	</outline>
</glyph>
<glyph name="uni1FBC" format="2">
	<unicode hex="1FBC"/>
	<advance width="500"/>
	<outline>
		<contour>
			<point x="249" y="0" type="line"/>
			<point x="250" y="15"/>
			<point x="251" y="58"/>
			<point x="253" y="104"/>
			<point x="253" y="147"/>
			<point x="253" y="162" type="qcurve"/>
			<point x="124" y="162" type="line"/>
			<point x="110" y="122"/>
			<point x="84" y="41"/>
			<point x="70" y="0" type="qcurve"/>
			<point x="-4" y="0" type="line"/>
			<point x="18" y="66"/>
			<point x="73" y="220"/>
			<point x="134" y="382"/>
			<point x="198" y="545"/>
			<point x="230" y="619" type="qcurve"/>
			<point x="315" y="619" type="line"/>
			<point x="319" y="519"/>
			<point x="325" y="350"/>
			<point x="327" y="201"/>
			<point x="327" y="66"/>
			<point x="326" y="0" type="qcurve"/>
		</contour>
		<contour>
			<point x="464" y="194" type="line"/>
			<point x="455" y="157"/>
			<point x="448" y="108"/>
			<point x="454" y="78"/>
			<point x="476" y="62"/>
			<point x="496" y="58" type="qcurve"/>
			<point x="478" y="-6" type="line"/>
			<point x="435" y="-2"/>
			<point x="389" y="26"/>
			<point x="372" y="77"/>
			<point x="380" y="151"/>
			<point x="392" y="200" type="qcurve"/>
			<point x="457" y="464" type="line"/>
			<point x="529" y="464" type="line"/>
		</contour>
		<contour>
			<point x="256" y="549" type="qcurve"/>
			<point x="239" y="494"/>
			<point x="183" y="329"/>
			<point x="148" y="230" type="qcurve"/>
			<point x="253" y="230" type="line"/>
			<point x="253" y="245"/>
			<point x="254" y="299"/>
			<point x="255" y="364"/>
			<point x="256" y="434"/>
			<point x="256" y="495"/>
			<point x="256" y="541"/>
		</contour>
	</outline>
</glyph>
<glyph name="uni1FBE" format="2">
	<unicode hex="1FBE"/>
	<advance width="500"/>
	<outline>
		<contour>
			<point x="263" y="-45" type="line"/>
			<point x="261" y="-50"/>
			<point x="257" y="-71"/>
			<point x="257" y="-79" type="qcurve"/>
			<point x="257" y="-103"/>
			<point x="289" y="-113"/>
			<point x="312" y="-113" type="qcurve"/>
			<point x="299" y="-163" type="line"/>
			<point x="294" y="-165"/>
			<point x="272" y="-167"/>
			<point x="261" y="-167" type="qcurve"/>
			<point x="226" y="-167"/>
			<point x="181" y="-133"/>
			<point x="181" y="-90" type="qcurve"/>
			<point x="181" y="-82"/>
			<point x="184" y="-58"/>
			<point x="189" y="-45" type="qcurve"/>
		</contour>
	</outline>
</glyph>
<glyph name="uni1FC0" format="2">
	<unicode hex="1FC0"/>
	<advance width="500"/>
	<outline>
		<contour>
			<point x="393" y="669" type="qcurve"/>
			<point x="420" y="669"/>
			<point x="459" y="653"/>
			<point x="483" y="626"/>
			<point x="495" y="591"/>
			<point x="495" y="572" type="qcurve"/>
			<point x="495" y="558"/>
			<point x="492" y="545" type="qcurve"/>
			<point x="440" y="545" type="line"/>
			<point x="441" y="547"/>
			<point x="441" y="555" type="qcurve"/>
			<point x="441" y="581"/>
			<point x="412" y="611"/>
			<point x="386" y="611" type="qcurve"/>
			<point x="367" y="611"/>
			<point x="340" y="598"/>
			<point x="323" y="578"/>
			<point x="313" y="555"/>
			<point x="310" y="545" type="qcurve"/>
			<point x="255" y="545" type="line"/>
			<point x="263" y="604"/>
			<point x="336" y="669"/>
		</contour>
	</outline>
</glyph>
<glyph name="uni1FC1" format="2">
	<unicode hex="1FC1"/>
	<advance width="500"/>
	<outline>
		<contour>
			<point x="418" y="772" type="qcurve"/>
			<point x="443" y="772"/>
			<point x="480" y="758"/>
			<point x="504" y="734"/>
			<point x="515" y="703"/>
			<point x="515" y="687" type="qcurve"/>
			<point x="515" y="679"/>
			<point x="514" y="667"/>
			<point x="513" y="661" type="qcurve"/>
			<point x="464" y="661" type="line"/>
			<point x="465" y="663"/>
			<point x="465" y="671" type="qcurve"/>
			<point x="465" y="692"/>
			<point x="437" y="718"/>
			<point x="412" y="718" type="qcurve"/>
			<point x="375" y="718"/>
			<point x="340" y="682"/>
			<point x="335" y="661" type="qcurve"/>
			<point x="283" y="661" type="line"/>
			<point x="286" y="688"/>
			<point x="311" y="729"/>
			<point x="348" y="758"/>
			<point x="394" y="772"/>
		</contour>
		<contour>
			<point x="280" y="524" type="qcurve"/>
			<point x="262" y="524"/>
			<point x="238" y="547"/>
			<point x="238" y="566" type="qcurve"/>
			<point x="238" y="592"/>
			<point x="270" y="622"/>
			<point x="290" y="622" type="qcurve"/>
			<point x="308" y="622"/>
			<point x="334" y="599"/>
			<point x="334" y="579" type="qcurve"/>
			<point x="334" y="555"/>
			<point x="299" y="524"/>
		</contour>
		<contour>
			<point x="459" y="524" type="qcurve"/>
			<point x="441" y="524"/>
			<point x="416" y="547"/>
			<point x="416" y="566" type="qcurve"/>
			<point x="416" y="592"/>
			<point x="449" y="622"/>
			<point x="469" y="622" type="qcurve"/>
			<point x="487" y="622"/>
			<point x="513" y="599"/>
			<point x="513" y="579" type="qcurve"/>
			<point x="513" y="555"/>
			<point x="478" y="524"/>
		</contour>
	</outline>
</glyph>
<glyph name="uni1FDD" format="2">
	<unicode hex="1FDD"/>
	<advance width="500"/>
	<outline>
		<contour>
			<point x="313" y="513" type="line"/>
			<point x="286" y="538"/>
			<point x="246" y="603"/>
			<point x="246" y="635" type="qcurve"/>
			<point x="246" y="667"/>
			<point x="279" y="697"/>
			<point x="302" y="697" type="qcurve"/>
			<point x="319" y="697"/>
			<point x="344" y="676"/>
			<point x="344" y="655" type="qcurve"/>
			<point x="344" y="638"/>
			<point x="323" y="611"/>
			<point x="303" y="605" type="qcurve"/>
			<point x="311" y="584"/>
			<point x="329" y="557"/>
			<point x="345" y="541" type="qcurve"/>
		</contour>
		<contour>
			<point x="439" y="699" type="line"/>
			<point x="500" y="540" type="line"/>
			<point x="448" y="513" type="line"/>
			<point x="371" y="665" type="line"/>
		</contour>
	</outline>
</glyph>
<glyph name="uni1FDE" format="2">
	<unicode hex="1FDE"/>
	<advance width="500"/>
	<outline>
		<contour>
			<point x="303" y="513" type="line"/>
			<point x="275" y="538"/>
			<point x="235" y="603"/>
			<point x="235" y="635" type="qcurve"/>
			<point x="235" y="667"/>
			<point x="269" y="697"/>
			<point x="291" y="697" type="qcurve"/>
			<point x="308" y="697"/>
			<point x="333" y="676"/>
			<point x="333" y="655" type="qcurve"/>
			<point x="333" y="638"/>
			<point x="313" y="611"/>
			<point x="292" y="605" type="qcurve"/>
			<point x="300" y="584"/>
			<point x="318" y="557"/>
			<point x="334" y="541" type="qcurve"/>
		</contour>
		<contour>
			<point x="523" y="649" type="line"/>
			<point x="397" y="514" type="line"/>
			<point x="352" y="549" type="line"/>
			<point x="470" y="700" type="line"/>
		</contour>
	</outline>
</glyph>
<glyph name="uni1FDF" format="2">
	<unicode hex="1FDF"/>
	<advance width="500"/>
	<outline>
		<contour>
			<point x="396" y="513" type="line"/>
			<point x="385" y="520"/>
			<point x="361" y="540"/>
			<point x="340" y="565"/>
			<point x="326" y="595"/>
			<point x="326" y="614" type="qcurve"/>
			<point x="326" y="634"/>
			<point x="355" y="672"/>
			<point x="381" y="672" type="qcurve"/>
			<point x="403" y="672"/>
			<point x="419" y="650"/>
			<point x="419" y="636" type="qcurve"/>
			<point x="419" y="619"/>
			<point x="400" y="595"/>
			<point x="385" y="587" type="qcurve"/>
			<point x="394" y="567"/>
			<point x="425" y="540" type="qcurve"/>
		</contour>
		<contour>
			<point x="405" y="787" type="qcurve"/>
			<point x="456" y="787"/>
			<point x="503" y="734"/>
			<point x="503" y="701" type="qcurve"/>
			<point x="503" y="687"/>
			<point x="500" y="675" type="qcurve"/>
			<point x="452" y="675" type="line"/>
			<point x="453" y="678"/>
			<point x="453" y="685" type="qcurve"/>
			<point x="453" y="707"/>
			<point x="424" y="732"/>
			<point x="399" y="732" type="qcurve"/>
			<point x="362" y="732"/>
			<point x="328" y="696"/>
			<point x="322" y="675" type="qcurve"/>
			<point x="271" y="675" type="line"/>
			<point x="274" y="702"/>
			<point x="298" y="744"/>
			<point x="336" y="772"/>
			<point x="381" y="787"/>
		</contour>
	</outline>
</glyph>
<glyph name="uni1FED" format="2">
	<unicode hex="1FED"/>
	<advance width="500"/>
	<outline>
		<contour>
			<point x="234" y="555" type="qcurve"/>
			<point x="216" y="555"/>
			<point x="191" y="578"/>
			<point x="191" y="597" type="qcurve"/>
			<point x="191" y="623"/>
			<point x="224" y="653"/>
			<point x="244" y="653" type="qcurve"/>
			<point x="262" y="653"/>
			<point x="288" y="629"/>
			<point x="288" y="609" type="qcurve"/>
			<point x="288" y="585"/>
			<point x="253" y="555"/>
		</contour>
		<contour>
			<point x="492" y="555" type="qcurve"/>
			<point x="474" y="555"/>
			<point x="449" y="578"/>
			<point x="449" y="597" type="qcurve"/>
			<point x="449" y="623"/>
			<point x="482" y="653"/>
			<point x="502" y="653" type="qcurve"/>
			<point x="520" y="653"/>
			<point x="546" y="629"/>
			<point x="546" y="609" type="qcurve"/>
			<point x="546" y="585"/>
			<point x="511" y="555"/>
		</contour>
		<contour>
			<point x="372" y="697" type="line"/>
			<point x="426" y="542" type="line"/>
			<point x="376" y="516" type="line"/>
			<point x="305" y="666" type="line"/>
		</contour>
	</outline>
</glyph>
<glyph name="uni1FEE" format="2">
	<unicode hex="1FEE"/>
	<advance width="500"/>
	<outline>
		<contour>
			<point x="234" y="555" type="qcurve"/>
			<point x="216" y="555"/>
			<point x="191" y="578"/>
			<point x="191" y="597" type="qcurve"/>
			<point x="191" y="623"/>
			<point x="224" y="653"/>
			<point x="244" y="653" type="qcurve"/>
			<point x="262" y="653"/>
			<point x="288" y="629"/>
			<point x="288" y="609" type="qcurve"/>
			<point x="288" y="585"/>
			<point x="253" y="555"/>
		</contour>
		<contour>
			<point x="492" y="555" type="qcurve"/>
			<point x="474" y="555"/>
			<point x="449" y="578"/>
			<point x="449" y="597" type="qcurve"/>
			<point x="449" y="623"/>
			<point x="482" y="653"/>
			<point x="502" y="653" type="qcurve"/>
			<point x="520" y="653"/>
			<point x="546" y="629"/>
			<point x="546" y="609" type="qcurve"/>
			<point x="546" y="585"/>
			<point x="511" y="555"/>
		</contour>
		<contour>
			<point x="442" y="655" type="line"/>
			<point x="337" y="516" type="line"/>
			<point x="290" y="543" type="line"/>
			<point x="388" y="697" type="line"/>
		</contour>
	</outline>
</glyph>
<glyph name="uni1FEF" format="2">
	<unicode hex="1FEF"/>
	<advance width="500"/>
	<outline>
		<contour>
			<point x="317" y="696" type="line"/>
			<point x="449" y="555" type="line"/>
			<point x="409" y="514" type="line"/>
			<point x="261" y="634" type="line"/>
		</contour>
	</outline>
</glyph>
<glyph name="uni1FFC" format="2">
	<unicode hex="1FFC"/>
	<advance width="500"/>
	<outline>
		<contour>
			<point x="464" y="194" type="line"/>
			<point x="457" y="165"/>
			<point x="450" y="123"/>
			<point x="450" y="108" type="qcurve"/>
			<point x="450" y="85"/>
			<point x="471" y="63"/>
			<point x="496" y="58" type="qcurve"/>
			<point x="478" y="-6" type="line"/>
			<point x="421" y="-1"/>
			<point x="375" y="46"/>
			<point x="375" y="91" type="qcurve"/>
			<point x="375" y="134"/>
			<point x="392" y="200" type="qcurve"/>
			<point x="457" y="464" type="line"/>
			<point x="529" y="464" type="line"/>
		</contour>
		<contour>
			<point x="124" y="0" type="line"/>
			<point x="-12" y="0" type="line"/>
			<point x="5" y="70" type="line"/>
			<point x="75" y="70" type="line"/>
			<point x="67" y="93"/>
			<point x="58" y="150"/>
			<point x="58" y="178" type="qcurve"/>
			<point x="58" y="288"/>
			<point x="100" y="458"/>
			<point x="167" y="573"/>
			<point x="252" y="633"/>
			<point x="294" y="633" type="qcurve"/>
			<point x="337" y="633"/>
			<point x="390" y="564"/>
			<point x="390" y="492" type="qcurve"/>
			<point x="390" y="447"/>
			<point x="365" y="328"/>
			<point x="324" y="209"/>
			<point x="271" y="103"/>
			<point x="243" y="70" type="qcurve"/>
			<point x="308" y="70" type="line"/>
			<point x="291" y="0" type="line"/>
			<point x="156" y="0" type="line"/>
			<point x="171" y="60" type="line"/>
			<point x="200" y="95"/>
			<point x="253" y="208"/>
			<point x="294" y="331"/>
			<point x="318" y="448"/>
			<point x="318" y="488" type="qcurve"/>
			<point x="318" y="525"/>
			<point x="295" y="562"/>
			<point x="278" y="562" type="qcurve"/>
			<point x="254" y="562"/>
			<point x="200" y="510"/>
			<point x="155" y="407"/>
			<point x="126" y="256"/>
			<point x="126" y="157" type="qcurve"/>
			<point x="126" y="127"/>
			<point x="132" y="77"/>
			<point x="138" y="60" type="qcurve"/>
		</contour>
	</outline>
</glyph>
<glyph name="quotedblleft" format="2">
	<unicode hex="201C"/>
	<advance width="500"/>
	<outline>
		<contour>
			<point x="572" y="635" type="line"/>
			<point x="555" y="631"/>
			<point x="523" y="624"/>
			<point x="496" y="610"/>
			<point x="475" y="589"/>
			<point x="469" y="571" type="qcurve"/>
			<point x="496" y="569"/>
			<point x="525" y="529"/>
			<point x="525" y="505" type="qcurve"/>
			<point x="525" y="480"/>
			<point x="493" y="439"/>
			<point x="459" y="439" type="qcurve"/>
			<point x="430" y="439"/>
			<point x="388" y="479"/>
			<point x="388" y="523" type="qcurve"/>
			<point x="388" y="548"/>
			<point x="409" y="602"/>
			<point x="452" y="650"/>
			<point x="515" y="686"/>
			<point x="557" y="693" type="qcurve"/>
		</contour>
		<contour>
			<point x="339" y="635" type="line"/>
			<point x="322" y="631"/>
			<point x="291" y="624"/>
			<point x="264" y="610"/>
			<point x="243" y="589"/>
			<point x="237" y="571" type="qcurve"/>
			<point x="264" y="569"/>
			<point x="293" y="529"/>
			<point x="293" y="505" type="qcurve"/>
			<point x="293" y="480"/>
			<point x="260" y="439"/>
			<point x="227" y="439" type="qcurve"/>
			<point x="198" y="439"/>
			<point x="155" y="479"/>
			<point x="155" y="523" type="qcurve"/>
			<point x="155" y="548"/>
			<point x="177" y="602"/>
			<point x="219" y="650"/>
			<point x="283" y="686"/>
			<point x="325" y="693" type="qcurve"/>
		</contour>
	</outline>
</glyph>
<glyph name="daggerdbl" format="2">
	<unicode hex="2021"/>
	<advance width="500"/>
	<outline>
		<contour>
			<point x="294" y="120" type="line"/>
			<point x="277" y="47"/>
			<point x="241" y="-70"/>
			<point x="219" y="-129" type="qcurve"/>
			<point x="178" y="-129" type="line"/>
			<point x="184" y="-70"/>
			<point x="205" y="47"/>
			<point x="223" y="120" type="qcurve"/>
			<point x="81" y="120" type="line"/>
			<point x="97" y="188" type="line"/>
			<point x="239" y="188" type="line"/>
			<point x="280" y="356" type="line"/>
			<point x="138" y="356" type="line"/>
			<point x="154" y="425" type="line"/>
			<point x="296" y="425" type="line"/>
			<point x="342" y="619" type="line"/>
			<point x="414" y="619" type="line"/>
			<point x="367" y="425" type="line"/>
			<point x="509" y="425" type="line"/>
			<point x="493" y="356" type="line"/>
			<point x="351" y="356" type="line"/>
			<point x="310" y="188" type="line"/>
			<point x="452" y="188" type="line"/>
			<point x="436" y="120" type="line"/>
		</contour>
	</outline>
</glyph>
<glyph name="perthousand" format="2">
	<unicode hex="2030"/>
	<advance width="500"/>
	<outline>
		<contour>
			<point x="180" y="405" type="qcurve"/>
			<point x="191" y="405"/>
			<point x="212" y="436"/>
			<point x="228" y="482"/>
			<point x="238" y="532"/>
			<point x="238" y="552" type="qcurve"/>
			<point x="238" y="566"/>
			<point x="231" y="584"/>
			<point x="223" y="584" type="qcurve"/>
			<point x="212" y="584"/>
			<point x="191" y="553"/>
			<point x="175" y="508"/>
			<point x="165" y="457"/>
			<point x="165" y="438" type="qcurve"/>
			<point x="165" y="424"/>
			<point x="173" y="405"/>
		</contour>
		<contour>
			<point x="76" y="205" type="line"/>
			<point x="58" y="250" type="line"/>
			<point x="580" y="546" type="line"/>
			<point x="599" y="501" type="line"/>
		</contour>
		<contour>
			<point x="171" y="357" type="qcurve"/>
			<point x="138" y="357"/>
			<point x="114" y="404"/>
			<point x="114" y="439" type="qcurve"/>
			<point x="114" y="470"/>
			<point x="129" y="538"/>
			<point x="160" y="595"/>
			<point x="206" y="632"/>
			<point x="236" y="632" type="qcurve"/>
			<point x="268" y="632"/>
			<point x="292" y="585"/>
			<point x="292" y="550" type="qcurve"/>
			<point x="292" y="520"/>
			<point x="276" y="452"/>
			<point x="246" y="395"/>
			<point x="201" y="357"/>
		</contour>
		<contour>
			<point x="202" y="35" type="qcurve"/>
			<point x="213" y="35"/>
			<point x="234" y="66"/>
			<point x="250" y="111"/>
			<point x="260" y="161"/>
			<point x="260" y="181" type="qcurve"/>
			<point x="260" y="195"/>
			<point x="253" y="213"/>
			<point x="245" y="213" type="qcurve"/>
			<point x="234" y="213"/>
			<point x="213" y="182"/>
			<point x="197" y="137"/>
			<point x="187" y="86"/>
			<point x="187" y="67" type="qcurve"/>
			<point x="187" y="53"/>
			<point x="194" y="35"/>
		</contour>
		<contour>
			<point x="192" y="-13" type="qcurve"/>
			<point x="159" y="-13"/>
			<point x="136" y="34"/>
			<point x="136" y="69" type="qcurve"/>
			<point x="136" y="99"/>
			<point x="151" y="167"/>
			<point x="182" y="224"/>
			<point x="227" y="262"/>
			<point x="257" y="262" type="qcurve"/>
			<point x="289" y="262"/>
			<point x="313" y="214"/>
			<point x="313" y="179" type="qcurve"/>
			<point x="313" y="149"/>
			<point x="297" y="81"/>
			<point x="267" y="24"/>
			<point x="222" y="-13"/>
		</contour>
		<contour>
			<point x="399" y="35" type="qcurve"/>
			<point x="410" y="35"/>
			<point x="431" y="66"/>
			<point x="447" y="111"/>
			<point x="457" y="161"/>
			<point x="457" y="181" type="qcurve"/>
			<point x="457" y="195"/>
			<point x="450" y="213"/>
			<point x="442" y="213" type="qcurve"/>
			<point x="431" y="213"/>
			<point x="410" y="182"/>
			<point x="394" y="137"/>
			<point x="384" y="86"/>
			<point x="384" y="67" type="qcurve"/>
			<point x="384" y="53"/>
			<point x="391" y="35"/>
		</contour>
		<contour>
			<point x="389" y="-13" type="qcurve"/>
			<point x="357" y="-13"/>
			<point x="333" y="34"/>
			<point x="333" y="69" type="qcurve"/>
			<point x="333" y="99"/>
			<point x="348" y="167"/>
			<point x="379" y="224"/>
			<point x="425" y="262"/>
			<point x="455" y="262" type="qcurve"/>
			<point x="487" y="262"/>
			<point x="511" y="214"/>
			<point x="511" y="179" type="qcurve"/>
			<point x="511" y="149"/>
			<point x="495" y="81"/>
			<point x="465" y="24"/>
			<point x="419" y="-13"/>
		</contour>
	</outline>
</glyph>
<glyph name="uni20B9" format="2">
	<unicode hex="20B9"/>
	<advance width="500"/>
	<outline>
		<contour>
			<point x="172" y="315" type="line"/>
			<point x="203" y="315"/>
			<point x="267" y="322"/>
			<point x="324" y="341"/>
			<point x="370" y="375"/>
			<point x="382" y="403" type="qcurve"/>
			<point x="138" y="403" type="line"/>
			<point x="153" y="467" type="line"/>
			<point x="392" y="467" type="line"/>
			<point x="389" y="515"/>
			<point x="316" y="555"/>
			<point x="253" y="555" type="qcurve"/>
			<point x="173" y="555" type="line"/>
			<point x="188" y="619" type="line"/>
			<point x="606" y="619" type="line"/>
			<point x="580" y="555" type="line"/>
			<point x="423" y="555" type="line"/>
			<point x="445" y="539"/>
			<point x="474" y="496"/>
			<point x="475" y="467" type="qcurve"/>
			<point x="540" y="467" type="line"/>
			<point x="513" y="403" type="line"/>
			<point x="466" y="403" type="line"/>
			<point x="454" y="362"/>
			<point x="401" y="305"/>
			<point x="328" y="269"/>
			<point x="241" y="252"/>
			<point x="196" y="251" type="qcurve"/>
			<point x="209" y="233"/>
			<point x="248" y="175"/>
			<point x="290" y="107"/>
			<point x="332" y="34"/>
			<point x="348" y="0" type="qcurve"/>
			<point x="259" y="0" type="line"/>
			<point x="242" y="33"/>
			<point x="199" y="105"/>
			<point x="157" y="174"/>
			<point x="117" y="234"/>
			<point x="103" y="254" type="qcurve"/>
			<point x="117" y="315" type="line"/>
		</contour>
	</outline>
</glyph>
<glyph name="fivesixths" format="2">
	<unicode hex="215A"/>
	<advance width="500"/>
	<outline>
		<contour>
			<point x="200" y="539" type="line"/>
			<point x="248" y="537"/>
			<point x="287" y="501"/>
			<point x="287" y="472" type="qcurve"/>
			<point x="287" y="423"/>
			<point x="217" y="367"/>
			<point x="152" y="367" type="qcurve"/>
			<point x="129" y="367"/>
			<point x="86" y="380"/>
			<point x="76" y="388" type="qcurve"/>
			<point x="100" y="436" type="line"/>
			<point x="110" y="431"/>
			<point x="141" y="417"/>
			<point x="162" y="417" type="qcurve"/>
			<point x="190" y="417"/>
			<point x="231" y="438"/>
			<point x="231" y="461" type="qcurve"/>
			<point x="231" y="479"/>
			<point x="186" y="494"/>
			<point x="129" y="494" type="qcurve"/>
			<point x="137" y="517"/>
			<point x="149" y="548"/>
			<point x="159" y="576"/>
			<point x="169" y="605"/>
			<point x="175" y="626" type="qcurve"/>
			<point x="321" y="626" type="line"/>
			<point x="308" y="576" type="line"/>
			<point x="213" y="576" type="line"/>
		</contour>
		<contour>
			<point x="501" y="209" type="line"/>
			<point x="457" y="207"/>
			<point x="388" y="183"/>
			<point x="368" y="155" type="qcurve"/>
			<point x="393" y="169"/>
			<point x="417" y="169" type="qcurve"/>
			<point x="445" y="169"/>
			<point x="485" y="135"/>
			<point x="485" y="100" type="qcurve"/>
			<point x="485" y="74"/>
			<point x="464" y="34"/>
			<point x="431" y="6"/>
			<point x="390" y="-9"/>
			<point x="370" y="-9" type="qcurve"/>
			<point x="338" y="-9"/>
			<point x="290" y="33"/>
			<point x="290" y="75" type="qcurve"/>
			<point x="290" y="108"/>
			<point x="320" y="174"/>
			<point x="376" y="226"/>
			<point x="457" y="259"/>
			<point x="508" y="259" type="qcurve"/>
		</contour>
		<contour>
			<point x="396" y="119" type="qcurve"/>
			<point x="385" y="119"/>
			<point x="360" y="111"/>
			<point x="347" y="105" type="qcurve"/>
			<point x="346" y="98"/>
			<point x="346" y="86"/>
			<point x="346" y="79" type="qcurve"/>
			<point x="346" y="59"/>
			<point x="367" y="41"/>
			<point x="381" y="41" type="qcurve"/>
			<point x="399" y="41"/>
			<point x="431" y="66"/>
			<point x="431" y="89" type="qcurve"/>
			<point x="431" y="102"/>
			<point x="415" y="119"/>
		</contour>
		<contour>
			<point x="113" y="0" type="line"/>
			<point x="37" y="0" type="line"/>
			<point x="519" y="619" type="line"/>
			<point x="597" y="619" type="line"/>
		</contour>
	</outline>
</glyph>
<glyph name="fiveeighths" format="2">
	<unicode hex="215D"/>
	<advance width="500"/>
	<outline>
		<contour>
			<point x="200" y="539" type="line"/>
			<point x="248" y="537"/>
			<point x="287" y="501"/>
			<point x="287" y="472" type="qcurve"/>
			<point x="287" y="423"/>
			<point x="217" y="367"/>
			<point x="152" y="367" type="qcurve"/>
			<point x="129" y="367"/>
			<point x="86" y="380"/>
			<point x="76" y="388" type="qcurve"/>
			<point x="100" y="436" type="line"/>
			<point x="110" y="431"/>
			<point x="141" y="417"/>
			<point x="162" y="417" type="qcurve"/>
			<point x="190" y="417"/>
			<point x="231" y="438"/>
			<point x="231" y="461" type="qcurve"/>
			<point x="231" y="479"/>
			<point x="186" y="494"/>
			<point x="129" y="494" type="qcurve"/>
			<point x="137" y="517"/>
			<point x="149" y="548"/>
			<point x="159" y="576"/>
			<point x="169" y="605"/>
			<point x="175" y="626" type="qcurve"/>
			<point x="321" y="626" type="line"/>
			<point x="308" y="576" type="line"/>
			<point x="213" y="576" type="line"/>
		</contour>
		<contour>
			<point x="280" y="55" type="qcurve"/>
			<point x="280" y="58"/>
			<point x="282" y="77"/>
			<point x="294" y="99"/>
			<point x="319" y="122"/>
			<point x="342" y="130" type="qcurve"/>
			<point x="331" y="138"/>
			<point x="317" y="159"/>
			<point x="317" y="176" type="qcurve"/>
			<point x="317" y="197"/>
			<point x="337" y="228"/>
			<point x="370" y="249"/>
			<point x="411" y="259"/>
			<point x="432" y="259" type="qcurve"/>
			<point x="465" y="259"/>
			<point x="510" y="226"/>
			<point x="510" y="198" type="qcurve"/>
			<point x="510" y="180"/>
			<point x="492" y="146"/>
			<point x="460" y="131" type="qcurve"/>
			<point x="473" y="123"/>
			<point x="490" y="101"/>
			<point x="490" y="84" type="qcurve"/>
			<point x="490" y="61"/>
			<point x="468" y="26"/>
			<point x="432" y="4"/>
			<point x="388" y="-7"/>
			<point x="366" y="-7" type="qcurve"/>
			<point x="330" y="-7"/>
			<point x="280" y="24"/>
		</contour>
		<contour>
			<point x="435" y="74" type="qcurve"/>
			<point x="435" y="89"/>
			<point x="401" y="104"/>
			<point x="380" y="112" type="qcurve"/>
			<point x="362" y="105"/>
			<point x="336" y="80"/>
			<point x="336" y="64" type="qcurve"/>
			<point x="336" y="53"/>
			<point x="358" y="39"/>
			<point x="379" y="39" type="qcurve"/>
			<point x="405" y="39"/>
			<point x="435" y="59"/>
		</contour>
		<contour>
			<point x="372" y="181" type="qcurve"/>
			<point x="372" y="169"/>
			<point x="398" y="155"/>
			<point x="416" y="149" type="qcurve"/>
			<point x="436" y="158"/>
			<point x="455" y="181"/>
			<point x="455" y="190" type="qcurve"/>
			<point x="455" y="198"/>
			<point x="439" y="213"/>
			<point x="416" y="213" type="qcurve"/>
			<point x="395" y="213"/>
			<point x="372" y="193"/>
		</contour>
		<contour>
			<point x="95" y="0" type="line"/>
			<point x="19" y="0" type="line"/>
			<point x="501" y="619" type="line"/>
			<point x="579" y="619" type="line"/>
		</contour>
	</outline>
</glyph>
